  0
SECTION
  2
HEADER
  9
$ACADVER
  1
AC1006
  9
$EXTMIN
 10
0.000000
 20
0.000000
 30
0.000000
  9
$EXTMAX
 10
95.000000
 20
45.000000
 30
0.000000
  0
ENDSEC
  0
SECTION
  2
ENTITIES
  0
POLYLINE
  8
0
 66
1
 70
1
  0
VERTEX
  8
0
 10
40.000000
 20
29.500000
 42
0.000000
  0
VERTEX
  8
0
 10
40.000000
 20
21.000000
 42
0.000000
  0
VERTEX
  8
0
 10
21.500000
 20
21.000000
 42
0.000000
  0
VERTEX
  8
0
 10
3.000000
 20
21.000000
 42
0.000000
  0
VERTEX
  8
0
 10
3.000000
 20
11.500000
 42
0.000000
  0
VERTEX
  8
0
 10
3.000000
 20
2.000000
 42
0.000000
  0
VERTEX
  8
0
 10
30.000000
 20
2.000000
 42
0.000000
  0
VERTEX
  8
0
 10
57.000000
 20
2.000000
 42
0.000000
  0
VERTEX
  8
0
 10
57.000000
 20
10.500000
 42
0.000000
  0
VERTEX
  8
0
 10
57.000000
 20
19.000000
 42
0.000000
  0
VERTEX
  8
0
 10
75.500000
 20
19.000000
 42
0.000000
  0
VERTEX
  8
0
 10
94.000000
 20
19.000000
 42
0.000000
  0
VERTEX
  8
0
 10
94.000000
 20
28.500000
 42
0.000000
  0
VERTEX
  8
0
 10
94.000000
 20
38.000000
 42
0.000000
  0
VERTEX
  8
0
 10
67.000000
 20
38.000000
 42
0.000000
  0
VERTEX
  8
0
 10
40.000000
 20
38.000000
 42
0.000000
  0
SEQEND
  0
POLYLINE
  8
0
 66
1
 70
1
  0
VERTEX
  8
0
 10
93.000000
 20
28.500000
 42
0.000000
  0
VERTEX
  8
0
 10
93.000000
 20
20.000000
 42
0.000000
  0
VERTEX
  8
0
 10
74.500000
 20
20.000000
 42
0.000000
  0
VERTEX
  8
0
 10
56.000000
 20
20.000000
 42
0.000000
  0
VERTEX
  8
0
 10
56.000000
 20
11.500000
 42
0.000000
  0
VERTEX
  8
0
 10
56.000000
 20
3.000000
 42
0.000000
  0
VERTEX
  8
0
 10
30.500000
 20
3.000000
 42
0.000000
  0
VERTEX
  8
0
 10
5.000000
 20
3.000000
 42
0.000000
  0
VERTEX
  8
0
 10
5.000000
 20
11.500000
 42
0.000000
  0
VERTEX
  8
0
 10
5.000000
 20
20.000000
 42
0.000000
  0
VERTEX
  8
0
 10
23.000000
 20
20.000000
 42
0.000000
  0
VERTEX
  8
0
 10
41.000000
 20
20.000000
 42
0.000000
  0
VERTEX
  8
0
 10
41.000000
 20
28.500000
 42
0.000000
  0
VERTEX
  8
0
 10
41.000000
 20
37.000000
 42
0.000000
  0
VERTEX
  8
0
 10
67.000000
 20
37.000000
 42
0.000000
  0
VERTEX
  8
0
 10
93.000000
 20
37.000000
 42
0.000000
  0
SEQEND
  0
ENDSEC
  0
EOF
