  0
SECTION
  2
HEADER
  9
$ACADVER
  1
AC1006
  9
$EXTMIN
 10
0.000000
 20
0.000000
 30
0.000000
  9
$EXTMAX
 10
97.000000
 20
235.000000
 30
0.000000
  0
ENDSEC
  0
SECTION
  2
ENTITIES
  0
POLYLINE
  8
0
 66
1
 70
1
  0
VERTEX
  8
0
 10
12.843476
 20
221.250000
 42
-0.001453
  0
VERTEX
  8
0
 10
12.769219
 20
217.333741
 42
-0.001717
  0
VERTEX
  8
0
 10
12.675491
 20
213.629687
 42
-0.001498
  0
VERTEX
  8
0
 10
12.576253
 20
210.502958
 42
-0.010834
  0
VERTEX
  8
0
 10
12.491410
 20
209.000000
 42
0.006018
  0
VERTEX
  8
0
 10
12.384919
 20
207.389362
 42
0.000517
  0
VERTEX
  8
0
 10
12.166526
 20
203.268750
 42
0.000683
  0
VERTEX
  8
0
 10
11.917811
 20
198.352729
 42
0.000530
  0
VERTEX
  8
0
 10
11.660014
 20
193.000000
 42
-0.000206
  0
VERTEX
  8
0
 10
11.337206
 20
186.205935
 42
-0.000074
  0
VERTEX
  8
0
 10
10.871428
 20
176.517175
 42
-0.000073
  0
VERTEX
  8
0
 10
10.357485
 20
165.891589
 42
-0.000087
  0
VERTEX
  8
0
 10
9.868367
 20
155.845702
 42
0.002793
  0
VERTEX
  8
0
 10
9.217360
 20
140.798384
 42
0.020097
  0
VERTEX
  8
0
 10
9.235783
 20
133.535734
 42
0.053691
  0
VERTEX
  8
0
 10
9.772441
 20
129.984961
 42
0.503912
  0
VERTEX
  8
0
 10
10.994791
 20
129.496781
 42
-0.151503
  0
VERTEX
  8
0
 10
12.726289
 20
129.944176
 42
-0.000789
  0
VERTEX
  8
0
 10
30.505785
 20
129.064446
 42
-0.002684
  0
VERTEX
  8
0
 10
46.875921
 20
128.140439
 42
-0.032324
  0
VERTEX
  8
0
 10
53.136891
 20
127.344950
 42
0.000000
  0
VERTEX
  8
0
 10
56.500000
 20
126.694657
 42
0.000000
  0
VERTEX
  8
0
 10
54.595012
 20
128.847328
 42
0.026468
  0
VERTEX
  8
0
 10
53.785305
 20
129.670166
 42
0.030380
  0
VERTEX
  8
0
 10
52.927955
 20
130.363155
 42
0.031750
  0
VERTEX
  8
0
 10
52.141136
 20
130.851593
 42
0.127195
  0
VERTEX
  8
0
 10
51.595012
 20
130.984687
 42
0.172902
  0
VERTEX
  8
0
 10
51.320037
 20
130.882314
 42
0.317988
  0
VERTEX
  8
0
 10
51.262285
 20
130.661866
 42
0.116678
  0
VERTEX
  8
0
 10
51.493393
 20
130.318069
 42
0.032639
  0
VERTEX
  8
0
 10
52.000000
 20
129.907224
 42
-0.459010
  0
VERTEX
  8
0
 10
52.039055
 20
129.493023
 42
-0.181516
  0
VERTEX
  8
0
 10
51.448715
 20
129.211456
 42
-0.033599
  0
VERTEX
  8
0
 10
49.543938
 20
129.175737
 42
-0.006041
  0
VERTEX
  8
0
 10
46.000000
 20
129.390420
 42
0.003130
  0
VERTEX
  8
0
 10
42.161348
 20
129.645390
 42
0.001033
  0
VERTEX
  8
0
 10
36.517187
 20
129.973110
 42
0.001028
  0
VERTEX
  8
0
 10
30.255692
 20
130.310785
 42
0.001166
  0
VERTEX
  8
0
 10
24.250000
 20
130.608237
 42
0.000000
  0
VERTEX
  8
0
 10
10.000000
 20
131.280708
 42
0.000000
  0
VERTEX
  8
0
 10
10.004647
 20
135.390354
 42
-0.010693
  0
VERTEX
  8
0
 10
10.060232
 20
137.858525
 42
-0.001472
  0
VERTEX
  8
0
 10
10.300933
 20
142.992791
 42
-0.001689
  0
VERTEX
  8
0
 10
10.624504
 20
149.072795
 42
-0.001428
  0
VERTEX
  8
0
 10
11.006754
 20
155.500000
 42
0.001525
  0
VERTEX
  8
0
 10
11.486911
 20
163.599830
 42
0.000530
  0
VERTEX
  8
0
 10
12.130797
 20
175.273852
 42
0.000527
  0
VERTEX
  8
0
 10
12.812603
 20
188.129725
 42
0.000614
  0
VERTEX
  8
0
 10
13.432596
 20
200.347156
 42
-0.001425
  0
VERTEX
  8
0
 10
14.013562
 20
211.440185
 42
-0.002317
  0
VERTEX
  8
0
 10
14.577389
 20
220.856458
 42
-0.000322
  0
VERTEX
  8
0
 10
15.121944
 20
229.211611
 42
-0.181884
  0
VERTEX
  8
0
 10
15.323951
 20
229.657284
 42
-0.210745
  0
VERTEX
  8
0
 10
16.149064
 20
229.977304
 42
-0.000092
  0
VERTEX
  8
0
 10
46.794367
 20
228.578710
 42
-0.001226
  0
VERTEX
  8
0
 10
73.841842
 20
227.272882
 42
-0.009015
  0
VERTEX
  8
0
 10
86.750000
 20
226.384388
 42
0.000000
  0
VERTEX
  8
0
 10
93.000000
 20
225.840812
 42
0.000000
  0
VERTEX
  8
0
 10
92.993532
 20
219.170406
 42
-0.007640
  0
VERTEX
  8
0
 10
92.932869
 20
215.437478
 42
-0.001585
  0
VERTEX
  8
0
 10
92.705179
 20
208.878182
 42
-0.001664
  0
VERTEX
  8
0
 10
92.391296
 20
201.263316
 42
-0.001569
  0
VERTEX
  8
0
 10
92.020985
 20
193.500000
 42
0.003508
  0
VERTEX
  8
0
 10
91.555283
 20
182.870975
 42
0.000731
  0
VERTEX
  8
0
 10
90.896456
 20
164.218750
 42
0.000768
  0
VERTEX
  8
0
 10
90.196679
 20
142.567243
 42
0.000725
  0
VERTEX
  8
0
 10
89.549422
 20
120.500000
 42
-0.000210
  0
VERTEX
  8
0
 10
88.935276
 20
98.798721
 42
-0.000247
  0
VERTEX
  8
0
 10
88.334923
 20
78.250000
 42
-0.000216
  0
VERTEX
  8
0
 10
87.811681
 20
60.892429
 42
-0.001548
  0
VERTEX
  8
0
 10
87.529041
 20
52.500000
 42
0.003063
  0
VERTEX
  8
0
 10
87.330975
 20
46.036685
 42
0.001677
  0
VERTEX
  8
0
 10
87.163318
 20
38.112636
 42
0.001671
  0
VERTEX
  8
0
 10
87.046919
 20
30.063359
 42
0.002664
  0
VERTEX
  8
0
 10
87.007072
 20
23.181315
 42
0.000000
  0
VERTEX
  8
0
 10
87.000000
 20
7.862630
 42
0.000000
  0
VERTEX
  8
0
 10
47.750000
 20
8.560428
 42
-0.000507
  0
VERTEX
  8
0
 10
32.681626
 20
8.843603
 42
-0.000837
  0
VERTEX
  8
0
 10
19.952435
 20
9.117052
 42
-0.000045
  0
VERTEX
  8
0
 10
8.483102
 20
9.383691
 42
-0.168317
  0
VERTEX
  8
0
 10
8.237012
 20
9.475434
 42
-0.225895
  0
VERTEX
  8
0
 10
8.130737
 20
9.703472
 42
-0.000037
  0
VERTEX
  8
0
 10
8.249830
 20
24.067730
 42
-0.000840
  0
VERTEX
  8
0
 10
8.409685
 20
39.983478
 42
-0.000507
  0
VERTEX
  8
0
 10
8.649949
 20
58.846321
 42
0.000000
  0
VERTEX
  8
0
 10
9.325874
 20
108.000000
 42
0.000000
  0
VERTEX
  8
0
 10
33.221954
 20
108.000000
 42
-0.002922
  0
VERTEX
  8
0
 10
43.333382
 20
107.940911
 42
-0.007422
  0
VERTEX
  8
0
 10
50.672498
 20
107.746145
 42
-0.003325
  0
VERTEX
  8
0
 10
56.291731
 20
107.476066
 42
-0.569146
  0
VERTEX
  8
0
 10
56.521868
 20
107.035383
 42
0.199287
  0
VERTEX
  8
0
 10
56.420118
 20
106.405496
 42
0.021253
  0
VERTEX
  8
0
 10
56.832436
 20
104.948416
 42
0.023584
  0
VERTEX
  8
0
 10
57.505723
 20
103.188683
 42
0.016826
  0
VERTEX
  8
0
 10
58.416290
 20
101.285383
 42
0.010536
  0
VERTEX
  8
0
 10
59.377007
 20
99.530766
 42
0.024311
  0
VERTEX
  8
0
 10
60.188945
 20
98.265794
 42
0.049929
  0
VERTEX
  8
0
 10
60.738886
 20
97.637533
 42
0.642673
  0
VERTEX
  8
0
 10
60.953439
 20
97.725830
 42
0.094053
  0
VERTEX
  8
0
 10
60.852198
 20
98.397572
 42
0.017929
  0
VERTEX
  8
0
 10
60.399921
 20
99.553360
 42
0.018551
  0
VERTEX
  8
0
 10
59.764540
 20
100.882412
 42
0.016119
  0
VERTEX
  8
0
 10
59.003738
 20
102.225830
 42
-0.012418
  0
VERTEX
  8
0
 10
57.679738
 20
104.523902
 42
-0.060113
  0
VERTEX
  8
0
 10
57.125167
 20
105.921399
 42
-0.186986
  0
VERTEX
  8
0
 10
57.208633
 20
106.663431
 42
-0.285345
  0
VERTEX
  8
0
 10
57.750000
 20
106.982934
 42
-0.251668
  0
VERTEX
  8
0
 10
58.140226
 20
106.761652
 42
-0.011077
  0
VERTEX
  8
0
 10
58.969189
 20
105.377793
 42
-0.016488
  0
VERTEX
  8
0
 10
59.893403
 20
103.622199
 42
-0.010784
  0
VERTEX
  8
0
 10
60.847240
 20
101.542590
 42
-0.013677
  0
VERTEX
  8
0
 10
62.096856
 20
98.424051
 42
-0.055805
  0
VERTEX
  8
0
 10
62.585838
 20
96.445341
 42
-0.074686
  0
VERTEX
  8
0
 10
62.553997
 20
94.707658
 42
-0.037857
  0
VERTEX
  8
0
 10
62.026141
 20
92.579207
 42
0.035643
  0
VERTEX
  8
0
 10
61.318589
 20
89.779233
 42
0.167783
  0
VERTEX
  8
0
 10
61.572863
 20
88.164698
 42
0.213186
  0
VERTEX
  8
0
 10
62.711452
 20
87.277313
 42
0.060562
  0
VERTEX
  8
0
 10
64.992542
 20
87.000000
 42
0.000000
  0
VERTEX
  8
0
 10
67.867051
 20
87.000000
 42
0.000000
  0
VERTEX
  8
0
 10
67.826833
 20
77.993077
 42
-0.009239
  0
VERTEX
  8
0
 10
67.746713
 20
74.501475
 42
-0.013984
  0
VERTEX
  8
0
 10
67.536020
 20
71.469760
 42
-0.008630
  0
VERTEX
  8
0
 10
67.249988
 20
68.985004
 42
-0.225025
  0
VERTEX
  8
0
 10
66.893307
 20
68.434060
 42
0.188017
  0
VERTEX
  8
0
 10
66.544923
 20
67.971503
 42
0.024204
  0
VERTEX
  8
0
 10
66.262409
 20
66.739605
 42
0.025549
  0
VERTEX
  8
0
 10
66.065204
 20
65.182145
 42
0.018718
  0
VERTEX
  8
0
 10
66.000000
 20
63.440983
 42
0.000000
  0
VERTEX
  8
0
 10
66.000000
 20
59.000000
 42
0.000000
  0
VERTEX
  8
0
 10
61.417489
 20
59.000000
 42
0.000000
  0
VERTEX
  8
0
 10
56.834978
 20
59.000000
 42
0.000000
  0
VERTEX
  8
0
 10
57.167489
 20
63.750000
 42
0.000000
  0
VERTEX
  8
0
 10
57.500000
 20
68.500000
 42
0.000000
  0
VERTEX
  8
0
 10
43.250000
 20
68.777457
 42
0.000000
  0
VERTEX
  8
0
 10
29.000000
 20
69.054913
 42
0.000000
  0
VERTEX
  8
0
 10
29.000000
 20
77.919049
 42
-0.004429
  0
VERTEX
  8
0
 10
29.050792
 20
83.653034
 42
-0.061759
  0
VERTEX
  8
0
 10
29.340860
 20
85.695473
 42
-0.176355
  0
VERTEX
  8
0
 10
30.084281
 20
86.751127
 42
-0.090802
  0
VERTEX
  8
0
 10
31.575239
 20
87.429528
 42
-0.048050
  0
VERTEX
  8
0
 10
33.208082
 20
87.676104
 42
-0.005076
  0
VERTEX
  8
0
 10
37.062514
 20
87.844644
 42
-0.006237
  0
VERTEX
  8
0
 10
41.668377
 20
87.941713
 42
-0.004968
  0
VERTEX
  8
0
 10
46.639028
 20
87.935058
 42
0.004687
  0
VERTEX
  8
0
 10
51.470381
 20
87.925874
 42
0.007258
  0
VERTEX
  8
0
 10
55.641057
 20
88.017599
 42
0.002890
  0
VERTEX
  8
0
 10
59.191462
 20
88.167821
 42
0.186450
  0
VERTEX
  8
0
 10
59.747122
 20
88.413788
 42
0.198361
  0
VERTEX
  8
0
 10
59.884307
 20
88.743992
 42
0.089747
  0
VERTEX
  8
0
 10
59.800352
 20
89.213634
 42
0.068054
  0
VERTEX
  8
0
 10
59.513540
 20
89.749018
 42
0.046832
  0
VERTEX
  8
0
 10
59.058333
 20
90.266667
 42
0.027687
  0
VERTEX
  8
0
 10
58.365151
 20
90.851164
 42
0.165129
  0
VERTEX
  8
0
 10
57.922199
 20
90.996908
 42
0.244549
  0
VERTEX
  8
0
 10
57.584608
 20
90.817223
 42
0.062720
  0
VERTEX
  8
0
 10
57.291667
 20
90.250000
 42
-0.120628
  0
VERTEX
  8
0
 10
56.970351
 20
89.771702
 42
-0.066279
  0
VERTEX
  8
0
 10
56.387612
 20
89.367188
 42
-0.060000
  0
VERTEX
  8
0
 10
55.647271
 20
89.093097
 42
-0.058747
  0
VERTEX
  8
0
 10
54.857650
 20
89.000000
 42
-0.050137
  0
VERTEX
  8
0
 10
54.144277
 20
89.071713
 42
-0.109046
  0
VERTEX
  8
0
 10
53.643871
 20
89.293750
 42
-0.184772
  0
VERTEX
  8
0
 10
53.433414
 20
89.621713
 42
-0.191977
  0
VERTEX
  8
0
 10
53.500000
 20
90.000000
 42
0.082592
  0
VERTEX
  8
0
 10
53.656512
 20
90.382100
 42
0.161196
  0
VERTEX
  8
0
 10
53.625400
 20
90.706250
 42
0.182303
  0
VERTEX
  8
0
 10
53.413961
 20
90.921712
 42
0.108972
  0
VERTEX
  8
0
 10
53.059017
 20
91.000000
 42
0.093332
  0
VERTEX
  8
0
 10
52.654762
 20
90.923877
 42
0.096420
  0
VERTEX
  8
0
 10
52.311086
 20
90.706250
 42
0.099167
  0
VERTEX
  8
0
 10
52.081062
 20
90.381556
 42
0.105053
  0
VERTEX
  8
0
 10
52.000000
 20
90.000000
 42
-0.379241
  0
VERTEX
  8
0
 10
51.613708
 20
89.563953
 42
-0.009430
  0
VERTEX
  8
0
 10
48.750000
 20
89.270833
 42
-0.014311
  0
VERTEX
  8
0
 10
44.965740
 20
89.064309
 42
-0.006475
  0
VERTEX
  8
0
 10
40.000000
 20
89.000000
 42
0.000000
  0
VERTEX
  8
0
 10
28.000000
 20
89.000000
 42
0.000000
  0
VERTEX
  8
0
 10
28.000000
 20
78.500000
 42
0.000000
  0
VERTEX
  8
0
 10
28.000000
 20
68.000000
 42
0.000000
  0
VERTEX
  8
0
 10
37.360429
 20
68.000000
 42
-0.005947
  0
VERTEX
  8
0
 10
41.284396
 20
67.953329
 42
-0.005401
  0
VERTEX
  8
0
 10
45.334106
 20
67.813197
 42
-0.005413
  0
VERTEX
  8
0
 10
48.954074
 20
67.609478
 42
-0.017295
  0
VERTEX
  8
0
 10
51.360429
 20
67.364076
 42
-0.013480
  0
VERTEX
  8
0
 10
54.329898
 20
66.875185
 42
-0.144339
  0
VERTEX
  8
0
 10
55.403389
 20
66.320627
 42
-0.180158
  0
VERTEX
  8
0
 10
55.886841
 20
65.321776
 42
-0.023575
  0
VERTEX
  8
0
 10
56.000000
 20
62.923093
 42
0.018545
  0
VERTEX
  8
0
 10
56.055339
 20
61.431568
 42
0.025362
  0
VERTEX
  8
0
 10
56.222735
 20
60.098112
 42
0.023931
  0
VERTEX
  8
0
 10
56.462463
 20
59.043166
 42
0.188673
  0
VERTEX
  8
0
 10
56.758246
 20
58.649412
 42
0.097263
  0
VERTEX
  8
0
 10
57.286848
 20
58.450651
 42
0.007879
  0
VERTEX
  8
0
 10
58.760085
 20
58.228018
 42
0.010373
  0
VERTEX
  8
0
 10
60.541055
 20
58.025040
 42
0.007785
  0
VERTEX
  8
0
 10
62.508246
 20
57.872942
 42
0.000000
  0
VERTEX
  8
0
 10
67.500000
 20
57.565093
 42
0.000000
  0
VERTEX
  8
0
 10
68.177369
 20
64.032547
 42
0.006635
  0
VERTEX
  8
0
 10
68.460194
 20
67.129037
 42
0.003049
  0
VERTEX
  8
0
 10
68.750534
 20
71.170541
 42
0.003019
  0
VERTEX
  8
0
 10
69.004464
 20
75.427383
 42
0.004172
  0
VERTEX
  8
0
 10
69.177369
 20
79.250145
 42
0.003901
  0
VERTEX
  8
0
 10
69.340957
 20
84.879344
 42
0.059585
  0
VERTEX
  8
0
 10
69.151193
 20
86.813893
 42
0.215011
  0
VERTEX
  8
0
 10
68.510494
 20
87.673734
 42
0.127409
  0
VERTEX
  8
0
 10
67.250000
 20
88.000145
 42
-0.071918
  0
VERTEX
  8
0
 10
65.721863
 20
88.220988
 42
-0.294916
  0
VERTEX
  8
0
 10
65.139968
 20
88.897826
 42
-0.110835
  0
VERTEX
  8
0
 10
65.256990
 20
90.283883
 42
-0.008547
  0
VERTEX
  8
0
 10
66.446487
 20
93.848329
 42
0.035204
  0
VERTEX
  8
0
 10
67.162911
 20
96.449025
 42
0.123363
  0
VERTEX
  8
0
 10
67.081769
 20
98.172053
 42
0.303396
  0
VERTEX
  8
0
 10
66.301199
 20
98.815126
 42
0.164857
  0
VERTEX
  8
0
 10
65.038343
 20
98.523697
 42
-0.394781
  0
VERTEX
  8
0
 10
64.214373
 20
98.689372
 42
-0.013685
  0
VERTEX
  8
0
 10
62.219501
 20
101.649471
 42
-0.019377
  0
VERTEX
  8
0
 10
60.433470
 20
104.719574
 42
-0.122645
  0
VERTEX
  8
0
 10
60.000000
 20
106.460162
 42
-0.370785
  0
VERTEX
  8
0
 10
60.184532
 20
106.674791
 42
-0.010741
  0
VERTEX
  8
0
 10
61.468750
 20
106.841423
 42
-0.016759
  0
VERTEX
  8
0
 10
63.082954
 20
106.961152
 42
-0.010131
  0
VERTEX
  8
0
 10
65.000000
 20
107.000000
 42
0.000000
  0
VERTEX
  8
0
 10
70.000000
 20
107.000000
 42
0.000000
  0
VERTEX
  8
0
 10
70.000000
 20
111.353309
 42
-0.010620
  0
VERTEX
  8
0
 10
70.044619
 20
113.453714
 42
-0.004658
  0
VERTEX
  8
0
 10
70.188722
 20
116.233424
 42
-0.004607
  0
VERTEX
  8
0
 10
70.396386
 20
119.181518
 42
-0.006151
  0
VERTEX
  8
0
 10
70.642456
 20
121.853309
 42
0.000000
  0
VERTEX
  8
0
 10
71.284913
 20
128.000000
 42
0.000000
  0
VERTEX
  8
0
 10
67.142456
 20
128.000000
 42
-0.021847
  0
VERTEX
  8
0
 10
65.374743
 20
128.077277
 42
-0.051212
  0
VERTEX
  8
0
 10
64.077556
 20
128.326362
 42
-0.079998
  0
VERTEX
  8
0
 10
63.263998
 20
128.721065
 42
-0.241325
  0
VERTEX
  8
0
 10
62.984687
 20
129.250000
 42
0.031947
  0
VERTEX
  8
0
 10
62.943881
 20
129.785026
 42
0.321471
  0
VERTEX
  8
0
 10
62.797932
 20
129.937951
 42
0.273293
  0
VERTEX
  8
0
 10
62.581666
 20
129.859766
 42
0.026250
  0
VERTEX
  8
0
 10
62.234687
 20
129.391641
 42
-0.103892
  0
VERTEX
  8
0
 10
61.824713
 20
128.987372
 42
-0.061375
  0
VERTEX
  8
0
 10
61.202918
 20
128.687967
 42
-0.057496
  0
VERTEX
  8
0
 10
60.476356
 20
128.532125
 42
-0.062444
  0
VERTEX
  8
0
 10
59.753971
 20
128.552574
 42
0.051664
  0
VERTEX
  8
0
 10
59.044341
 20
128.587935
 42
0.054453
  0
VERTEX
  8
0
 10
58.355460
 20
128.475175
 42
0.060707
  0
VERTEX
  8
0
 10
57.787740
 20
128.240276
 42
0.126581
  0
VERTEX
  8
0
 10
57.444954
 20
127.910933
 42
0.502154
  0
VERTEX
  8
0
 10
57.588116
 20
127.549530
 42
0.028451
  0
VERTEX
  8
0
 10
58.958655
 20
127.263127
 42
0.024857
  0
VERTEX
  8
0
 10
60.961963
 20
127.063308
 42
0.012429
  0
VERTEX
  8
0
 10
63.508371
 20
127.000000
 42
-0.005898
  0
VERTEX
  8
0
 10
67.493842
 20
126.952988
 42
-0.071132
  0
VERTEX
  8
0
 10
69.002956
 20
126.700746
 42
-0.259138
  0
VERTEX
  8
0
 10
69.557709
 20
126.112421
 42
-0.139965
  0
VERTEX
  8
0
 10
69.527764
 20
125.087477
 42
0.048517
  0
VERTEX
  8
0
 10
69.281415
 20
123.933795
 42
0.007332
  0
VERTEX
  8
0
 10
69.048352
 20
121.581374
 42
0.008164
  0
VERTEX
  8
0
 10
68.858713
 20
118.786947
 42
0.006977
  0
VERTEX
  8
0
 10
68.748123
 20
115.837477
 42
0.000000
  0
VERTEX
  8
0
 10
68.575492
 20
108.500000
 42
0.000000
  0
VERTEX
  8
0
 10
38.037746
 20
108.853066
 42
0.000000
  0
VERTEX
  8
0
 10
7.500000
 20
109.206133
 42
0.000000
  0
VERTEX
  8
0
 10
7.151603
 20
58.603066
 42
0.000000
  0
VERTEX
  8
0
 10
6.803206
 20
8.000000
 42
0.000000
  0
VERTEX
  8
0
 10
13.151603
 20
7.933421
 42
-0.001257
  0
VERTEX
  8
0
 10
34.424666
 20
7.656849
 42
-0.001308
  0
VERTEX
  8
0
 10
55.414188
 20
7.276281
 42
-0.000937
  0
VERTEX
  8
0
 10
73.707871
 20
6.862418
 42
-0.011276
  0
VERTEX
  8
0
 10
80.750000
 20
6.530883
 42
0.000000
  0
VERTEX
  8
0
 10
88.000000
 20
6.025508
 42
0.000000
  0
VERTEX
  8
0
 10
88.185172
 20
14.262754
 42
-0.000287
  0
VERTEX
  8
0
 10
88.339840
 20
20.971444
 42
-0.000302
  0
VERTEX
  8
0
 10
88.499747
 20
27.569774
 42
-0.000130
  0
VERTEX
  8
0
 10
88.751998
 20
37.619708
 42
-0.000013
  0
VERTEX
  8
0
 10
89.370913
 20
62.000000
 42
-0.000157
  0
VERTEX
  8
0
 10
90.004037
 20
86.610720
 42
-0.000260
  0
VERTEX
  8
0
 10
90.555833
 20
107.385929
 42
-0.000306
  0
VERTEX
  8
0
 10
91.044554
 20
125.033252
 42
-0.000500
  0
VERTEX
  8
0
 10
91.483199
 20
140.000000
 42
0.000013
  0
VERTEX
  8
0
 10
91.706015
 20
147.357576
 42
0.000006
  0
VERTEX
  8
0
 10
91.992278
 20
156.821875
 42
0.000006
  0
VERTEX
  8
0
 10
92.291158
 20
166.711060
 42
0.000008
  0
VERTEX
  8
0
 10
92.556532
 20
175.500000
 42
-0.001656
  0
VERTEX
  8
0
 10
92.850895
 20
184.288925
 42
-0.001164
  0
VERTEX
  8
0
 10
93.237947
 20
194.178125
 42
-0.001174
  0
VERTEX
  8
0
 10
93.652684
 20
203.642284
 42
-0.002460
  0
VERTEX
  8
0
 10
94.028711
 20
211.000000
 42
0.004412
  0
VERTEX
  8
0
 10
94.311226
 20
216.986339
 42
0.006948
  0
VERTEX
  8
0
 10
94.436948
 20
222.129900
 42
0.002440
  0
VERTEX
  8
0
 10
94.461887
 20
226.535042
 42
0.214011
  0
VERTEX
  8
0
 10
94.198672
 20
227.123062
 42
0.171306
  0
VERTEX
  8
0
 10
93.226135
 20
227.521620
 42
0.000077
  0
VERTEX
  8
0
 10
57.586784
 20
229.285937
 42
0.000733
  0
VERTEX
  8
0
 10
25.390935
 20
230.827511
 42
0.013736
  0
VERTEX
  8
0
 10
15.250000
 20
231.019269
 42
0.144915
  0
VERTEX
  8
0
 10
13.983399
 20
230.632469
 42
0.188448
  0
VERTEX
  8
0
 10
13.290521
 20
229.649622
 42
0.052693
  0
VERTEX
  8
0
 10
12.989251
 20
227.451964
 42
0.003724
  0
SEQEND
  0
POLYLINE
  8
0
 66
1
 70
1
  0
VERTEX
  8
0
 10
64.824737
 20
92.634525
 42
-0.015316
  0
VERTEX
  8
0
 10
64.290930
 20
90.858488
 42
-0.023523
  0
VERTEX
  8
0
 10
63.710886
 20
89.361392
 42
-0.020066
  0
VERTEX
  8
0
 10
63.152739
 20
88.225724
 42
-0.275109
  0
VERTEX
  8
0
 10
62.773543
 20
88.000000
 42
-0.429667
  0
VERTEX
  8
0
 10
62.351429
 20
88.444865
 42
-0.030829
  0
VERTEX
  8
0
 10
62.567064
 20
90.326386
 42
-0.028421
  0
VERTEX
  8
0
 10
63.170609
 20
92.874509
 42
-0.016038
  0
VERTEX
  8
0
 10
64.174404
 20
95.888688
 42
-0.048188
  0
VERTEX
  8
0
 10
65.051240
 20
97.704579
 42
-0.683474
  0
VERTEX
  8
0
 10
65.550599
 20
97.616570
 42
-0.096871
  0
VERTEX
  8
0
 10
65.557919
 20
95.835206
 42
-0.018080
  0
SEQEND
  0
POLYLINE
  8
0
 66
1
 70
1
  0
VERTEX
  8
0
 10
32.655698
 20
203.980002
 42
0.006045
  0
VERTEX
  8
0
 10
32.404568
 20
201.259607
 42
0.004585
  0
VERTEX
  8
0
 10
32.192611
 20
198.270640
 42
0.004636
  0
VERTEX
  8
0
 10
32.045423
 20
195.461717
 42
0.010771
  0
VERTEX
  8
0
 10
32.000000
 20
193.353309
 42
0.000000
  0
VERTEX
  8
0
 10
32.000000
 20
189.000000
 42
0.000000
  0
VERTEX
  8
0
 10
38.250000
 20
189.189084
 42
0.000000
  0
VERTEX
  8
0
 10
44.500000
 20
189.378169
 42
0.000000
  0
VERTEX
  8
0
 10
38.613186
 20
189.743071
 42
0.000000
  0
VERTEX
  8
0
 10
32.726373
 20
190.107972
 42
0.000000
  0
VERTEX
  8
0
 10
33.363186
 20
196.200677
 42
0.004799
  0
VERTEX
  8
0
 10
33.606991
 20
198.771721
 42
0.004224
  0
VERTEX
  8
0
 10
33.812936
 20
201.458666
 42
0.004247
  0
VERTEX
  8
0
 10
33.957638
 20
203.885542
 42
0.012766
  0
VERTEX
  8
0
 10
34.000000
 20
205.544501
 42
0.000000
  0
VERTEX
  8
0
 10
34.000000
 20
208.795620
 42
0.000000
  0
VERTEX
  8
0
 10
41.750000
 20
208.450305
 42
-0.001368
  0
VERTEX
  8
0
 10
45.503939
 20
208.272752
 42
-0.000590
  0
VERTEX
  8
0
 10
50.505834
 20
208.016545
 42
-0.000584
  0
VERTEX
  8
0
 10
55.828938
 20
207.731357
 42
-0.000773
  0
VERTEX
  8
0
 10
60.674116
 20
207.458587
 42
0.000000
  0
VERTEX
  8
0
 10
71.848231
 20
206.812185
 42
0.000000
  0
VERTEX
  8
0
 10
71.628578
 20
197.656093
 42
0.000000
  0
VERTEX
  8
0
 10
71.408924
 20
188.500000
 42
0.000000
  0
VERTEX
  8
0
 10
62.954462
 20
188.696603
 42
-0.004963
  0
VERTEX
  8
0
 10
59.362984
 20
188.815796
 42
-0.004179
  0
VERTEX
  8
0
 10
55.562490
 20
189.011540
 42
-0.004217
  0
VERTEX
  8
0
 10
52.096550
 20
189.248465
 42
-0.011651
  0
VERTEX
  8
0
 10
49.662525
 20
189.492650
 42
0.012079
  0
VERTEX
  8
0
 10
47.529710
 20
189.704772
 42
0.045315
  0
VERTEX
  8
0
 10
46.185741
 20
189.683811
 42
0.126220
  0
VERTEX
  8
0
 10
45.554941
 20
189.448337
 42
0.398249
  0
VERTEX
  8
0
 10
45.471542
 20
189.046047
 42
0.176446
  0
VERTEX
  8
0
 10
45.986649
 20
188.639687
 42
0.028969
  0
VERTEX
  8
0
 10
47.232666
 20
188.307276
 42
0.028825
  0
VERTEX
  8
0
 10
48.811162
 20
188.076532
 42
0.021883
  0
VERTEX
  8
0
 10
50.559017
 20
188.000000
 42
-0.021227
  0
VERTEX
  8
0
 10
52.261135
 20
187.927706
 42
-0.034160
  0
VERTEX
  8
0
 10
53.695461
 20
187.706250
 42
-0.037703
  0
VERTEX
  8
0
 10
54.734720
 20
187.388352
 42
-0.308946
  0
VERTEX
  8
0
 10
55.000000
 20
187.000000
 42
0.105053
  0
VERTEX
  8
0
 10
55.081062
 20
186.618444
 42
0.099167
  0
VERTEX
  8
0
 10
55.311086
 20
186.293750
 42
0.096420
  0
VERTEX
  8
0
 10
55.654762
 20
186.076123
 42
0.093332
  0
VERTEX
  8
0
 10
56.059017
 20
186.000000
 42
0.108972
  0
VERTEX
  8
0
 10
56.413961
 20
186.078288
 42
0.182303
  0
VERTEX
  8
0
 10
56.625400
 20
186.293750
 42
0.161196
  0
VERTEX
  8
0
 10
56.656512
 20
186.617900
 42
0.082592
  0
VERTEX
  8
0
 10
56.500000
 20
187.000000
 42
-0.089706
  0
VERTEX
  8
0
 10
56.212661
 20
187.730745
 42
-0.564148
  0
VERTEX
  8
0
 10
56.449645
 20
187.946796
 42
-0.103751
  0
VERTEX
  8
0
 10
57.243017
 20
187.518698
 42
-0.020958
  0
VERTEX
  8
0
 10
58.428571
 20
186.428571
 42
0.032428
  0
VERTEX
  8
0
 10
59.033083
 20
185.897769
 42
0.087140
  0
VERTEX
  8
0
 10
59.538393
 20
185.633482
 42
0.216722
  0
VERTEX
  8
0
 10
59.855217
 20
185.671296
 42
0.262054
  0
VERTEX
  8
0
 10
60.000000
 20
185.928571
 42
-0.379066
  0
VERTEX
  8
0
 10
60.786081
 20
186.816450
 42
-0.035687
  0
VERTEX
  8
0
 10
63.942063
 20
186.974795
 42
-0.035143
  0
VERTEX
  8
0
 10
67.192519
 20
186.676645
 42
-0.248016
  0
VERTEX
  8
0
 10
68.416667
 20
185.750000
 42
0.029131
  0
VERTEX
  8
0
 10
68.744495
 20
185.142530
 42
0.260055
  0
VERTEX
  8
0
 10
69.000000
 20
185.000000
 42
0.260055
  0
VERTEX
  8
0
 10
69.255505
 20
185.142530
 42
0.029131
  0
VERTEX
  8
0
 10
69.583333
 20
185.750000
 42
-0.082920
  0
VERTEX
  8
0
 10
69.911833
 20
186.228021
 42
-0.061238
  0
VERTEX
  8
0
 10
70.411458
 20
186.632812
 42
-0.060848
  0
VERTEX
  8
0
 10
70.998166
 20
186.906914
 42
-0.079041
  0
VERTEX
  8
0
 10
71.583333
 20
187.000000
 42
0.281240
  0
VERTEX
  8
0
 10
72.280292
 20
187.425696
 42
0.075769
  0
VERTEX
  8
0
 10
72.709484
 20
188.708292
 42
0.035396
  0
VERTEX
  8
0
 10
72.946928
 20
191.053457
 42
0.007122
  0
VERTEX
  8
0
 10
73.013655
 20
195.250000
 42
-0.006232
  0
VERTEX
  8
0
 10
73.060443
 20
198.563551
 42
-0.007350
  0
VERTEX
  8
0
 10
73.189886
 20
201.697207
 42
-0.006526
  0
VERTEX
  8
0
 10
73.372314
 20
204.335504
 42
-0.045066
  0
VERTEX
  8
0
 10
73.594416
 20
205.612832
 42
0.121283
  0
VERTEX
  8
0
 10
73.619015
 20
206.792901
 42
0.239544
  0
VERTEX
  8
0
 10
73.037038
 20
207.496933
 42
0.074223
  0
VERTEX
  8
0
 10
71.486818
 20
207.912022
 42
0.006168
  0
VERTEX
  8
0
 10
67.330761
 20
208.333704
 42
0.005131
  0
VERTEX
  8
0
 10
63.799894
 20
208.611514
 42
0.001614
  0
VERTEX
  8
0
 10
58.513210
 20
208.955780
 42
0.001612
  0
VERTEX
  8
0
 10
52.611316
 20
209.301878
 42
0.001786
  0
VERTEX
  8
0
 10
46.905698
 20
209.597566
 42
0.000000
  0
VERTEX
  8
0
 10
33.311397
 20
210.253386
 42
0.000000
  0
SEQEND
  0
POLYLINE
  8
0
 66
1
 70
1
  0
VERTEX
  8
0
 10
39.000000
 20
187.000000
 42
0.105053
  0
VERTEX
  8
0
 10
39.081062
 20
186.618444
 42
0.099167
  0
VERTEX
  8
0
 10
39.311086
 20
186.293750
 42
0.096420
  0
VERTEX
  8
0
 10
39.654762
 20
186.076123
 42
0.093332
  0
VERTEX
  8
0
 10
40.059017
 20
186.000000
 42
0.108972
  0
VERTEX
  8
0
 10
40.413961
 20
186.078288
 42
0.182303
  0
VERTEX
  8
0
 10
40.625400
 20
186.293750
 42
0.161196
  0
VERTEX
  8
0
 10
40.656512
 20
186.617900
 42
0.082592
  0
VERTEX
  8
0
 10
40.500000
 20
187.000000
 42
0.029505
  0
VERTEX
  8
0
 10
40.231006
 20
187.382774
 42
0.035638
  0
VERTEX
  8
0
 10
39.933975
 20
187.706250
 42
0.038439
  0
VERTEX
  8
0
 10
39.651710
 20
187.934461
 42
0.151918
  0
VERTEX
  8
0
 10
39.440983
 20
188.000000
 42
0.210953
  0
VERTEX
  8
0
 10
39.272352
 20
187.925540
 42
0.081139
  0
VERTEX
  8
0
 10
39.129539
 20
187.706250
 42
0.061769
  0
VERTEX
  8
0
 10
39.032345
 20
187.382849
 42
0.042167
  0
SEQEND
  0
POLYLINE
  8
0
 66
1
 70
1
  0
VERTEX
  8
0
 10
48.500000
 20
186.000000
 42
0.029505
  0
VERTEX
  8
0
 10
48.768994
 20
185.617226
 42
0.035638
  0
VERTEX
  8
0
 10
49.066025
 20
185.293750
 42
0.038439
  0
VERTEX
  8
0
 10
49.348290
 20
185.065539
 42
0.151918
  0
VERTEX
  8
0
 10
49.559017
 20
185.000000
 42
0.210953
  0
VERTEX
  8
0
 10
49.727648
 20
185.074460
 42
0.081139
  0
VERTEX
  8
0
 10
49.870461
 20
185.293750
 42
0.061769
  0
VERTEX
  8
0
 10
49.967655
 20
185.617151
 42
0.042167
  0
VERTEX
  8
0
 10
50.000000
 20
186.000000
 42
0.105053
  0
VERTEX
  8
0
 10
49.918938
 20
186.381556
 42
0.099167
  0
VERTEX
  8
0
 10
49.688914
 20
186.706250
 42
0.096420
  0
VERTEX
  8
0
 10
49.345238
 20
186.923877
 42
0.093332
  0
VERTEX
  8
0
 10
48.940983
 20
187.000000
 42
0.108972
  0
VERTEX
  8
0
 10
48.586039
 20
186.921712
 42
0.182303
  0
VERTEX
  8
0
 10
48.374600
 20
186.706250
 42
0.161196
  0
VERTEX
  8
0
 10
48.343488
 20
186.382100
 42
0.082592
  0
SEQEND
  0
POLYLINE
  8
0
 66
1
 70
1
  0
VERTEX
  8
0
 10
43.500000
 20
184.000000
 42
0.029505
  0
VERTEX
  8
0
 10
43.768994
 20
183.617226
 42
0.035638
  0
VERTEX
  8
0
 10
44.066025
 20
183.293750
 42
0.038439
  0
VERTEX
  8
0
 10
44.348290
 20
183.065539
 42
0.151918
  0
VERTEX
  8
0
 10
44.559017
 20
183.000000
 42
0.210953
  0
VERTEX
  8
0
 10
44.727648
 20
183.074460
 42
0.081139
  0
VERTEX
  8
0
 10
44.870461
 20
183.293750
 42
0.061769
  0
VERTEX
  8
0
 10
44.967655
 20
183.617151
 42
0.042167
  0
VERTEX
  8
0
 10
45.000000
 20
184.000000
 42
0.105053
  0
VERTEX
  8
0
 10
44.918938
 20
184.381556
 42
0.099167
  0
VERTEX
  8
0
 10
44.688914
 20
184.706250
 42
0.096420
  0
VERTEX
  8
0
 10
44.345238
 20
184.923877
 42
0.093332
  0
VERTEX
  8
0
 10
43.940983
 20
185.000000
 42
0.108972
  0
VERTEX
  8
0
 10
43.586039
 20
184.921712
 42
0.182303
  0
VERTEX
  8
0
 10
43.374600
 20
184.706250
 42
0.161196
  0
VERTEX
  8
0
 10
43.343488
 20
184.382100
 42
0.082592
  0
SEQEND
  0
POLYLINE
  8
0
 66
1
 70
1
  0
VERTEX
  8
0
 10
69.000000
 20
182.000000
 42
0.099038
  0
VERTEX
  8
0
 10
69.076342
 20
181.618362
 42
0.097945
  0
VERTEX
  8
0
 10
69.293750
 20
181.293750
 42
0.097945
  0
VERTEX
  8
0
 10
69.618362
 20
181.076342
 42
0.099038
  0
VERTEX
  8
0
 10
70.000000
 20
181.000000
 42
0.099038
  0
VERTEX
  8
0
 10
70.381638
 20
181.076342
 42
0.097945
  0
VERTEX
  8
0
 10
70.706250
 20
181.293750
 42
0.097945
  0
VERTEX
  8
0
 10
70.923658
 20
181.618362
 42
0.099038
  0
VERTEX
  8
0
 10
71.000000
 20
182.000000
 42
0.099038
  0
VERTEX
  8
0
 10
70.923658
 20
182.381638
 42
0.097945
  0
VERTEX
  8
0
 10
70.706250
 20
182.706250
 42
0.097945
  0
VERTEX
  8
0
 10
70.381638
 20
182.923658
 42
0.099038
  0
VERTEX
  8
0
 10
70.000000
 20
183.000000
 42
0.099038
  0
VERTEX
  8
0
 10
69.618362
 20
182.923658
 42
0.097945
  0
VERTEX
  8
0
 10
69.293750
 20
182.706250
 42
0.097945
  0
VERTEX
  8
0
 10
69.076342
 20
182.381638
 42
0.099038
  0
SEQEND
  0
POLYLINE
  8
0
 66
1
 70
1
  0
VERTEX
  8
0
 10
41.000000
 20
181.000000
 42
0.105053
  0
VERTEX
  8
0
 10
41.081062
 20
180.618444
 42
0.099167
  0
VERTEX
  8
0
 10
41.311086
 20
180.293750
 42
0.096420
  0
VERTEX
  8
0
 10
41.654762
 20
180.076123
 42
0.093332
  0
VERTEX
  8
0
 10
42.059017
 20
180.000000
 42
0.108972
  0
VERTEX
  8
0
 10
42.413961
 20
180.078288
 42
0.182303
  0
VERTEX
  8
0
 10
42.625400
 20
180.293750
 42
0.161196
  0
VERTEX
  8
0
 10
42.656512
 20
180.617900
 42
0.082592
  0
VERTEX
  8
0
 10
42.500000
 20
181.000000
 42
0.029505
  0
VERTEX
  8
0
 10
42.231006
 20
181.382774
 42
0.035638
  0
VERTEX
  8
0
 10
41.933975
 20
181.706250
 42
0.038439
  0
VERTEX
  8
0
 10
41.651710
 20
181.934461
 42
0.151918
  0
VERTEX
  8
0
 10
41.440983
 20
182.000000
 42
0.210953
  0
VERTEX
  8
0
 10
41.272352
 20
181.925540
 42
0.081139
  0
VERTEX
  8
0
 10
41.129539
 20
181.706250
 42
0.061769
  0
VERTEX
  8
0
 10
41.032345
 20
181.382849
 42
0.042167
  0
SEQEND
  0
POLYLINE
  8
0
 66
1
 70
1
  0
VERTEX
  8
0
 10
30.000000
 20
175.000000
 42
0.099038
  0
VERTEX
  8
0
 10
30.076342
 20
174.618362
 42
0.097945
  0
VERTEX
  8
0
 10
30.293750
 20
174.293750
 42
0.097945
  0
VERTEX
  8
0
 10
30.618362
 20
174.076342
 42
0.099038
  0
VERTEX
  8
0
 10
31.000000
 20
174.000000
 42
0.099038
  0
VERTEX
  8
0
 10
31.381638
 20
174.076342
 42
0.097945
  0
VERTEX
  8
0
 10
31.706250
 20
174.293750
 42
0.097945
  0
VERTEX
  8
0
 10
31.923658
 20
174.618362
 42
0.099038
  0
VERTEX
  8
0
 10
32.000000
 20
175.000000
 42
0.099038
  0
VERTEX
  8
0
 10
31.923658
 20
175.381638
 42
0.097945
  0
VERTEX
  8
0
 10
31.706250
 20
175.706250
 42
0.097945
  0
VERTEX
  8
0
 10
31.381638
 20
175.923658
 42
0.099038
  0
VERTEX
  8
0
 10
31.000000
 20
176.000000
 42
0.099038
  0
VERTEX
  8
0
 10
30.618362
 20
175.923658
 42
0.097945
  0
VERTEX
  8
0
 10
30.293750
 20
175.706250
 42
0.097945
  0
VERTEX
  8
0
 10
30.076342
 20
175.381638
 42
0.099038
  0
SEQEND
  0
POLYLINE
  8
0
 66
1
 70
1
  0
VERTEX
  8
0
 10
51.500000
 20
175.000000
 42
0.029505
  0
VERTEX
  8
0
 10
51.768994
 20
174.617226
 42
0.035638
  0
VERTEX
  8
0
 10
52.066025
 20
174.293750
 42
0.038439
  0
VERTEX
  8
0
 10
52.348290
 20
174.065539
 42
0.151918
  0
VERTEX
  8
0
 10
52.559017
 20
174.000000
 42
0.210953
  0
VERTEX
  8
0
 10
52.727648
 20
174.074460
 42
0.081139
  0
VERTEX
  8
0
 10
52.870461
 20
174.293750
 42
0.061769
  0
VERTEX
  8
0
 10
52.967655
 20
174.617151
 42
0.042167
  0
VERTEX
  8
0
 10
53.000000
 20
175.000000
 42
0.105053
  0
VERTEX
  8
0
 10
52.918938
 20
175.381556
 42
0.099167
  0
VERTEX
  8
0
 10
52.688914
 20
175.706250
 42
0.096420
  0
VERTEX
  8
0
 10
52.345238
 20
175.923877
 42
0.093332
  0
VERTEX
  8
0
 10
51.940983
 20
176.000000
 42
0.108972
  0
VERTEX
  8
0
 10
51.586039
 20
175.921712
 42
0.182303
  0
VERTEX
  8
0
 10
51.374600
 20
175.706250
 42
0.161196
  0
VERTEX
  8
0
 10
51.343488
 20
175.382100
 42
0.082592
  0
SEQEND
  0
POLYLINE
  8
0
 66
1
 70
1
  0
VERTEX
  8
0
 10
42.500000
 20
172.000000
 42
0.082592
  0
VERTEX
  8
0
 10
42.343488
 20
171.617900
 42
0.161196
  0
VERTEX
  8
0
 10
42.374600
 20
171.293750
 42
0.182303
  0
VERTEX
  8
0
 10
42.586039
 20
171.078288
 42
0.108972
  0
VERTEX
  8
0
 10
42.940983
 20
171.000000
 42
0.093332
  0
VERTEX
  8
0
 10
43.345238
 20
171.076123
 42
0.096420
  0
VERTEX
  8
0
 10
43.688914
 20
171.293750
 42
0.099167
  0
VERTEX
  8
0
 10
43.918938
 20
171.618444
 42
0.105053
  0
VERTEX
  8
0
 10
44.000000
 20
172.000000
 42
0.042167
  0
VERTEX
  8
0
 10
43.967655
 20
172.382849
 42
0.061769
  0
VERTEX
  8
0
 10
43.870461
 20
172.706250
 42
0.081139
  0
VERTEX
  8
0
 10
43.727648
 20
172.925540
 42
0.210953
  0
VERTEX
  8
0
 10
43.559017
 20
173.000000
 42
0.151918
  0
VERTEX
  8
0
 10
43.348290
 20
172.934461
 42
0.038439
  0
VERTEX
  8
0
 10
43.066025
 20
172.706250
 42
0.035638
  0
VERTEX
  8
0
 10
42.768994
 20
172.382774
 42
0.029505
  0
SEQEND
  0
POLYLINE
  8
0
 66
1
 70
1
  0
VERTEX
  8
0
 10
48.500000
 20
172.000000
 42
0.029505
  0
VERTEX
  8
0
 10
48.768994
 20
171.617226
 42
0.035638
  0
VERTEX
  8
0
 10
49.066025
 20
171.293750
 42
0.038439
  0
VERTEX
  8
0
 10
49.348290
 20
171.065539
 42
0.151918
  0
VERTEX
  8
0
 10
49.559017
 20
171.000000
 42
0.210953
  0
VERTEX
  8
0
 10
49.727648
 20
171.074460
 42
0.081139
  0
VERTEX
  8
0
 10
49.870461
 20
171.293750
 42
0.061769
  0
VERTEX
  8
0
 10
49.967655
 20
171.617151
 42
0.042167
  0
VERTEX
  8
0
 10
50.000000
 20
172.000000
 42
0.105053
  0
VERTEX
  8
0
 10
49.918938
 20
172.381556
 42
0.099167
  0
VERTEX
  8
0
 10
49.688914
 20
172.706250
 42
0.096420
  0
VERTEX
  8
0
 10
49.345238
 20
172.923877
 42
0.093332
  0
VERTEX
  8
0
 10
48.940983
 20
173.000000
 42
0.108972
  0
VERTEX
  8
0
 10
48.586039
 20
172.921712
 42
0.182303
  0
VERTEX
  8
0
 10
48.374600
 20
172.706250
 42
0.161196
  0
VERTEX
  8
0
 10
48.343488
 20
172.382100
 42
0.082592
  0
SEQEND
  0
POLYLINE
  8
0
 66
1
 70
1
  0
VERTEX
  8
0
 10
37.015313
 20
171.250000
 42
-0.206443
  0
VERTEX
  8
0
 10
36.798590
 20
170.763936
 42
-0.083857
  0
VERTEX
  8
0
 10
36.178538
 20
170.360447
 42
-0.062472
  0
VERTEX
  8
0
 10
35.253295
 20
170.089585
 42
-0.040023
  0
VERTEX
  8
0
 10
34.135924
 20
170.000000
 42
0.049405
  0
VERTEX
  8
0
 10
32.483319
 20
169.836307
 42
0.183788
  0
VERTEX
  8
0
 10
31.613060
 20
169.289512
 42
0.113992
  0
VERTEX
  8
0
 10
31.094227
 20
168.125499
 42
0.014020
  0
VERTEX
  8
0
 10
30.635924
 20
165.360429
 42
0.012460
  0
VERTEX
  8
0
 10
30.391763
 20
163.175729
 42
0.006254
  0
VERTEX
  8
0
 10
30.186803
 20
160.406218
 42
0.006206
  0
VERTEX
  8
0
 10
30.046134
 20
157.534936
 42
0.009136
  0
VERTEX
  8
0
 10
30.000000
 20
155.010171
 42
0.000000
  0
VERTEX
  8
0
 10
30.000000
 20
149.299485
 42
0.000000
  0
VERTEX
  8
0
 10
39.153625
 20
148.649743
 42
0.002882
  0
VERTEX
  8
0
 10
42.969066
 20
148.401008
 42
0.002715
  0
VERTEX
  8
0
 10
46.863692
 20
148.190862
 42
0.002699
  0
VERTEX
  8
0
 10
50.316781
 20
148.042017
 42
0.009421
  0
VERTEX
  8
0
 10
52.546636
 20
148.000000
 42
-0.042707
  0
VERTEX
  8
0
 10
55.433218
 20
147.752992
 42
-0.156332
  0
VERTEX
  8
0
 10
57.040723
 20
146.914311
 42
-0.127739
  0
VERTEX
  8
0
 10
58.043975
 20
145.184879
 42
-0.024685
  0
VERTEX
  8
0
 10
58.847686
 20
141.627555
 42
0.258715
  0
VERTEX
  8
0
 10
59.030289
 20
141.401362
 42
0.150395
  0
VERTEX
  8
0
 10
59.387693
 20
141.370281
 42
0.081524
  0
VERTEX
  8
0
 10
59.896417
 20
141.570232
 42
0.038905
  0
VERTEX
  8
0
 10
60.472121
 20
141.976863
 42
0.035099
  0
VERTEX
  8
0
 10
61.238872
 20
142.709857
 42
0.186553
  0
VERTEX
  8
0
 10
61.444242
 20
143.241133
 42
0.169870
  0
VERTEX
  8
0
 10
61.247823
 20
143.802599
 42
0.028094
  0
VERTEX
  8
0
 10
60.472121
 20
144.670736
 42
-0.041996
  0
VERTEX
  8
0
 10
59.337007
 20
146.014419
 42
-0.174338
  0
VERTEX
  8
0
 10
59.055950
 20
147.020922
 42
-0.380706
  0
VERTEX
  8
0
 10
59.532500
 20
147.483356
 42
-0.102670
  0
VERTEX
  8
0
 10
60.664045
 20
147.298676
 42
0.029961
  0
VERTEX
  8
0
 10
61.327695
 20
147.088647
 42
0.155970
  0
VERTEX
  8
0
 10
61.706026
 20
147.112456
 42
0.351925
  0
VERTEX
  8
0
 10
61.826029
 20
147.321210
 42
0.099961
  0
VERTEX
  8
0
 10
61.686641
 20
147.698008
 42
0.182055
  0
VERTEX
  8
0
 10
61.147104
 20
148.114207
 42
0.022560
  0
VERTEX
  8
0
 10
59.684793
 20
148.490372
 42
0.024255
  0
VERTEX
  8
0
 10
57.838780
 20
148.784812
 42
0.017842
  0
VERTEX
  8
0
 10
55.772597
 20
148.937961
 42
-0.003959
  0
VERTEX
  8
0
 10
53.103954
 20
149.061401
 42
-0.001375
  0
VERTEX
  8
0
 10
49.258200
 20
149.280417
 42
-0.001365
  0
VERTEX
  8
0
 10
45.023724
 20
149.544858
 42
-0.001589
  0
VERTEX
  8
0
 10
41.000000
 20
149.820015
 42
0.000000
  0
VERTEX
  8
0
 10
31.500000
 20
150.500000
 42
0.000000
  0
VERTEX
  8
0
 10
31.696411
 20
158.907863
 42
-0.015500
  0
VERTEX
  8
0
 10
31.987261
 20
164.253559
 42
-0.074473
  0
VERTEX
  8
0
 10
32.692463
 20
167.211707
 42
-0.186411
  0
VERTEX
  8
0
 10
33.891448
 20
168.495406
 42
-0.202705
  0
VERTEX
  8
0
 10
35.590684
 20
168.582016
 42
0.119280
  0
VERTEX
  8
0
 10
36.862711
 20
168.439432
 42
0.170279
  0
VERTEX
  8
0
 10
37.870399
 20
168.942631
 42
0.190242
  0
VERTEX
  8
0
 10
38.274081
 20
169.912681
 42
0.146601
  0
VERTEX
  8
0
 10
37.962526
 20
171.026393
 42
0.020238
  0
VERTEX
  8
0
 10
37.533535
 20
171.647606
 42
0.175296
  0
VERTEX
  8
0
 10
37.256565
 20
171.828629
 42
0.409371
  0
VERTEX
  8
0
 10
37.076860
 20
171.719611
 42
0.059103
  0
SEQEND
  0
POLYLINE
  8
0
 66
1
 70
1
  0
VERTEX
  8
0
 10
53.000000
 20
171.000000
 42
0.105053
  0
VERTEX
  8
0
 10
53.081062
 20
170.618444
 42
0.099167
  0
VERTEX
  8
0
 10
53.311086
 20
170.293750
 42
0.096420
  0
VERTEX
  8
0
 10
53.654762
 20
170.076123
 42
0.093332
  0
VERTEX
  8
0
 10
54.059017
 20
170.000000
 42
0.108972
  0
VERTEX
  8
0
 10
54.413961
 20
170.078288
 42
0.182303
  0
VERTEX
  8
0
 10
54.625400
 20
170.293750
 42
0.161196
  0
VERTEX
  8
0
 10
54.656512
 20
170.617900
 42
0.082592
  0
VERTEX
  8
0
 10
54.500000
 20
171.000000
 42
0.029505
  0
VERTEX
  8
0
 10
54.231006
 20
171.382774
 42
0.035638
  0
VERTEX
  8
0
 10
53.933975
 20
171.706250
 42
0.038439
  0
VERTEX
  8
0
 10
53.651710
 20
171.934461
 42
0.151918
  0
VERTEX
  8
0
 10
53.440983
 20
172.000000
 42
0.210953
  0
VERTEX
  8
0
 10
53.272352
 20
171.925540
 42
0.081139
  0
VERTEX
  8
0
 10
53.129539
 20
171.706250
 42
0.061769
  0
VERTEX
  8
0
 10
53.032345
 20
171.382849
 42
0.042167
  0
SEQEND
  0
POLYLINE
  8
0
 66
1
 70
1
  0
VERTEX
  8
0
 10
60.500000
 20
171.000000
 42
0.060810
  0
VERTEX
  8
0
 10
60.806203
 20
170.617485
 42
0.051032
  0
VERTEX
  8
0
 10
61.212900
 20
170.293750
 42
0.053229
  0
VERTEX
  8
0
 10
61.653442
 20
170.073302
 42
0.089642
  0
VERTEX
  8
0
 10
62.059017
 20
170.000000
 42
0.105429
  0
VERTEX
  8
0
 10
62.418051
 20
170.076556
 42
0.099231
  0
VERTEX
  8
0
 10
62.723586
 20
170.293750
 42
0.096318
  0
VERTEX
  8
0
 10
62.928382
 20
170.618268
 42
0.092995
  0
VERTEX
  8
0
 10
63.000000
 20
171.000000
 42
0.153634
  0
VERTEX
  8
0
 10
62.879982
 20
171.381379
 42
0.097988
  0
VERTEX
  8
0
 10
62.542039
 20
171.706250
 42
0.080552
  0
VERTEX
  8
0
 10
62.037096
 20
171.925455
 42
0.062283
  0
VERTEX
  8
0
 10
61.440983
 20
172.000000
 42
0.066118
  0
VERTEX
  8
0
 10
60.889346
 20
171.926733
 42
0.138808
  0
VERTEX
  8
0
 10
60.521475
 20
171.706250
 42
0.191142
  0
VERTEX
  8
0
 10
60.392057
 20
171.379648
 42
0.139169
  0
SEQEND
  0
POLYLINE
  8
0
 66
1
 70
1
  0
VERTEX
  8
0
 10
43.500000
 20
169.041013
 42
0.010121
  0
VERTEX
  8
0
 10
49.078318
 20
168.064720
 42
0.016367
  0
VERTEX
  8
0
 10
53.861257
 20
167.486600
 42
0.017490
  0
VERTEX
  8
0
 10
57.294979
 20
167.305889
 42
0.686764
  0
VERTEX
  8
0
 10
57.500000
 20
167.812091
 42
0.140794
  0
VERTEX
  8
0
 10
56.730838
 20
168.205026
 42
0.009653
  0
VERTEX
  8
0
 10
54.296875
 20
168.630967
 42
0.013176
  0
VERTEX
  8
0
 10
51.328851
 20
169.011719
 42
0.009488
  0
VERTEX
  8
0
 10
48.000000
 20
169.286174
 42
0.003697
  0
VERTEX
  8
0
 10
44.502246
 20
169.481878
 42
0.025737
  0
VERTEX
  8
0
 10
42.789538
 20
169.476803
 42
0.767613
  0
VERTEX
  8
0
 10
42.751994
 20
169.298040
 42
0.068846
  0
SEQEND
  0
POLYLINE
  8
0
 66
1
 70
1
  0
VERTEX
  8
0
 10
60.208703
 20
167.820285
 42
0.572605
  0
VERTEX
  8
0
 10
60.168954
 20
167.561019
 42
0.125493
  0
VERTEX
  8
0
 10
60.690994
 20
167.319590
 42
0.031592
  0
VERTEX
  8
0
 10
62.149966
 20
167.143177
 42
0.011237
  0
VERTEX
  8
0
 10
64.250000
 20
167.070285
 42
-0.016286
  0
VERTEX
  8
0
 10
66.465308
 20
166.970990
 42
-0.025449
  0
VERTEX
  8
0
 10
68.358147
 20
166.726896
 42
-0.022848
  0
VERTEX
  8
0
 10
69.806810
 20
166.395604
 42
-0.293229
  0
VERTEX
  8
0
 10
70.160714
 20
166.000000
 42
-0.027474
  0
VERTEX
  8
0
 10
70.434822
 20
163.384454
 42
-0.012587
  0
VERTEX
  8
0
 10
70.518242
 20
159.953863
 42
-0.007944
  0
VERTEX
  8
0
 10
70.462317
 20
156.615266
 42
-0.121790
  0
VERTEX
  8
0
 10
70.151681
 20
155.514399
 42
0.095381
  0
VERTEX
  8
0
 10
69.951807
 20
154.925542
 42
0.019084
  0
VERTEX
  8
0
 10
69.841814
 20
153.816717
 42
0.019537
  0
VERTEX
  8
0
 10
69.813243
 20
152.496752
 42
0.017131
  0
VERTEX
  8
0
 10
69.884510
 20
151.119092
 42
-0.016239
  0
VERTEX
  8
0
 10
70.002023
 20
148.923373
 42
-0.224328
  0
VERTEX
  8
0
 10
69.685732
 20
148.215784
 42
-0.206695
  0
VERTEX
  8
0
 10
68.922220
 20
147.978395
 42
-0.013668
  0
VERTEX
  8
0
 10
66.589137
 20
148.291822
 42
0.014463
  0
VERTEX
  8
0
 10
63.991589
 20
148.636575
 42
0.237238
  0
VERTEX
  8
0
 10
63.195864
 20
148.334482
 42
0.400695
  0
VERTEX
  8
0
 10
63.208904
 20
147.686312
 42
0.025470
  0
VERTEX
  8
0
 10
64.750000
 20
146.286085
 42
-0.010092
  0
VERTEX
  8
0
 10
65.366186
 20
145.759878
 42
-0.097447
  0
VERTEX
  8
0
 10
65.573363
 20
145.487086
 42
-0.665483
  0
VERTEX
  8
0
 10
65.503664
 20
145.407475
 42
-0.038993
  0
VERTEX
  8
0
 10
65.095492
 20
145.580351
 42
0.022861
  0
VERTEX
  8
0
 10
64.465543
 20
145.871445
 42
0.282156
  0
VERTEX
  8
0
 10
64.215708
 20
145.830393
 42
0.337011
  0
VERTEX
  8
0
 10
64.168112
 20
145.604657
 42
0.027824
  0
VERTEX
  8
0
 10
64.473607
 20
145.042705
 42
-0.102825
  0
VERTEX
  8
0
 10
64.681288
 20
144.471358
 42
-0.101494
  0
VERTEX
  8
0
 10
64.645536
 20
143.861744
 42
-0.095397
  0
VERTEX
  8
0
 10
64.366452
 20
143.285607
 42
-0.079902
  0
VERTEX
  8
0
 10
63.878115
 20
142.812066
 42
0.005197
  0
VERTEX
  8
0
 10
63.110674
 20
142.263084
 42
0.295384
  0
VERTEX
  8
0
 10
63.051115
 20
142.107229
 42
0.419679
  0
VERTEX
  8
0
 10
63.167077
 20
142.033443
 42
0.006712
  0
VERTEX
  8
0
 10
64.000000
 20
142.238562
 42
0.093890
  0
VERTEX
  8
0
 10
64.645894
 20
142.544305
 42
0.043435
  0
VERTEX
  8
0
 10
65.349344
 20
143.156515
 42
0.040972
  0
VERTEX
  8
0
 10
65.998546
 20
143.949671
 42
0.044967
  0
VERTEX
  8
0
 10
66.487128
 20
144.814693
 42
-0.056843
  0
VERTEX
  8
0
 10
66.985642
 20
145.650428
 42
-0.055832
  0
VERTEX
  8
0
 10
67.662204
 20
146.358066
 42
-0.060869
  0
VERTEX
  8
0
 10
68.405928
 20
146.839726
 42
-0.113767
  0
VERTEX
  8
0
 10
69.101204
 20
147.000000
 42
0.308164
  0
VERTEX
  8
0
 10
70.350862
 20
147.851016
 42
0.046211
  0
VERTEX
  8
0
 10
71.243738
 20
150.924560
 42
0.033809
  0
VERTEX
  8
0
 10
71.822626
 20
155.615921
 42
0.013796
  0
VERTEX
  8
0
 10
72.000000
 20
162.043058
 42
0.000000
  0
VERTEX
  8
0
 10
72.000000
 20
167.806973
 42
0.000000
  0
VERTEX
  8
0
 10
66.958703
 20
168.153487
 42
0.014205
  0
VERTEX
  8
0
 10
64.903359
 20
168.236194
 42
0.015285
  0
VERTEX
  8
0
 10
62.896355
 20
168.198545
 42
0.014960
  0
VERTEX
  8
0
 10
61.181627
 20
168.062383
 42
0.067463
  0
SEQEND
  0
POLYLINE
  8
0
 66
1
 70
1
  0
VERTEX
  8
0
 10
51.606989
 20
141.418213
 42
0.007807
  0
VERTEX
  8
0
 10
51.092111
 20
140.011171
 42
0.176963
  0
VERTEX
  8
0
 10
51.098525
 20
139.586866
 42
0.288423
  0
VERTEX
  8
0
 10
51.380256
 20
139.375446
 42
0.020546
  0
VERTEX
  8
0
 10
52.404659
 20
139.333333
 42
0.103995
  0
VERTEX
  8
0
 10
52.918297
 20
139.441333
 42
0.158002
  0
VERTEX
  8
0
 10
53.256065
 20
139.742336
 42
0.143821
  0
VERTEX
  8
0
 10
53.371992
 20
140.208386
 42
0.081309
  0
VERTEX
  8
0
 10
53.253029
 20
140.783000
 42
-0.054445
  0
VERTEX
  8
0
 10
53.066628
 20
141.490459
 42
-0.413987
  0
VERTEX
  8
0
 10
53.251638
 20
141.740943
 42
-0.141234
  0
VERTEX
  8
0
 10
53.776429
 20
141.671800
 42
-0.010556
  0
VERTEX
  8
0
 10
55.098370
 20
141.061168
 42
0.000941
  0
VERTEX
  8
0
 10
56.734987
 20
140.266645
 42
0.294252
  0
VERTEX
  8
0
 10
56.872645
 20
140.283562
 42
0.472868
  0
VERTEX
  8
0
 10
56.871889
 20
140.387833
 42
0.001170
  0
VERTEX
  8
0
 10
55.558870
 20
141.444834
 42
0.024353
  0
VERTEX
  8
0
 10
53.936596
 20
142.619613
 42
0.147249
  0
VERTEX
  8
0
 10
52.950892
 20
142.909108
 42
0.234959
  0
VERTEX
  8
0
 10
52.226772
 20
142.542843
 42
0.068748
  0
SEQEND
  0
POLYLINE
  8
0
 66
1
 70
1
  0
VERTEX
  8
0
 10
58.015313
 20
138.809017
 42
0.053738
  0
VERTEX
  8
0
 10
58.083635
 20
138.116349
 42
0.049393
  0
VERTEX
  8
0
 10
58.298248
 20
137.433213
 42
0.052761
  0
VERTEX
  8
0
 10
58.617978
 20
136.859627
 42
0.101161
  0
VERTEX
  8
0
 10
59.000000
 20
136.500000
 42
0.175918
  0
VERTEX
  8
0
 10
59.640978
 20
136.366526
 42
0.372932
  0
VERTEX
  8
0
 10
59.949198
 20
136.722292
 42
0.110887
  0
VERTEX
  8
0
 10
59.733972
 20
137.680839
 42
0.033010
  0
VERTEX
  8
0
 10
59.000000
 20
139.000000
 42
0.010223
  0
VERTEX
  8
0
 10
58.430616
 20
139.842749
 42
0.295079
  0
VERTEX
  8
0
 10
58.199331
 20
139.935744
 42
0.343021
  0
VERTEX
  8
0
 10
58.046994
 20
139.761472
 42
0.012098
  0
SEQEND
  0
POLYLINE
  8
0
 66
1
 70
1
  0
VERTEX
  8
0
 10
46.500000
 20
135.000000
 42
0.082592
  0
VERTEX
  8
0
 10
46.343488
 20
134.617900
 42
0.161196
  0
VERTEX
  8
0
 10
46.374600
 20
134.293750
 42
0.182303
  0
VERTEX
  8
0
 10
46.586039
 20
134.078288
 42
0.108972
  0
VERTEX
  8
0
 10
46.940983
 20
134.000000
 42
0.093332
  0
VERTEX
  8
0
 10
47.345238
 20
134.076123
 42
0.096420
  0
VERTEX
  8
0
 10
47.688914
 20
134.293750
 42
0.099167
  0
VERTEX
  8
0
 10
47.918938
 20
134.618444
 42
0.105053
  0
VERTEX
  8
0
 10
48.000000
 20
135.000000
 42
0.042167
  0
VERTEX
  8
0
 10
47.967655
 20
135.382849
 42
0.061769
  0
VERTEX
  8
0
 10
47.870461
 20
135.706250
 42
0.081139
  0
VERTEX
  8
0
 10
47.727648
 20
135.925540
 42
0.210953
  0
VERTEX
  8
0
 10
47.559017
 20
136.000000
 42
0.151918
  0
VERTEX
  8
0
 10
47.348290
 20
135.934461
 42
0.038439
  0
VERTEX
  8
0
 10
47.066025
 20
135.706250
 42
0.035638
  0
VERTEX
  8
0
 10
46.768994
 20
135.382774
 42
0.029505
  0
SEQEND
  0
POLYLINE
  8
0
 66
1
 70
1
  0
VERTEX
  8
0
 10
50.157895
 20
134.000000
 42
0.017491
  0
VERTEX
  8
0
 10
50.189089
 20
133.108560
 42
0.078554
  0
VERTEX
  8
0
 10
50.306058
 20
132.601562
 42
0.447206
  0
VERTEX
  8
0
 10
50.474999
 20
132.540618
 42
0.174857
  0
VERTEX
  8
0
 10
50.662281
 20
132.750000
 42
0.057986
  0
VERTEX
  8
0
 10
50.818615
 20
133.320008
 42
0.037979
  0
VERTEX
  8
0
 10
50.870340
 20
134.000000
 42
0.037979
  0
VERTEX
  8
0
 10
50.818615
 20
134.679992
 42
0.057986
  0
VERTEX
  8
0
 10
50.662281
 20
135.250000
 42
0.174857
  0
VERTEX
  8
0
 10
50.474999
 20
135.459382
 42
0.447206
  0
VERTEX
  8
0
 10
50.306058
 20
135.398438
 42
0.078554
  0
VERTEX
  8
0
 10
50.189089
 20
134.891440
 42
0.017491
  0
SEQEND
  0
POLYLINE
  8
0
 66
1
 70
1
  0
VERTEX
  8
0
 10
54.595240
 20
134.845898
 42
0.097982
  0
VERTEX
  8
0
 10
54.868803
 20
134.551608
 42
0.097690
  0
VERTEX
  8
0
 10
55.234101
 20
134.383287
 42
0.098189
  0
VERTEX
  8
0
 10
55.634368
 20
134.366760
 42
0.100105
  0
VERTEX
  8
0
 10
56.007638
 20
134.504720
 42
-0.193943
  0
VERTEX
  8
0
 10
56.422705
 20
134.576160
 42
-0.087050
  0
VERTEX
  8
0
 10
56.944304
 20
134.363979
 42
-0.066985
  0
VERTEX
  8
0
 10
57.490995
 20
133.909292
 42
-0.047072
  0
VERTEX
  8
0
 10
57.975370
 20
133.271032
 42
0.003716
  0
VERTEX
  8
0
 10
58.683899
 20
132.147240
 42
0.331453
  0
VERTEX
  8
0
 10
58.857982
 20
132.081572
 42
0.371871
  0
VERTEX
  8
0
 10
58.953793
 20
132.228018
 42
0.004074
  0
VERTEX
  8
0
 10
58.773443
 20
133.500000
 42
0.083375
  0
VERTEX
  8
0
 10
58.497508
 20
134.345777
 42
0.097723
  0
VERTEX
  8
0
 10
57.970010
 20
135.002703
 42
0.093280
  0
VERTEX
  8
0
 10
57.210642
 20
135.430851
 42
0.069273
  0
VERTEX
  8
0
 10
56.262754
 20
135.612210
 42
0.037056
  0
VERTEX
  8
0
 10
55.452346
 20
135.593277
 42
0.083527
  0
VERTEX
  8
0
 10
54.861103
 20
135.433393
 42
0.167404
  0
VERTEX
  8
0
 10
54.582847
 20
135.167596
 42
0.263383
  0
SEQEND
  0
POLYLINE
  8
0
 66
1
 70
1
  0
VERTEX
  8
0
 10
64.157895
 20
132.000000
 42
0.017491
  0
VERTEX
  8
0
 10
64.189089
 20
131.108560
 42
0.078554
  0
VERTEX
  8
0
 10
64.306058
 20
130.601562
 42
0.447206
  0
VERTEX
  8
0
 10
64.474999
 20
130.540618
 42
0.174857
  0
VERTEX
  8
0
 10
64.662281
 20
130.750000
 42
0.057986
  0
VERTEX
  8
0
 10
64.818615
 20
131.320008
 42
0.037979
  0
VERTEX
  8
0
 10
64.870340
 20
132.000000
 42
0.037979
  0
VERTEX
  8
0
 10
64.818615
 20
132.679992
 42
0.057986
  0
VERTEX
  8
0
 10
64.662281
 20
133.250000
 42
0.174857
  0
VERTEX
  8
0
 10
64.474999
 20
133.459382
 42
0.447206
  0
VERTEX
  8
0
 10
64.306058
 20
133.398438
 42
0.078554
  0
VERTEX
  8
0
 10
64.189089
 20
132.891440
 42
0.017491
  0
SEQEND
  0
POLYLINE
  8
0
 66
1
 70
1
  0
VERTEX
  8
0
 10
51.000000
 20
105.583559
 42
0.171742
  0
VERTEX
  8
0
 10
51.331997
 20
104.645514
 42
0.033166
  0
VERTEX
  8
0
 10
52.573766
 20
103.303555
 42
0.030856
  0
VERTEX
  8
0
 10
53.926539
 20
102.172992
 42
0.370665
  0
VERTEX
  8
0
 10
54.553750
 20
102.220417
 42
0.312473
  0
VERTEX
  8
0
 10
54.606528
 20
102.510985
 42
0.042906
  0
VERTEX
  8
0
 10
54.288273
 20
103.077550
 42
0.036839
  0
VERTEX
  8
0
 10
53.741933
 20
103.765449
 42
0.022600
  0
VERTEX
  8
0
 10
53.006131
 20
104.494452
 42
0.018783
  0
VERTEX
  8
0
 10
52.235479
 20
105.140936
 42
0.040791
  0
VERTEX
  8
0
 10
51.589301
 20
105.563280
 42
0.078427
  0
VERTEX
  8
0
 10
51.159202
 20
105.715826
 42
0.469284
  0
SEQEND
  0
POLYLINE
  8
0
 66
1
 70
1
  0
VERTEX
  8
0
 10
53.349337
 20
96.532025
 42
-0.066719
  0
VERTEX
  8
0
 10
53.493102
 20
95.926665
 42
-0.072258
  0
VERTEX
  8
0
 10
53.466258
 20
95.321649
 42
-0.081026
  0
VERTEX
  8
0
 10
53.279146
 20
94.809536
 42
-0.126981
  0
VERTEX
  8
0
 10
52.956326
 20
94.473008
 42
0.112710
  0
VERTEX
  8
0
 10
52.258640
 20
93.785505
 42
0.153636
  0
VERTEX
  8
0
 10
52.030180
 20
92.938270
 42
0.202836
  0
VERTEX
  8
0
 10
52.345121
 20
92.272309
 42
0.184246
  0
VERTEX
  8
0
 10
53.059017
 20
92.000000
 42
0.108972
  0
VERTEX
  8
0
 10
53.413961
 20
92.078288
 42
0.182303
  0
VERTEX
  8
0
 10
53.625400
 20
92.293750
 42
0.161196
  0
VERTEX
  8
0
 10
53.656512
 20
92.617900
 42
0.082592
  0
VERTEX
  8
0
 10
53.500000
 20
93.000000
 42
-0.093667
  0
VERTEX
  8
0
 10
53.353415
 20
93.381563
 42
-0.171987
  0
VERTEX
  8
0
 10
53.406028
 20
93.706250
 42
-0.173661
  0
VERTEX
  8
0
 10
53.650630
 20
93.923227
 42
-0.095723
  0
VERTEX
  8
0
 10
54.047972
 20
94.000000
 42
0.140985
  0
VERTEX
  8
0
 10
54.447166
 20
94.114844
 42
0.152578
  0
VERTEX
  8
0
 10
54.709662
 20
94.421647
 42
0.120928
  0
VERTEX
  8
0
 10
54.786713
 20
94.886609
 42
0.072613
  0
VERTEX
  8
0
 10
54.663166
 20
95.435392
 42
-0.082120
  0
VERTEX
  8
0
 10
54.543046
 20
96.020339
 42
-0.090662
  0
VERTEX
  8
0
 10
54.624841
 20
96.591801
 42
-0.098459
  0
VERTEX
  8
0
 10
54.893044
 20
97.061008
 42
-0.117756
  0
VERTEX
  8
0
 10
55.306177
 20
97.356445
 42
0.089468
  0
VERTEX
  8
0
 10
55.607157
 20
97.547173
 42
0.450480
  0
VERTEX
  8
0
 10
55.603824
 20
97.722633
 42
0.142466
  0
VERTEX
  8
0
 10
55.294276
 20
97.861712
 42
0.024193
  0
VERTEX
  8
0
 10
54.643011
 20
97.921053
 42
0.054994
  0
VERTEX
  8
0
 10
53.859236
 20
97.868155
 42
0.162319
  0
VERTEX
  8
0
 10
53.391360
 20
97.613102
 42
0.196786
  0
VERTEX
  8
0
 10
53.222726
 20
97.166799
 42
0.084970
  0
SEQEND
  0
POLYLINE
  8
0
 66
1
 70
1
  0
VERTEX
  8
0
 10
29.000000
 20
53.559017
 42
-0.020930
  0
VERTEX
  8
0
 10
28.926887
 20
51.813184
 42
-0.027868
  0
VERTEX
  8
0
 10
28.706250
 20
50.241025
 42
-0.027581
  0
VERTEX
  8
0
 10
28.388891
 20
48.999702
 42
-0.179846
  0
VERTEX
  8
0
 10
28.000000
 20
48.500000
 42
0.225099
  0
VERTEX
  8
0
 10
27.597885
 20
47.878686
 42
0.009291
  0
VERTEX
  8
0
 10
27.290691
 20
45.171869
 42
0.014426
  0
VERTEX
  8
0
 10
27.071491
 20
41.833883
 42
0.009181
  0
VERTEX
  8
0
 10
27.000000
 20
37.940983
 42
0.000000
  0
VERTEX
  8
0
 10
27.000000
 20
28.000000
 42
0.000000
  0
VERTEX
  8
0
 10
33.250000
 20
27.996342
 42
-0.006178
  0
VERTEX
  8
0
 10
36.577041
 20
27.953283
 42
-0.001667
  0
VERTEX
  8
0
 10
41.850000
 20
27.802265
 42
-0.001688
  0
VERTEX
  8
0
 10
47.835941
 20
27.590613
 42
-0.001749
  0
VERTEX
  8
0
 10
53.750000
 20
27.340790
 42
0.000000
  0
VERTEX
  8
0
 10
68.000000
 20
26.688896
 42
0.000000
  0
VERTEX
  8
0
 10
68.000000
 20
37.344448
 42
0.000000
  0
VERTEX
  8
0
 10
68.000000
 20
48.000000
 42
0.000000
  0
VERTEX
  8
0
 10
59.250000
 20
48.008692
 42
-0.006129
  0
VERTEX
  8
0
 10
55.515236
 20
48.058186
 42
-0.005031
  0
VERTEX
  8
0
 10
51.528125
 20
48.200069
 42
-0.005084
  0
VERTEX
  8
0
 10
47.866356
 20
48.404607
 42
-0.013394
  0
VERTEX
  8
0
 10
45.250000
 20
48.647983
 42
0.000000
  0
VERTEX
  8
0
 10
40.000000
 20
49.278582
 42
0.000000
  0
VERTEX
  8
0
 10
40.000000
 20
53.639291
 42
0.000000
  0
VERTEX
  8
0
 10
40.000000
 20
58.000000
 42
0.000000
  0
VERTEX
  8
0
 10
34.500000
 20
58.000000
 42
0.000000
  0
VERTEX
  8
0
 10
29.000000
 20
58.000000
 42
0.000000
  0
SEQEND
  0
POLYLINE
  8
0
 66
1
 70
1
  0
VERTEX
  8
0
 10
39.000000
 20
52.000000
 42
0.000000
  0
VERTEX
  8
0
 10
39.000000
 20
47.000000
 42
0.000000
  0
VERTEX
  8
0
 10
53.000000
 20
47.000000
 42
0.000000
  0
VERTEX
  8
0
 10
67.000000
 20
47.000000
 42
0.000000
  0
VERTEX
  8
0
 10
67.000000
 20
37.731408
 42
0.000000
  0
VERTEX
  8
0
 10
67.000000
 20
28.462817
 42
0.000000
  0
VERTEX
  8
0
 10
59.250000
 20
28.604676
 42
0.000783
  0
VERTEX
  8
0
 10
55.468102
 20
28.667975
 42
0.000326
  0
VERTEX
  8
0
 10
50.363214
 20
28.742091
 42
0.000323
  0
VERTEX
  8
0
 10
44.896243
 20
28.814371
 42
0.000417
  0
VERTEX
  8
0
 10
39.880092
 20
28.873267
 42
0.000000
  0
VERTEX
  8
0
 10
28.260183
 20
29.000000
 42
0.000000
  0
VERTEX
  8
0
 10
28.718554
 20
38.250000
 42
-0.008689
  0
VERTEX
  8
0
 10
28.961375
 20
41.874655
 42
-0.012059
  0
VERTEX
  8
0
 10
29.313517
 20
45.110847
 42
-0.008641
  0
VERTEX
  8
0
 10
29.715725
 20
47.775943
 42
-0.131713
  0
VERTEX
  8
0
 10
30.100289
 20
48.616713
 42
0.072978
  0
VERTEX
  8
0
 10
30.442108
 20
49.180277
 42
0.038409
  0
VERTEX
  8
0
 10
30.702398
 20
49.958607
 42
0.037206
  0
VERTEX
  8
0
 10
30.850562
 20
50.813690
 42
0.046874
  0
VERTEX
  8
0
 10
30.853383
 20
51.616713
 42
-0.024620
  0
VERTEX
  8
0
 10
30.727992
 20
54.678089
 42
-0.163447
  0
VERTEX
  8
0
 10
31.219773
 20
56.103037
 42
-0.194021
  0
VERTEX
  8
0
 10
32.421431
 20
56.808989
 42
-0.036988
  0
VERTEX
  8
0
 10
35.000000
 20
57.000000
 42
0.000000
  0
VERTEX
  8
0
 10
39.000000
 20
57.000000
 42
0.000000
  0
SEQEND
  0
ENDSEC
  0
EOF
