  0
SECTION
  2
HEADER
  9
$ACADVER
  1
AC1006
  9
$EXTMIN
 10
0.000000
 20
0.000000
 30
0.000000
  9
$EXTMAX
 10
134.000000
 20
188.000000
 30
0.000000
  0
ENDSEC
  0
SECTION
  2
ENTITIES
  0
POLYLINE
  8
0
 66
1
 70
1
  0
VERTEX
  8
0
 10
43.875000
 20
183.590524
 42
-0.004889
  0
VERTEX
  8
0
 10
43.808939
 20
182.452681
 42
-0.003435
  0
VERTEX
  8
0
 10
43.713281
 20
181.173466
 42
-0.003466
  0
VERTEX
  8
0
 10
43.604806
 20
179.950124
 42
-0.007246
  0
VERTEX
  8
0
 10
43.500000
 20
179.000000
 42
0.013791
  0
VERTEX
  8
0
 10
43.395361
 20
177.922110
 42
0.003542
  0
VERTEX
  8
0
 10
43.286719
 20
176.175157
 42
0.003603
  0
VERTEX
  8
0
 10
43.191211
 20
174.179452
 42
0.003655
  0
VERTEX
  8
0
 10
43.125000
 20
172.192024
 42
0.000000
  0
VERTEX
  8
0
 10
43.000000
 20
167.384048
 42
0.000000
  0
VERTEX
  8
0
 10
34.000000
 20
167.814343
 42
0.005930
  0
VERTEX
  8
0
 10
29.339797
 20
167.981787
 42
0.031968
  0
VERTEX
  8
0
 10
26.807413
 20
167.880799
 42
0.069594
  0
VERTEX
  8
0
 10
25.420561
 20
167.537389
 42
0.297349
  0
VERTEX
  8
0
 10
24.954690
 20
166.872319
 42
0.001218
  0
VERTEX
  8
0
 10
24.924026
 20
165.869544
 42
0.000028
  0
VERTEX
  8
0
 10
24.790505
 20
161.115621
 42
0.000063
  0
VERTEX
  8
0
 10
24.635104
 20
155.546732
 42
0.000042
  0
VERTEX
  8
0
 10
24.459389
 20
149.202135
 42
0.000000
  0
VERTEX
  8
0
 10
24.009399
 20
132.904270
 42
0.000000
  0
VERTEX
  8
0
 10
28.285151
 20
128.202135
 42
-0.007091
  0
VERTEX
  8
0
 10
33.461056
 20
122.345316
 42
-0.163742
  0
VERTEX
  8
0
 10
34.287165
 20
120.306495
 42
-0.201372
  0
VERTEX
  8
0
 10
33.604781
 20
118.359236
 42
-0.011612
  0
VERTEX
  8
0
 10
29.163778
 20
113.665247
 42
0.000000
  0
VERTEX
  8
0
 10
22.992733
 20
107.438857
 42
0.000000
  0
VERTEX
  8
0
 10
28.496366
 20
102.003589
 42
0.000000
  0
VERTEX
  8
0
 10
34.000000
 20
96.568320
 42
0.000000
  0
VERTEX
  8
0
 10
34.000000
 20
88.136939
 42
0.000000
  0
VERTEX
  8
0
 10
34.000000
 20
79.705558
 42
0.000000
  0
VERTEX
  8
0
 10
21.638457
 20
60.602779
 42
0.001005
  0
VERTEX
  8
0
 10
12.617587
 20
46.600848
 42
0.010651
  0
VERTEX
  8
0
 10
9.073746
 20
40.807934
 42
0.022843
  0
VERTEX
  8
0
 10
7.442199
 20
37.689558
 42
0.548628
  0
VERTEX
  8
0
 10
7.881483
 20
37.000000
 42
0.104093
  0
VERTEX
  8
0
 10
8.272806
 20
37.082360
 42
0.070348
  0
VERTEX
  8
0
 10
8.661591
 20
37.323593
 42
0.066476
  0
VERTEX
  8
0
 10
8.988950
 20
37.680505
 42
0.072057
  0
VERTEX
  8
0
 10
9.200531
 20
38.101592
 42
-0.230283
  0
VERTEX
  8
0
 10
9.633013
 20
38.543672
 42
-0.074777
  0
VERTEX
  8
0
 10
10.554849
 20
38.725191
 42
-0.044934
  0
VERTEX
  8
0
 10
11.981167
 20
38.661448
 42
-0.015195
  0
VERTEX
  8
0
 10
14.033864
 20
38.319949
 42
0.000000
  0
VERTEX
  8
0
 10
18.500000
 20
37.436713
 42
0.000000
  0
VERTEX
  8
0
 10
18.314074
 20
31.749897
 42
0.005279
  0
VERTEX
  8
0
 10
18.235511
 20
28.199621
 42
0.093570
  0
VERTEX
  8
0
 10
18.434283
 20
27.075597
 42
0.379853
  0
VERTEX
  8
0
 10
18.964646
 20
26.797368
 42
0.079000
  0
VERTEX
  8
0
 10
20.018595
 20
27.243686
 42
-0.079870
  0
VERTEX
  8
0
 10
21.553378
 20
27.890493
 42
-0.246776
  0
VERTEX
  8
0
 10
22.611162
 20
27.626653
 42
-0.273010
  0
VERTEX
  8
0
 10
22.924179
 20
26.647596
 42
-0.090007
  0
VERTEX
  8
0
 10
22.307688
 20
25.202036
 42
-0.046514
  0
VERTEX
  8
0
 10
21.474203
 20
24.162031
 42
-0.166810
  0
VERTEX
  8
0
 10
20.726621
 20
23.780730
 42
-0.103602
  0
VERTEX
  8
0
 10
19.691815
 20
23.848496
 42
-0.012560
  0
VERTEX
  8
0
 10
17.500000
 20
24.519258
 42
0.172437
  0
VERTEX
  8
0
 10
17.157446
 20
24.512606
 42
0.536284
  0
VERTEX
  8
0
 10
17.115625
 20
24.330187
 42
0.049583
  0
VERTEX
  8
0
 10
17.764229
 20
23.769790
 42
0.010620
  0
VERTEX
  8
0
 10
19.000000
 20
22.938352
 42
-0.003062
  0
VERTEX
  8
0
 10
20.816827
 20
21.755472
 42
-0.000921
  0
VERTEX
  8
0
 10
23.566386
 20
19.933974
 42
-0.000923
  0
VERTEX
  8
0
 10
26.643695
 20
17.878986
 42
-0.001002
  0
VERTEX
  8
0
 10
29.630249
 20
15.867937
 42
0.000000
  0
VERTEX
  8
0
 10
36.760499
 20
11.045871
 42
0.000000
  0
VERTEX
  8
0
 10
44.898883
 20
13.411933
 42
-0.008341
  0
VERTEX
  8
0
 10
49.631086
 20
14.702512
 42
-0.039977
  0
VERTEX
  8
0
 10
52.385603
 20
15.174363
 42
-0.059565
  0
VERTEX
  8
0
 10
54.635217
 20
15.108548
 42
-0.034927
  0
VERTEX
  8
0
 10
57.268633
 20
14.525015
 42
0.033160
  0
VERTEX
  8
0
 10
59.968788
 20
13.916683
 42
0.089118
  0
VERTEX
  8
0
 10
61.929833
 20
13.960748
 42
0.056904
  0
VERTEX
  8
0
 10
64.219931
 20
14.704236
 42
0.007857
  0
VERTEX
  8
0
 10
68.749603
 20
16.855107
 42
0.000000
  0
VERTEX
  8
0
 10
75.999207
 20
20.438178
 42
0.000000
  0
VERTEX
  8
0
 10
81.749603
 20
14.820760
 42
0.028318
  0
VERTEX
  8
0
 10
86.877738
 20
10.349470
 42
0.014460
  0
VERTEX
  8
0
 10
93.775334
 20
5.304041
 42
0.008953
  0
VERTEX
  8
0
 10
100.640136
 20
0.760002
 42
0.147099
  0
VERTEX
  8
0
 10
103.260229
 20
0.021565
 42
0.204335
  0
VERTEX
  8
0
 10
103.949511
 20
0.329804
 42
0.012052
  0
VERTEX
  8
0
 10
105.498912
 20
2.085510
 42
0.016611
  0
VERTEX
  8
0
 10
107.272382
 20
4.343733
 42
0.011359
  0
VERTEX
  8
0
 10
109.140322
 20
7.017477
 42
0.000000
  0
VERTEX
  8
0
 10
113.780644
 20
13.991823
 42
0.000000
  0
VERTEX
  8
0
 10
113.914322
 20
26.245911
 42
-0.003669
  0
VERTEX
  8
0
 10
114.005960
 20
31.267401
 42
-0.003815
  0
VERTEX
  8
0
 10
114.170600
 20
36.222236
 42
-0.003675
  0
VERTEX
  8
0
 10
114.377186
 20
40.505294
 42
-0.016577
  0
VERTEX
  8
0
 10
114.599039
 20
43.000000
 42
0.039890
  0
VERTEX
  8
0
 10
114.712745
 20
45.698781
 42
0.052461
  0
VERTEX
  8
0
 10
114.363024
 20
48.137059
 42
0.036924
  0
VERTEX
  8
0
 10
113.400615
 20
51.030560
 42
0.010113
  0
VERTEX
  8
0
 10
111.460432
 20
55.432510
 42
0.011833
  0
VERTEX
  8
0
 10
109.891190
 20
58.607572
 42
0.013213
  0
VERTEX
  8
0
 10
108.227349
 20
61.588287
 42
0.012588
  0
VERTEX
  8
0
 10
106.684265
 20
64.045618
 42
0.065582
  0
VERTEX
  8
0
 10
105.635394
 20
65.249079
 42
0.044826
  0
VERTEX
  8
0
 10
104.314744
 20
66.218795
 42
0.007727
  0
VERTEX
  8
0
 10
101.630397
 20
67.785528
 42
0.008356
  0
VERTEX
  8
0
 10
98.410822
 20
69.528325
 42
0.007383
  0
VERTEX
  8
0
 10
95.000000
 20
71.238100
 42
0.011844
  0
VERTEX
  8
0
 10
89.831760
 20
73.584737
 42
0.039573
  0
VERTEX
  8
0
 10
86.303411
 20
74.767420
 42
0.038720
  0
VERTEX
  8
0
 10
82.593370
 20
75.392510
 42
0.010983
  0
VERTEX
  8
0
 10
76.750000
 20
75.787838
 42
0.000000
  0
VERTEX
  8
0
 10
67.000000
 20
76.232615
 42
0.000000
  0
VERTEX
  8
0
 10
67.000000
 20
67.232939
 42
0.015381
  0
VERTEX
  8
0
 10
67.206790
 20
60.512267
 42
0.189882
  0
VERTEX
  8
0
 10
68.269873
 20
58.235349
 42
0.177799
  0
VERTEX
  8
0
 10
70.632635
 20
57.217493
 42
0.013169
  0
VERTEX
  8
0
 10
77.780389
 20
57.013655
 42
0.000000
  0
VERTEX
  8
0
 10
84.060777
 20
57.000000
 42
0.000000
  0
VERTEX
  8
0
 10
87.385947
 20
49.750000
 42
-0.001903
  0
VERTEX
  8
0
 10
88.653231
 20
46.958899
 42
-0.003114
  0
VERTEX
  8
0
 10
89.703340
 20
44.583059
 42
-0.000459
  0
VERTEX
  8
0
 10
90.617472
 20
42.474228
 42
-0.253999
  0
VERTEX
  8
0
 10
90.605558
 20
42.341265
 42
-0.295936
  0
VERTEX
  8
0
 10
90.487058
 20
42.289972
 42
-0.000200
  0
VERTEX
  8
0
 10
86.859133
 20
42.902822
 42
-0.002134
  0
VERTEX
  8
0
 10
82.800446
 20
43.607943
 42
-0.001291
  0
VERTEX
  8
0
 10
78.000000
 20
44.475853
 42
0.001226
  0
VERTEX
  8
0
 10
65.646602
 20
46.710993
 42
0.006644
  0
VERTEX
  8
0
 10
58.925996
 20
47.818039
 42
0.008174
  0
VERTEX
  8
0
 10
54.875603
 20
48.362511
 42
0.739605
  0
VERTEX
  8
0
 10
54.713719
 20
47.994529
 42
0.123315
  0
VERTEX
  8
0
 10
55.394929
 20
47.651734
 42
0.001425
  0
VERTEX
  8
0
 10
60.373296
 20
46.549051
 42
0.004246
  0
VERTEX
  8
0
 10
66.159492
 20
45.336112
 42
0.002746
  0
VERTEX
  8
0
 10
72.876225
 20
44.025883
 42
0.000000
  0
VERTEX
  8
0
 10
90.252449
 20
40.735270
 42
0.000000
  0
VERTEX
  8
0
 10
93.670991
 20
33.336285
 42
0.012627
  0
VERTEX
  8
0
 10
95.049252
 20
30.540852
 42
0.021310
  0
VERTEX
  8
0
 10
96.360959
 20
28.281096
 42
0.017076
  0
VERTEX
  8
0
 10
97.505503
 20
26.617753
 42
0.390030
  0
VERTEX
  8
0
 10
98.027825
 20
26.517197
 42
0.207630
  0
VERTEX
  8
0
 10
98.326083
 20
26.945964
 42
0.071202
  0
VERTEX
  8
0
 10
98.369494
 20
27.717964
 42
0.052190
  0
VERTEX
  8
0
 10
98.172547
 20
28.740491
 42
0.028788
  0
VERTEX
  8
0
 10
97.733059
 20
29.936585
 42
0.000349
  0
VERTEX
  8
0
 10
96.969468
 20
31.691626
 42
0.000040
  0
VERTEX
  8
0
 10
95.246586
 20
35.643092
 42
0.000048
  0
VERTEX
  8
0
 10
93.196275
 20
40.343256
 42
0.000039
  0
VERTEX
  8
0
 10
91.000000
 20
45.375621
 42
0.000000
  0
VERTEX
  8
0
 10
85.500000
 20
57.975165
 42
0.000000
  0
VERTEX
  8
0
 10
79.875000
 20
57.987583
 42
-0.009615
  0
VERTEX
  8
0
 10
77.489401
 20
58.038728
 42
-0.008157
  0
VERTEX
  8
0
 10
74.972722
 20
58.182277
 42
-0.008245
  0
VERTEX
  8
0
 10
72.684222
 20
58.388289
 42
-0.022786
  0
VERTEX
  8
0
 10
71.085329
 20
58.632934
 42
0.000000
  0
VERTEX
  8
0
 10
67.920657
 20
59.265869
 42
0.000000
  0
VERTEX
  8
0
 10
68.210329
 20
66.882934
 42
0.000000
  0
VERTEX
  8
0
 10
68.500000
 20
74.500000
 42
0.000000
  0
VERTEX
  8
0
 10
77.000000
 20
74.359432
 42
-0.013844
  0
VERTEX
  8
0
 10
82.090314
 20
74.134182
 42
-0.042371
  0
VERTEX
  8
0
 10
85.500000
 20
73.595822
 42
-0.039678
  0
VERTEX
  8
0
 10
88.887862
 20
72.470850
 42
-0.011012
  0
VERTEX
  8
0
 10
94.000000
 20
70.176001
 42
-0.007350
  0
VERTEX
  8
0
 10
97.405230
 20
68.494553
 42
-0.008415
  0
VERTEX
  8
0
 10
100.607906
 20
66.785499
 42
-0.007712
  0
VERTEX
  8
0
 10
103.272907
 20
65.250962
 42
-0.046683
  0
VERTEX
  8
0
 10
104.558828
 20
64.311078
 42
-0.064211
  0
VERTEX
  8
0
 10
105.560072
 20
63.165077
 42
-0.013236
  0
VERTEX
  8
0
 10
106.995242
 20
60.892976
 42
-0.013717
  0
VERTEX
  8
0
 10
108.530476
 20
58.144887
 42
-0.012532
  0
VERTEX
  8
0
 10
109.961884
 20
55.233625
 42
0.000000
  0
VERTEX
  8
0
 10
113.306111
 20
47.978231
 42
0.000000
  0
VERTEX
  8
0
 10
112.720236
 20
31.453552
 42
0.000000
  0
VERTEX
  8
0
 10
112.134362
 20
14.928872
 42
0.000000
  0
VERTEX
  8
0
 10
107.930868
 20
8.214436
 42
-0.000825
  0
VERTEX
  8
0
 10
106.297462
 20
5.614873
 42
-0.001261
  0
VERTEX
  8
0
 10
104.871174
 20
3.365827
 42
-0.000428
  0
VERTEX
  8
0
 10
103.631952
 20
1.426273
 42
-0.034354
  0
VERTEX
  8
0
 10
103.417670
 20
1.137317
 42
-0.385653
  0
VERTEX
  8
0
 10
102.268920
 20
0.989614
 42
-0.003600
  0
VERTEX
  8
0
 10
94.711336
 20
6.333628
 42
-0.011233
  0
VERTEX
  8
0
 10
87.503418
 20
11.758095
 42
-0.025726
  0
VERTEX
  8
0
 10
82.389519
 20
16.234731
 42
0.000000
  0
VERTEX
  8
0
 10
76.279039
 20
22.165665
 42
0.000000
  0
VERTEX
  8
0
 10
69.022276
 20
18.511218
 42
-0.008506
  0
VERTEX
  8
0
 10
64.531044
 20
16.344440
 42
-0.054949
  0
VERTEX
  8
0
 10
62.148065
 20
15.547577
 42
-0.080906
  0
VERTEX
  8
0
 10
60.053059
 20
15.439671
 42
-0.029969
  0
VERTEX
  8
0
 10
57.132757
 20
15.940722
 42
0.028198
  0
VERTEX
  8
0
 10
54.422299
 20
16.415651
 42
0.049941
  0
VERTEX
  8
0
 10
52.155500
 20
16.454827
 42
0.040933
  0
VERTEX
  8
0
 10
49.638815
 20
16.037473
 42
0.013250
  0
VERTEX
  8
0
 10
46.000000
 20
15.019976
 42
-0.006061
  0
VERTEX
  8
0
 10
43.397617
 20
14.251784
 42
-0.007488
  0
VERTEX
  8
0
 10
40.954087
 20
13.601914
 42
-0.006292
  0
VERTEX
  8
0
 10
38.892076
 20
13.113932
 42
-0.053768
  0
VERTEX
  8
0
 10
37.950083
 20
13.007639
 42
-0.121336
  0
VERTEX
  8
0
 10
37.034402
 20
13.228388
 42
-0.012040
  0
VERTEX
  8
0
 10
35.038810
 20
14.324119
 42
-0.014611
  0
VERTEX
  8
0
 10
32.697494
 20
15.777151
 42
-0.011098
  0
VERTEX
  8
0
 10
30.215845
 20
17.500000
 42
0.008079
  0
VERTEX
  8
0
 10
27.764465
 20
19.223857
 42
0.011308
  0
VERTEX
  8
0
 10
25.516004
 20
20.678125
 42
0.007814
  0
VERTEX
  8
0
 10
23.606131
 20
21.812262
 42
0.130799
  0
VERTEX
  8
0
 10
22.900752
 20
22.000000
 42
-0.292971
  0
VERTEX
  8
0
 10
22.578506
 20
22.206545
 42
-0.161973
  0
VERTEX
  8
0
 10
22.525347
 20
22.689366
 42
-0.068894
  0
VERTEX
  8
0
 10
22.817870
 20
23.493059
 42
-0.023354
  0
VERTEX
  8
0
 10
23.451893
 20
24.566924
 42
0.025130
  0
VERTEX
  8
0
 10
24.266252
 20
25.957480
 42
0.093543
  0
VERTEX
  8
0
 10
24.558018
 20
26.924618
 42
0.130129
  0
VERTEX
  8
0
 10
24.430852
 20
27.752855
 42
0.070510
  0
VERTEX
  8
0
 10
23.886760
 20
28.636446
 42
0.078261
  0
VERTEX
  8
0
 10
23.274364
 20
29.175587
 42
0.060731
  0
VERTEX
  8
0
 10
22.471450
 20
29.557861
 42
0.061277
  0
VERTEX
  8
0
 10
21.608593
 20
29.733344
 42
0.083698
  0
VERTEX
  8
0
 10
20.819857
 20
29.663142
 42
-0.126167
  0
VERTEX
  8
0
 10
19.665235
 20
29.657635
 42
-0.296102
  0
VERTEX
  8
0
 10
19.103593
 20
30.261965
 42
-0.100484
  0
VERTEX
  8
0
 10
19.143287
 20
31.718387
 42
-0.012940
  0
VERTEX
  8
0
 10
19.929784
 20
34.755173
 42
0.018689
  0
VERTEX
  8
0
 10
20.412546
 20
36.711590
 42
0.159188
  0
VERTEX
  8
0
 10
20.313559
 20
37.598290
 42
0.200696
  0
VERTEX
  8
0
 10
19.721256
 20
38.147611
 42
0.032389
  0
VERTEX
  8
0
 10
18.179784
 20
38.602374
 42
-0.001031
  0
VERTEX
  8
0
 10
16.958666
 20
38.880814
 42
-0.000601
  0
VERTEX
  8
0
 10
15.494776
 20
39.219640
 42
-0.000600
  0
VERTEX
  8
0
 10
14.029242
 20
39.562558
 42
-0.001016
  0
VERTEX
  8
0
 10
12.802430
 20
39.853803
 42
0.000000
  0
VERTEX
  8
0
 10
10.104861
 20
40.500000
 42
0.000000
  0
VERTEX
  8
0
 10
22.405252
 20
59.263011
 42
0.000000
  0
VERTEX
  8
0
 10
34.705644
 20
78.026022
 42
0.000000
  0
VERTEX
  8
0
 10
35.310829
 20
87.263011
 42
0.000000
  0
VERTEX
  8
0
 10
35.916014
 20
96.500000
 42
0.000000
  0
VERTEX
  8
0
 10
30.426297
 20
102.061042
 42
0.000000
  0
VERTEX
  8
0
 10
24.936579
 20
107.622085
 42
0.000000
  0
VERTEX
  8
0
 10
31.357283
 20
113.787562
 42
0.000000
  0
VERTEX
  8
0
 10
37.777987
 20
119.953039
 42
0.000000
  0
VERTEX
  8
0
 10
31.888994
 20
126.379837
 42
0.000000
  0
VERTEX
  8
0
 10
26.000000
 20
132.806636
 42
0.000000
  0
VERTEX
  8
0
 10
26.008692
 20
144.653318
 42
-0.004761
  0
VERTEX
  8
0
 10
26.059242
 20
149.581675
 42
-0.004523
  0
VERTEX
  8
0
 10
26.203744
 20
154.593254
 42
-0.004493
  0
VERTEX
  8
0
 10
26.411417
 20
159.022033
 42
-0.015918
  0
VERTEX
  8
0
 10
26.660494
 20
161.855632
 42
0.000000
  0
VERTEX
  8
0
 10
27.303603
 20
167.211264
 42
0.000000
  0
VERTEX
  8
0
 10
35.501273
 20
166.528402
 42
0.000000
  0
VERTEX
  8
0
 10
43.698943
 20
165.845540
 42
0.000000
  0
VERTEX
  8
0
 10
44.349471
 20
172.069461
 42
0.004920
  0
VERTEX
  8
0
 10
44.598533
 20
174.702725
 42
0.004268
  0
VERTEX
  8
0
 10
44.808907
 20
177.468203
 42
0.004297
  0
VERTEX
  8
0
 10
44.956507
 20
179.975754
 42
0.012551
  0
VERTEX
  8
0
 10
45.000000
 20
181.708182
 42
0.000000
  0
VERTEX
  8
0
 10
45.000000
 20
185.122982
 42
0.000000
  0
VERTEX
  8
0
 10
56.250000
 20
184.619625
 42
0.004408
  0
VERTEX
  8
0
 10
61.753008
 20
184.421995
 42
0.001816
  0
VERTEX
  8
0
 10
69.211625
 20
184.247053
 42
0.001796
  0
VERTEX
  8
0
 10
77.215077
 20
184.117171
 42
0.002307
  0
VERTEX
  8
0
 10
84.576807
 20
184.058134
 42
0.000000
  0
VERTEX
  8
0
 10
101.653614
 20
184.000000
 42
0.000000
  0
VERTEX
  8
0
 10
101.202650
 20
180.927382
 42
0.020877
  0
VERTEX
  8
0
 10
101.004457
 20
179.028208
 42
0.223134
  0
VERTEX
  8
0
 10
101.282419
 20
178.325850
 42
0.198785
  0
VERTEX
  8
0
 10
102.022170
 20
178.045356
 42
0.016325
  0
VERTEX
  8
0
 10
104.125843
 20
178.177382
 42
0.030832
  0
VERTEX
  8
0
 10
105.816806
 20
178.445012
 42
0.097747
  0
VERTEX
  8
0
 10
106.861004
 20
178.903191
 42
0.130170
  0
VERTEX
  8
0
 10
107.484146
 20
179.637706
 42
0.076043
  0
VERTEX
  8
0
 10
107.819551
 20
180.750000
 42
-0.100511
  0
VERTEX
  8
0
 10
108.258113
 20
181.984188
 42
-0.178683
  0
VERTEX
  8
0
 10
109.089408
 20
182.650102
 42
-0.072806
  0
VERTEX
  8
0
 10
110.716899
 20
182.940200
 42
-0.007760
  0
VERTEX
  8
0
 10
114.569551
 20
183.000000
 42
0.000000
  0
VERTEX
  8
0
 10
121.000000
 20
183.000000
 42
0.000000
  0
VERTEX
  8
0
 10
121.000000
 20
177.500000
 42
0.008616
  0
VERTEX
  8
0
 10
121.058601
 20
174.099576
 42
0.098356
  0
VERTEX
  8
0
 10
121.363636
 20
172.800000
 42
0.221767
  0
VERTEX
  8
0
 10
122.070774
 20
172.195020
 42
0.067911
  0
VERTEX
  8
0
 10
123.500000
 20
172.000000
 42
-0.045527
  0
VERTEX
  8
0
 10
124.768514
 20
171.884257
 42
-0.152009
  0
VERTEX
  8
0
 10
125.500000
 20
171.500000
 42
-0.152009
  0
VERTEX
  8
0
 10
125.884257
 20
170.768514
 42
-0.045527
  0
VERTEX
  8
0
 10
126.000000
 20
169.500000
 42
0.045527
  0
VERTEX
  8
0
 10
126.115743
 20
168.231486
 42
0.152009
  0
VERTEX
  8
0
 10
126.500000
 20
167.500000
 42
0.152009
  0
VERTEX
  8
0
 10
127.231486
 20
167.115743
 42
0.045527
  0
VERTEX
  8
0
 10
128.500000
 20
167.000000
 42
0.000000
  0
VERTEX
  8
0
 10
131.000000
 20
167.000000
 42
0.000000
  0
VERTEX
  8
0
 10
131.000000
 20
149.500000
 42
0.000000
  0
VERTEX
  8
0
 10
131.000000
 20
132.000000
 42
0.000000
  0
VERTEX
  8
0
 10
118.000000
 20
132.000000
 42
0.000000
  0
VERTEX
  8
0
 10
105.000000
 20
132.000000
 42
0.000000
  0
VERTEX
  8
0
 10
105.000000
 20
134.500000
 42
0.047675
  0
VERTEX
  8
0
 10
104.873428
 20
135.824437
 42
0.173074
  0
VERTEX
  8
0
 10
104.450000
 20
136.541667
 42
0.144586
  0
VERTEX
  8
0
 10
103.613599
 20
136.902765
 42
0.030103
  0
VERTEX
  8
0
 10
102.000000
 20
137.000000
 42
0.030103
  0
VERTEX
  8
0
 10
100.386401
 20
136.902765
 42
0.144586
  0
VERTEX
  8
0
 10
99.550000
 20
136.541667
 42
0.173074
  0
VERTEX
  8
0
 10
99.126572
 20
135.824437
 42
0.047675
  0
VERTEX
  8
0
 10
99.000000
 20
134.500000
 42
-0.047160
  0
VERTEX
  8
0
 10
98.901370
 20
133.456621
 42
-0.088208
  0
VERTEX
  8
0
 10
98.600000
 20
132.666667
 42
-0.118484
  0
VERTEX
  8
0
 10
98.119980
 20
132.177821
 42
-0.140575
  0
VERTEX
  8
0
 10
97.500000
 20
132.000000
 42
0.346303
  0
VERTEX
  8
0
 10
96.682219
 20
131.356419
 42
0.037964
  0
VERTEX
  8
0
 10
96.271429
 20
128.833333
 42
0.018821
  0
VERTEX
  8
0
 10
96.049641
 20
124.203576
 42
0.002558
  0
VERTEX
  8
0
 10
96.000000
 20
114.500000
 42
0.000000
  0
VERTEX
  8
0
 10
96.000000
 20
97.000000
 42
0.000000
  0
VERTEX
  8
0
 10
87.500000
 20
97.000000
 42
0.000000
  0
VERTEX
  8
0
 10
79.000000
 20
97.000000
 42
0.000000
  0
VERTEX
  8
0
 10
79.000000
 20
122.500000
 42
0.000000
  0
VERTEX
  8
0
 10
79.000000
 20
148.000000
 42
0.000000
  0
VERTEX
  8
0
 10
99.500000
 20
148.000000
 42
0.000000
  0
VERTEX
  8
0
 10
120.000000
 20
148.000000
 42
0.000000
  0
VERTEX
  8
0
 10
120.000000
 20
151.000000
 42
0.028492
  0
VERTEX
  8
0
 10
119.904493
 20
152.674684
 42
0.164251
  0
VERTEX
  8
0
 10
119.532182
 20
153.466486
 42
0.180079
  0
VERTEX
  8
0
 10
118.777148
 20
153.830587
 42
0.035634
  0
VERTEX
  8
0
 10
117.250000
 20
153.863818
 42
0.002047
  0
VERTEX
  8
0
 10
115.598669
 20
153.775265
 42
0.200802
  0
VERTEX
  8
0
 10
115.392379
 20
153.674595
 42
0.574721
  0
VERTEX
  8
0
 10
115.431321
 20
153.558172
 42
0.003620
  0
VERTEX
  8
0
 10
116.750000
 20
153.294267
 42
-0.058152
  0
VERTEX
  8
0
 10
117.610389
 20
153.022023
 42
-0.067395
  0
VERTEX
  8
0
 10
118.339062
 20
152.568006
 42
-0.078312
  0
VERTEX
  8
0
 10
118.831442
 20
152.009654
 42
-0.142551
  0
VERTEX
  8
0
 10
119.000000
 20
151.430449
 42
-0.247263
  0
VERTEX
  8
0
 10
118.491775
 20
150.465583
 42
-0.142128
  0
VERTEX
  8
0
 10
117.211911
 20
150.043115
 42
-0.101803
  0
VERTEX
  8
0
 10
115.532293
 20
150.325290
 42
-0.094990
  0
VERTEX
  8
0
 10
114.053296
 20
151.250000
 42
0.013986
  0
VERTEX
  8
0
 10
113.530709
 20
151.708532
 42
0.133941
  0
VERTEX
  8
0
 10
113.263287
 20
151.829864
 42
0.561579
  0
VERTEX
  8
0
 10
113.180184
 20
151.732601
 42
0.048423
  0
VERTEX
  8
0
 10
113.341481
 20
151.364607
 42
-0.520187
  0
VERTEX
  8
0
 10
113.058563
 20
150.778126
 42
-0.013733
  0
VERTEX
  8
0
 10
109.692527
 20
150.322537
 42
-0.013256
  0
VERTEX
  8
0
 10
104.471549
 20
149.901041
 42
-0.003376
  0
VERTEX
  8
0
 10
95.988186
 20
149.499521
 42
0.000000
  0
VERTEX
  8
0
 10
78.000000
 20
148.769827
 42
0.000000
  0
VERTEX
  8
0
 10
78.000000
 20
122.384913
 42
0.000000
  0
VERTEX
  8
0
 10
78.000000
 20
96.000000
 42
0.000000
  0
VERTEX
  8
0
 10
87.500000
 20
96.000000
 42
0.000000
  0
VERTEX
  8
0
 10
97.000000
 20
96.000000
 42
0.000000
  0
VERTEX
  8
0
 10
97.000000
 20
113.500000
 42
-0.002558
  0
VERTEX
  8
0
 10
97.049641
 20
123.203576
 42
-0.018821
  0
VERTEX
  8
0
 10
97.271429
 20
127.833333
 42
-0.037964
  0
VERTEX
  8
0
 10
97.682219
 20
130.356419
 42
-0.346303
  0
VERTEX
  8
0
 10
98.500000
 20
131.000000
 42
0.140575
  0
VERTEX
  8
0
 10
99.119980
 20
131.177821
 42
0.118484
  0
VERTEX
  8
0
 10
99.600000
 20
131.666667
 42
0.088208
  0
VERTEX
  8
0
 10
99.901370
 20
132.456621
 42
0.047160
  0
VERTEX
  8
0
 10
100.000000
 20
133.500000
 42
-0.044872
  0
VERTEX
  8
0
 10
100.108482
 20
134.706366
 42
-0.131543
  0
VERTEX
  8
0
 10
100.461658
 20
135.454712
 42
-0.151667
  0
VERTEX
  8
0
 10
101.105020
 20
135.864570
 42
-0.066644
  0
VERTEX
  8
0
 10
102.116577
 20
136.000000
 42
-0.053367
  0
VERTEX
  8
0
 10
103.179934
 20
135.886179
 42
-0.196814
  0
VERTEX
  8
0
 10
103.725839
 20
135.511160
 42
-0.160567
  0
VERTEX
  8
0
 10
103.915872
 20
134.801932
 42
-0.033077
  0
VERTEX
  8
0
 10
103.755249
 20
133.500000
 42
0.000000
  0
VERTEX
  8
0
 10
103.277344
 20
131.000000
 42
0.000000
  0
VERTEX
  8
0
 10
117.638672
 20
131.000000
 42
0.000000
  0
VERTEX
  8
0
 10
132.000000
 20
131.000000
 42
0.000000
  0
VERTEX
  8
0
 10
132.000000
 20
149.861328
 42
0.000000
  0
VERTEX
  8
0
 10
132.000000
 20
168.722656
 42
0.000000
  0
VERTEX
  8
0
 10
129.500000
 20
168.244751
 42
-0.034712
  0
VERTEX
  8
0
 10
128.131849
 20
168.080492
 42
-0.191737
  0
VERTEX
  8
0
 10
127.443200
 20
168.315436
 42
-0.185635
  0
VERTEX
  8
0
 10
127.091571
 20
168.965182
 42
-0.032250
  0
VERTEX
  8
0
 10
127.000000
 20
170.383423
 42
0.041245
  0
VERTEX
  8
0
 10
126.887525
 20
171.744604
 42
0.155203
  0
VERTEX
  8
0
 10
126.502296
 20
172.497683
 42
0.156586
  0
VERTEX
  8
0
 10
125.755166
 20
172.886041
 42
0.042203
  0
VERTEX
  8
0
 10
124.407450
 20
173.000000
 42
-0.056342
  0
VERTEX
  8
0
 10
122.888321
 20
173.171726
 42
-0.242769
  0
VERTEX
  8
0
 10
122.215275
 20
173.740298
 42
-0.106743
  0
VERTEX
  8
0
 10
121.992178
 20
174.963946
 42
-0.007674
  0
VERTEX
  8
0
 10
122.157450
 20
178.427040
 42
0.000000
  0
VERTEX
  8
0
 10
122.500000
 20
183.854080
 42
0.000000
  0
VERTEX
  8
0
 10
113.500000
 20
184.403730
 42
0.006709
  0
VERTEX
  8
0
 10
108.268679
 20
184.652813
 42
0.001131
  0
VERTEX
  8
0
 10
98.257812
 20
184.972234
 42
0.001237
  0
VERTEX
  8
0
 10
86.491290
 20
185.291892
 42
0.001099
  0
VERTEX
  8
0
 10
74.250000
 20
185.567214
 42
0.000000
  0
VERTEX
  8
0
 10
44.000000
 20
186.181048
 42
0.000000
  0
SEQEND
  0
POLYLINE
  8
0
 66
1
 70
1
  0
VERTEX
  8
0
 10
106.000000
 20
181.500000
 42
-0.047160
  0
VERTEX
  8
0
 10
105.901370
 20
180.456621
 42
-0.088208
  0
VERTEX
  8
0
 10
105.600000
 20
179.666667
 42
-0.118484
  0
VERTEX
  8
0
 10
105.119980
 20
179.177821
 42
-0.140575
  0
VERTEX
  8
0
 10
104.500000
 20
179.000000
 42
-0.140575
  0
VERTEX
  8
0
 10
103.880020
 20
179.177821
 42
-0.118484
  0
VERTEX
  8
0
 10
103.400000
 20
179.666667
 42
-0.088208
  0
VERTEX
  8
0
 10
103.098630
 20
180.456621
 42
-0.047160
  0
VERTEX
  8
0
 10
103.000000
 20
181.500000
 42
-0.047160
  0
VERTEX
  8
0
 10
103.098630
 20
182.543379
 42
-0.088208
  0
VERTEX
  8
0
 10
103.400000
 20
183.333333
 42
-0.118484
  0
VERTEX
  8
0
 10
103.880020
 20
183.822179
 42
-0.140575
  0
VERTEX
  8
0
 10
104.500000
 20
184.000000
 42
-0.140575
  0
VERTEX
  8
0
 10
105.119980
 20
183.822179
 42
-0.118484
  0
VERTEX
  8
0
 10
105.600000
 20
183.333333
 42
-0.088208
  0
VERTEX
  8
0
 10
105.901370
 20
182.543379
 42
-0.047160
  0
SEQEND
  0
POLYLINE
  8
0
 66
1
 70
1
  0
VERTEX
  8
0
 10
50.210573
 20
179.461963
 42
0.017756
  0
VERTEX
  8
0
 10
49.553366
 20
178.661216
 42
0.208212
  0
VERTEX
  8
0
 10
49.459106
 20
178.278020
 42
0.325335
  0
VERTEX
  8
0
 10
49.687524
 20
178.055481
 42
0.035838
  0
VERTEX
  8
0
 10
50.460573
 20
178.000000
 42
0.096419
  0
VERTEX
  8
0
 10
51.048138
 20
178.114368
 42
0.097291
  0
VERTEX
  8
0
 10
51.547793
 20
178.440625
 42
0.098537
  0
VERTEX
  8
0
 10
51.882332
 20
178.927600
 42
0.101721
  0
VERTEX
  8
0
 10
52.000000
 20
179.500000
 42
0.019434
  0
VERTEX
  8
0
 10
51.955338
 20
180.648652
 42
0.397768
  0
VERTEX
  8
0
 10
51.719977
 20
180.861798
 42
0.201684
  0
VERTEX
  8
0
 10
51.322999
 20
180.684860
 42
0.007679
  0
SEQEND
  0
POLYLINE
  8
0
 66
1
 70
1
  0
VERTEX
  8
0
 10
71.000000
 20
169.000000
 42
-0.322437
  0
VERTEX
  8
0
 10
70.719449
 20
168.610183
 42
-0.031449
  0
VERTEX
  8
0
 10
69.531250
 20
168.293750
 42
-0.030530
  0
VERTEX
  8
0
 10
67.916554
 20
168.072205
 42
-0.018830
  0
VERTEX
  8
0
 10
66.000000
 20
168.000000
 42
0.000000
  0
VERTEX
  8
0
 10
61.000000
 20
168.000000
 42
0.000000
  0
VERTEX
  8
0
 10
61.000000
 20
161.500000
 42
0.000000
  0
VERTEX
  8
0
 10
61.000000
 20
155.000000
 42
0.000000
  0
VERTEX
  8
0
 10
58.106989
 20
155.000000
 42
0.045569
  0
VERTEX
  8
0
 10
56.899424
 20
154.889716
 42
0.060653
  0
VERTEX
  8
0
 10
55.848634
 20
154.560857
 42
0.071717
  0
VERTEX
  8
0
 10
55.054855
 20
154.054691
 42
0.124016
  0
VERTEX
  8
0
 10
54.606989
 20
153.418213
 42
0.028084
  0
VERTEX
  8
0
 10
54.119523
 20
151.897767
 42
0.092405
  0
VERTEX
  8
0
 10
54.046332
 20
150.851081
 42
0.183911
  0
VERTEX
  8
0
 10
54.361192
 20
150.243667
 42
0.184246
  0
VERTEX
  8
0
 10
55.000000
 20
150.000000
 42
0.196458
  0
VERTEX
  8
0
 10
55.382004
 20
150.156121
 42
0.086397
  0
VERTEX
  8
0
 10
55.706250
 20
150.607931
 42
0.066305
  0
VERTEX
  8
0
 10
55.926407
 20
151.277431
 42
0.046354
  0
VERTEX
  8
0
 10
56.000000
 20
152.069551
 42
-0.058000
  0
VERTEX
  8
0
 10
56.115212
 20
153.059423
 42
-0.172847
  0
VERTEX
  8
0
 10
56.480329
 20
153.624010
 42
-0.157056
  0
VERTEX
  8
0
 10
57.147328
 20
153.862107
 42
-0.045709
  0
VERTEX
  8
0
 10
58.250000
 20
153.795810
 42
-0.056672
  0
VERTEX
  8
0
 10
59.090342
 20
153.568089
 42
-0.079226
  0
VERTEX
  8
0
 10
59.758347
 20
153.171312
 42
-0.101414
  0
VERTEX
  8
0
 10
60.155811
 20
152.674297
 42
-0.171819
  0
VERTEX
  8
0
 10
60.225223
 20
152.151929
 42
0.070050
  0
VERTEX
  8
0
 10
60.194257
 20
151.699502
 42
0.195483
  0
VERTEX
  8
0
 10
60.332191
 20
151.419434
 42
0.230566
  0
VERTEX
  8
0
 10
60.605303
 20
151.342712
 42
0.093830
  0
VERTEX
  8
0
 10
60.975223
 20
151.484687
 42
0.211037
  0
VERTEX
  8
0
 10
61.378977
 20
152.073270
 42
0.014623
  0
VERTEX
  8
0
 10
61.698972
 20
154.107351
 42
0.018792
  0
VERTEX
  8
0
 10
61.925545
 20
156.640251
 42
0.012909
  0
VERTEX
  8
0
 10
62.000000
 20
159.523523
 42
0.000000
  0
VERTEX
  8
0
 10
62.000000
 20
166.929012
 42
0.000000
  0
VERTEX
  8
0
 10
69.969881
 20
166.688854
 42
0.007267
  0
VERTEX
  8
0
 10
74.159159
 20
166.623536
 42
0.038318
  0
VERTEX
  8
0
 10
76.449794
 20
166.796907
 42
0.082035
  0
VERTEX
  8
0
 10
77.746767
 20
167.220737
 42
0.209538
  0
VERTEX
  8
0
 10
78.353880
 20
167.974348
 42
-0.008273
  0
VERTEX
  8
0
 10
78.580075
 20
168.756266
 42
-0.444476
  0
VERTEX
  8
0
 10
78.705637
 20
168.814790
 42
-0.276881
  0
VERTEX
  8
0
 10
78.812100
 20
168.668839
 42
-0.005950
  0
VERTEX
  8
0
 10
78.883999
 20
167.750000
 42
0.291618
  0
VERTEX
  8
0
 10
79.599325
 20
166.776473
 42
0.067030
  0
VERTEX
  8
0
 10
81.676752
 20
166.277441
 42
0.023228
  0
VERTEX
  8
0
 10
85.853535
 20
166.045634
 42
0.002249
  0
VERTEX
  8
0
 10
96.000000
 20
166.000000
 42
0.000000
  0
VERTEX
  8
0
 10
113.000000
 20
166.000000
 42
0.000000
  0
VERTEX
  8
0
 10
113.000000
 20
159.333333
 42
0.002186
  0
VERTEX
  8
0
 10
113.025424
 20
153.518389
 42
0.610988
  0
VERTEX
  8
0
 10
113.372148
 20
153.344383
 42
0.217164
  0
VERTEX
  8
0
 10
113.752989
 20
154.023131
 42
0.001791
  0
VERTEX
  8
0
 10
114.252523
 20
160.250000
 42
0.000000
  0
VERTEX
  8
0
 10
114.769694
 20
167.000000
 42
0.000000
  0
VERTEX
  8
0
 10
100.884847
 20
167.000000
 42
-0.003390
  0
VERTEX
  8
0
 10
93.280760
 20
167.051554
 42
-0.023518
  0
VERTEX
  8
0
 10
89.564141
 20
167.277008
 42
-0.052177
  0
VERTEX
  8
0
 10
87.576771
 20
167.704494
 42
-0.324375
  0
VERTEX
  8
0
 10
87.000000
 20
168.500000
 42
0.099038
  0
VERTEX
  8
0
 10
86.885486
 20
169.072457
 42
0.097945
  0
VERTEX
  8
0
 10
86.559375
 20
169.559375
 42
0.097945
  0
VERTEX
  8
0
 10
86.072457
 20
169.885486
 42
0.099038
  0
VERTEX
  8
0
 10
85.500000
 20
170.000000
 42
0.099038
  0
VERTEX
  8
0
 10
84.927543
 20
169.885486
 42
0.097945
  0
VERTEX
  8
0
 10
84.440625
 20
169.559375
 42
0.097945
  0
VERTEX
  8
0
 10
84.114514
 20
169.072457
 42
0.099038
  0
VERTEX
  8
0
 10
84.000000
 20
168.500000
 42
-0.099038
  0
VERTEX
  8
0
 10
83.885486
 20
167.927543
 42
-0.097945
  0
VERTEX
  8
0
 10
83.559375
 20
167.440625
 42
-0.097945
  0
VERTEX
  8
0
 10
83.072457
 20
167.114514
 42
-0.099038
  0
VERTEX
  8
0
 10
82.500000
 20
167.000000
 42
-0.099038
  0
VERTEX
  8
0
 10
81.927543
 20
167.114514
 42
-0.097945
  0
VERTEX
  8
0
 10
81.440625
 20
167.440625
 42
-0.097945
  0
VERTEX
  8
0
 10
81.114514
 20
167.927543
 42
-0.099038
  0
VERTEX
  8
0
 10
81.000000
 20
168.500000
 42
0.130775
  0
VERTEX
  8
0
 10
80.846791
 20
169.075754
 42
0.102140
  0
VERTEX
  8
0
 10
80.416667
 20
169.562500
 42
0.088920
  0
VERTEX
  8
0
 10
79.769411
 20
169.888136
 42
0.072314
  0
VERTEX
  8
0
 10
79.000000
 20
170.000000
 42
0.072314
  0
VERTEX
  8
0
 10
78.230589
 20
169.888136
 42
0.088920
  0
VERTEX
  8
0
 10
77.583333
 20
169.562500
 42
0.102140
  0
VERTEX
  8
0
 10
77.153209
 20
169.075754
 42
0.130775
  0
VERTEX
  8
0
 10
77.000000
 20
168.500000
 42
-0.064853
  0
VERTEX
  8
0
 10
76.925306
 20
167.926543
 42
-0.082425
  0
VERTEX
  8
0
 10
76.706250
 20
167.440625
 42
-0.098894
  0
VERTEX
  8
0
 10
76.381354
 20
167.115568
 42
-0.148195
  0
VERTEX
  8
0
 10
76.000000
 20
167.000000
 42
-0.148195
  0
VERTEX
  8
0
 10
75.618646
 20
167.115568
 42
-0.098894
  0
VERTEX
  8
0
 10
75.293750
 20
167.440625
 42
-0.082425
  0
VERTEX
  8
0
 10
75.074694
 20
167.926543
 42
-0.064853
  0
VERTEX
  8
0
 10
75.000000
 20
168.500000
 42
0.130775
  0
VERTEX
  8
0
 10
74.846791
 20
169.075754
 42
0.102140
  0
VERTEX
  8
0
 10
74.416667
 20
169.562500
 42
0.088920
  0
VERTEX
  8
0
 10
73.769411
 20
169.888136
 42
0.072314
  0
VERTEX
  8
0
 10
73.000000
 20
170.000000
 42
0.048028
  0
VERTEX
  8
0
 10
72.234582
 20
169.926307
 42
0.068025
  0
VERTEX
  8
0
 10
71.587500
 20
169.706250
 42
0.088204
  0
VERTEX
  8
0
 10
71.151477
 20
169.381882
 42
0.191087
  0
SEQEND
  0
POLYLINE
  8
0
 66
1
 70
1
  0
VERTEX
  8
0
 10
32.666667
 20
161.333333
 42
0.091649
  0
VERTEX
  8
0
 10
32.095775
 20
160.503522
 42
0.193059
  0
VERTEX
  8
0
 10
32.066255
 20
159.735179
 42
0.206496
  0
VERTEX
  8
0
 10
32.569797
 20
159.194980
 42
0.103678
  0
VERTEX
  8
0
 10
33.500000
 20
159.000000
 42
0.099038
  0
VERTEX
  8
0
 10
34.072457
 20
159.114514
 42
0.097945
  0
VERTEX
  8
0
 10
34.559375
 20
159.440625
 42
0.097945
  0
VERTEX
  8
0
 10
34.885486
 20
159.927543
 42
0.099038
  0
VERTEX
  8
0
 10
35.000000
 20
160.500000
 42
0.103678
  0
VERTEX
  8
0
 10
34.805020
 20
161.430203
 42
0.206496
  0
VERTEX
  8
0
 10
34.264821
 20
161.933745
 42
0.193059
  0
VERTEX
  8
0
 10
33.496478
 20
161.904225
 42
0.091649
  0
SEQEND
  0
POLYLINE
  8
0
 66
1
 70
1
  0
VERTEX
  8
0
 10
42.633880
 20
146.200900
 42
0.017273
  0
VERTEX
  8
0
 10
42.397769
 20
144.385098
 42
0.007139
  0
VERTEX
  8
0
 10
42.198515
 20
141.914821
 42
0.007053
  0
VERTEX
  8
0
 10
42.059941
 20
139.257648
 42
0.009016
  0
VERTEX
  8
0
 10
42.011006
 20
136.807000
 42
0.023381
  0
VERTEX
  8
0
 10
42.172174
 20
133.213518
 42
0.088932
  0
VERTEX
  8
0
 10
42.766681
 20
131.056769
 42
0.066011
  0
VERTEX
  8
0
 10
44.155171
 20
128.929129
 42
0.009218
  0
VERTEX
  8
0
 10
47.662836
 20
124.997461
 42
0.000000
  0
VERTEX
  8
0
 10
53.325672
 20
118.880922
 42
0.000000
  0
VERTEX
  8
0
 10
46.912836
 20
113.025458
 42
0.000000
  0
VERTEX
  8
0
 10
40.500000
 20
107.169994
 42
0.000000
  0
VERTEX
  8
0
 10
46.408308
 20
101.146022
 42
0.000000
  0
VERTEX
  8
0
 10
52.316617
 20
95.122050
 42
0.000000
  0
VERTEX
  8
0
 10
51.678983
 20
80.358791
 42
0.000000
  0
VERTEX
  8
0
 10
51.041350
 20
65.595531
 42
0.000000
  0
VERTEX
  8
0
 10
45.020675
 20
59.520860
 42
0.008483
  0
VERTEX
  8
0
 10
42.713902
 20
57.113041
 42
0.012322
  0
VERTEX
  8
0
 10
40.768573
 20
54.905584
 42
0.007939
  0
VERTEX
  8
0
 10
39.233272
 20
53.014143
 42
0.168046
  0
VERTEX
  8
0
 10
39.000000
 20
52.339672
 42
0.186844
  0
VERTEX
  8
0
 10
39.177426
 20
51.881451
 42
0.065895
  0
VERTEX
  8
0
 10
39.725485
 20
51.419509
 42
0.054191
  0
VERTEX
  8
0
 10
40.524469
 20
51.023191
 42
0.040849
  0
VERTEX
  8
0
 10
41.469738
 20
50.761034
 42
0.027972
  0
VERTEX
  8
0
 10
42.382426
 20
50.638968
 42
0.068119
  0
VERTEX
  8
0
 10
43.058668
 20
50.678915
 42
0.162929
  0
VERTEX
  8
0
 10
43.386091
 20
50.865537
 42
0.332306
  0
VERTEX
  8
0
 10
43.410721
 20
51.144457
 42
0.102216
  0
VERTEX
  8
0
 10
43.100788
 20
51.472316
 42
0.051892
  0
VERTEX
  8
0
 10
42.602131
 20
51.748684
 42
0.048471
  0
VERTEX
  8
0
 10
42.006455
 20
51.936560
 42
0.052212
  0
VERTEX
  8
0
 10
41.400583
 20
52.000000
 42
-0.440374
  0
VERTEX
  8
0
 10
41.118649
 20
52.308053
 42
-0.116163
  0
VERTEX
  8
0
 10
41.355638
 20
53.023731
 42
-0.044587
  0
VERTEX
  8
0
 10
42.234638
 20
54.203879
 42
-0.015129
  0
VERTEX
  8
0
 10
43.709600
 20
55.757132
 42
0.013507
  0
VERTEX
  8
0
 10
49.756334
 20
62.083613
 42
0.095255
  0
VERTEX
  8
0
 10
51.955876
 20
65.704859
 42
0.080856
  0
VERTEX
  8
0
 10
52.823424
 20
70.107840
 42
0.008296
  0
VERTEX
  8
0
 10
53.000000
 20
80.749147
 42
0.000000
  0
VERTEX
  8
0
 10
53.000000
 20
95.344843
 42
0.000000
  0
VERTEX
  8
0
 10
47.831012
 20
101.287756
 42
0.000000
  0
VERTEX
  8
0
 10
42.662024
 20
107.230669
 42
0.000000
  0
VERTEX
  8
0
 10
48.855960
 20
113.254423
 42
0.000000
  0
VERTEX
  8
0
 10
55.049896
 20
119.278176
 42
0.000000
  0
VERTEX
  8
0
 10
49.024948
 20
125.552534
 42
-0.008675
  0
VERTEX
  8
0
 10
45.379788
 20
129.482856
 42
-0.059626
  0
VERTEX
  8
0
 10
43.869731
 20
131.637383
 42
-0.090402
  0
VERTEX
  8
0
 10
43.203159
 20
133.704829
 42
-0.032906
  0
VERTEX
  8
0
 10
43.000000
 20
136.788446
 42
-0.010738
  0
VERTEX
  8
0
 10
43.045717
 20
138.916958
 42
-0.008547
  0
VERTEX
  8
0
 10
43.183594
 20
141.210512
 42
-0.008656
  0
VERTEX
  8
0
 10
43.384546
 20
143.331852
 42
-0.021412
  0
VERTEX
  8
0
 10
43.625000
 20
144.875000
 42
-0.045752
  0
VERTEX
  8
0
 10
44.190139
 20
146.776893
 42
-0.197336
  0
VERTEX
  8
0
 10
44.994671
 20
147.606688
 42
-0.096236
  0
VERTEX
  8
0
 10
46.494887
 20
147.941075
 42
-0.006857
  0
VERTEX
  8
0
 10
50.791667
 20
148.000000
 42
0.002182
  0
VERTEX
  8
0
 10
56.468534
 20
148.024770
 42
0.603938
  0
VERTEX
  8
0
 10
56.643911
 20
148.365414
 42
0.219363
  0
VERTEX
  8
0
 10
55.993774
 20
148.744371
 42
0.001748
  0
VERTEX
  8
0
 10
49.872875
 20
149.311319
 42
0.000000
  0
VERTEX
  8
0
 10
43.245749
 20
149.901801
 42
0.000000
  0
SEQEND
  0
POLYLINE
  8
0
 66
1
 70
1
  0
VERTEX
  8
0
 10
45.812500
 20
50.316886
 42
0.051402
  0
VERTEX
  8
0
 10
46.359369
 20
50.160852
 42
0.054150
  0
VERTEX
  8
0
 10
46.916927
 20
50.123424
 42
0.060344
  0
VERTEX
  8
0
 10
47.402231
 20
50.202593
 42
0.126455
  0
VERTEX
  8
0
 10
47.729167
 20
50.395833
 42
0.296942
  0
VERTEX
  8
0
 10
47.775380
 20
50.614691
 42
0.208169
  0
VERTEX
  8
0
 10
47.592839
 20
50.799335
 42
0.077125
  0
VERTEX
  8
0
 10
47.112848
 20
50.910055
 42
0.028489
  0
VERTEX
  8
0
 10
46.416667
 20
50.921053
 42
0.018894
  0
VERTEX
  8
0
 10
45.670344
 20
50.862007
 42
0.168741
  0
VERTEX
  8
0
 10
45.378580
 20
50.720685
 42
0.470617
  0
VERTEX
  8
0
 10
45.395823
 20
50.538436
 42
0.054073
  0
SEQEND
  0
POLYLINE
  8
0
 66
1
 70
1
  0
VERTEX
  8
0
 10
38.778189
 20
46.942062
 42
0.029040
  0
VERTEX
  8
0
 10
38.625822
 20
45.208439
 42
0.154159
  0
VERTEX
  8
0
 10
38.882408
 20
44.303575
 42
0.164835
  0
VERTEX
  8
0
 10
39.601427
 20
43.743411
 42
0.034443
  0
VERTEX
  8
0
 10
41.164689
 20
43.317062
 42
-0.041164
  0
VERTEX
  8
0
 10
42.544874
 20
42.920668
 42
-0.110931
  0
VERTEX
  8
0
 10
43.391856
 20
42.362216
 42
-0.128183
  0
VERTEX
  8
0
 10
43.848174
 20
41.550142
 42
-0.064331
  0
VERTEX
  8
0
 10
44.000000
 20
40.375000
 42
0.050109
  0
VERTEX
  8
0
 10
44.109748
 20
39.282664
 42
0.121823
  0
VERTEX
  8
0
 10
44.454314
 20
38.555902
 42
0.142712
  0
VERTEX
  8
0
 10
45.056406
 20
38.142118
 42
0.079820
  0
VERTEX
  8
0
 10
45.940983
 20
38.000000
 42
-0.039373
  0
VERTEX
  8
0
 10
46.721711
 20
37.938425
 42
-0.042446
  0
VERTEX
  8
0
 10
47.463080
 20
37.755227
 42
-0.046573
  0
VERTEX
  8
0
 10
48.063566
 20
37.486941
 42
-0.126663
  0
VERTEX
  8
0
 10
48.396955
 20
37.166731
 42
0.190128
  0
VERTEX
  8
0
 10
48.790281
 20
36.872993
 42
0.039397
  0
VERTEX
  8
0
 10
49.654849
 20
36.709473
 42
0.036223
  0
VERTEX
  8
0
 10
50.752721
 20
36.670198
 42
0.027275
  0
VERTEX
  8
0
 10
51.955972
 20
36.780230
 42
0.036015
  0
VERTEX
  8
0
 10
53.360221
 20
37.090898
 42
0.091316
  0
VERTEX
  8
0
 10
54.287398
 20
37.564038
 42
0.125313
  0
VERTEX
  8
0
 10
54.812627
 20
38.230425
 42
0.104923
  0
VERTEX
  8
0
 10
55.000000
 20
39.113499
 42
-0.093422
  0
VERTEX
  8
0
 10
55.225786
 20
40.311367
 42
-0.217700
  0
VERTEX
  8
0
 10
55.866889
 20
40.932374
 42
-0.237946
  0
VERTEX
  8
0
 10
56.706830
 20
40.825605
 42
-0.106293
  0
VERTEX
  8
0
 10
57.500000
 20
40.000000
 42
0.159640
  0
VERTEX
  8
0
 10
58.477712
 20
39.175458
 42
0.163630
  0
VERTEX
  8
0
 10
59.742978
 20
39.099933
 42
0.125997
  0
VERTEX
  8
0
 10
61.053634
 20
39.842448
 42
0.080531
  0
VERTEX
  8
0
 10
62.110325
 20
41.250000
 42
0.002356
  0
VERTEX
  8
0
 10
62.906555
 20
42.784879
 42
0.385044
  0
VERTEX
  8
0
 10
62.861177
 20
42.954590
 42
0.334479
  0
VERTEX
  8
0
 10
62.671964
 20
42.941109
 42
0.002130
  0
VERTEX
  8
0
 10
61.325545
 20
41.757943
 42
-0.024539
  0
VERTEX
  8
0
 10
60.081885
 20
40.760154
 42
-0.170120
  0
VERTEX
  8
0
 10
59.344645
 20
40.540104
 42
-0.156985
  0
VERTEX
  8
0
 10
58.599784
 20
40.819096
 42
-0.020056
  0
VERTEX
  8
0
 10
57.286485
 20
41.947725
 42
0.043042
  0
VERTEX
  8
0
 10
55.719717
 20
43.173760
 42
0.272656
  0
VERTEX
  8
0
 10
54.748783
 20
43.218058
 42
0.240213
  0
VERTEX
  8
0
 10
54.152667
 20
42.369717
 42
0.035273
  0
VERTEX
  8
0
 10
54.000000
 20
40.208333
 42
-0.038618
  0
VERTEX
  8
0
 10
53.893565
 20
38.832341
 42
-0.225154
  0
VERTEX
  8
0
 10
53.495763
 20
38.247514
 42
-0.164354
  0
VERTEX
  8
0
 10
52.699187
 20
38.082086
 42
-0.019093
  0
VERTEX
  8
0
 10
50.875000
 20
38.375000
 42
0.007567
  0
VERTEX
  8
0
 10
49.576865
 20
38.614255
 42
0.007370
  0
VERTEX
  8
0
 10
48.260591
 20
38.816406
 42
0.007298
  0
VERTEX
  8
0
 10
47.099160
 20
38.960050
 42
0.027121
  0
VERTEX
  8
0
 10
46.363182
 20
39.000000
 42
-0.185710
  0
VERTEX
  8
0
 10
45.750586
 20
39.235658
 42
-0.161589
  0
VERTEX
  8
0
 10
45.409676
 20
39.836750
 42
-0.072545
  0
VERTEX
  8
0
 10
45.352707
 20
40.960060
 42
-0.016101
  0
VERTEX
  8
0
 10
45.595907
 20
42.874405
 42
0.024826
  0
VERTEX
  8
0
 10
45.763078
 20
44.403106
 42
0.034021
  0
VERTEX
  8
0
 10
45.750993
 20
45.786607
 42
0.036241
  0
VERTEX
  8
0
 10
45.587570
 20
46.873792
 42
0.201557
  0
VERTEX
  8
0
 10
45.252182
 20
47.344143
 42
0.293939
  0
VERTEX
  8
0
 10
44.908104
 20
47.337880
 42
0.173366
  0
VERTEX
  8
0
 10
44.654322
 20
46.995241
 42
0.074440
  0
VERTEX
  8
0
 10
44.546184
 20
46.257676
 42
0.028497
  0
VERTEX
  8
0
 10
44.608541
 20
45.219738
 42
-0.007422
  0
VERTEX
  8
0
 10
44.712584
 20
44.204654
 42
-0.094511
  0
VERTEX
  8
0
 10
44.674055
 20
43.825105
 42
-0.707759
  0
VERTEX
  8
0
 10
44.565768
 20
43.819757
 42
-0.024603
  0
VERTEX
  8
0
 10
44.362807
 20
44.395147
 42
0.026138
  0
VERTEX
  8
0
 10
44.051988
 20
45.267770
 42
0.188516
  0
VERTEX
  8
0
 10
43.747994
 20
45.583098
 42
0.312072
  0
VERTEX
  8
0
 10
43.414863
 20
45.524558
 42
0.059641
  0
VERTEX
  8
0
 10
43.010526
 20
45.017032
 42
-0.182369
  0
VERTEX
  8
0
 10
42.128375
 20
44.337395
 42
-0.224802
  0
VERTEX
  8
0
 10
41.112095
 20
44.487432
 42
-0.152496
  0
VERTEX
  8
0
 10
40.290127
 20
45.505322
 42
-0.094442
  0
VERTEX
  8
0
 10
40.000000
 20
47.027632
 42
-0.052399
  0
VERTEX
  8
0
 10
40.089938
 20
47.883476
 42
-0.179156
  0
VERTEX
  8
0
 10
40.384255
 20
48.348821
 42
-0.194370
  0
VERTEX
  8
0
 10
40.891997
 20
48.488436
 42
-0.062781
  0
VERTEX
  8
0
 10
41.664045
 20
48.298676
 42
0.026179
  0
VERTEX
  8
0
 10
42.386586
 20
48.063986
 42
0.196415
  0
VERTEX
  8
0
 10
42.736436
 20
48.108364
 42
0.357523
  0
VERTEX
  8
0
 10
42.829264
 20
48.347692
 42
0.059284
  0
VERTEX
  8
0
 10
42.605028
 20
48.830061
 42
0.132788
  0
VERTEX
  8
0
 10
41.529739
 20
49.838223
 42
0.241401
  0
VERTEX
  8
0
 10
40.354686
 20
49.856343
 42
0.170513
  0
VERTEX
  8
0
 10
39.341751
 20
48.821499
 42
0.072927
  0
SEQEND
  0
POLYLINE
  8
0
 66
1
 70
1
  0
VERTEX
  8
0
 10
46.606989
 20
35.418213
 42
0.033729
  0
VERTEX
  8
0
 10
46.102230
 20
33.780516
 42
0.159271
  0
VERTEX
  8
0
 10
46.183959
 20
32.813869
 42
0.155359
  0
VERTEX
  8
0
 10
46.822688
 20
32.068480
 42
0.031642
  0
VERTEX
  8
0
 10
48.375168
 20
31.238831
 42
0.036006
  0
VERTEX
  8
0
 10
49.739958
 20
30.732049
 42
0.178901
  0
VERTEX
  8
0
 10
50.542538
 20
30.788719
 42
0.159740
  0
VERTEX
  8
0
 10
51.168015
 20
31.361387
 42
0.027255
  0
VERTEX
  8
0
 10
51.891419
 20
32.828316
 42
0.002088
  0
VERTEX
  8
0
 10
52.584831
 20
34.470799
 42
0.167304
  0
VERTEX
  8
0
 10
52.602362
 20
34.745374
 42
0.609376
  0
VERTEX
  8
0
 10
52.476034
 20
34.772096
 42
0.004629
  0
VERTEX
  8
0
 10
51.643306
 20
33.732629
 42
-0.120245
  0
VERTEX
  8
0
 10
50.254367
 20
32.642832
 42
-0.190713
  0
VERTEX
  8
0
 10
48.763592
 20
32.569641
 42
-0.226482
  0
VERTEX
  8
0
 10
47.802125
 20
33.508105
 42
-0.153139
  0
VERTEX
  8
0
 10
47.727140
 20
35.064583
 42
0.031936
  0
VERTEX
  8
0
 10
48.006116
 20
36.500239
 42
0.363069
  0
VERTEX
  8
0
 10
47.717251
 20
36.952439
 42
0.360196
  0
VERTEX
  8
0
 10
47.217661
 20
36.749609
 42
0.031827
  0
SEQEND
  0
POLYLINE
  8
0
 66
1
 70
1
  0
VERTEX
  8
0
 10
6.000000
 20
34.440983
 42
0.067432
  0
VERTEX
  8
0
 10
6.074611
 20
33.890269
 42
0.140899
  0
VERTEX
  8
0
 10
6.298542
 20
33.524436
 42
0.190788
  0
VERTEX
  8
0
 10
6.630360
 20
33.397824
 42
0.136093
  0
VERTEX
  8
0
 10
7.016312
 20
33.510081
 42
0.090427
  0
VERTEX
  8
0
 10
7.360589
 20
33.820631
 42
0.095498
  0
VERTEX
  8
0
 10
7.565079
 20
34.227140
 42
0.099685
  0
VERTEX
  8
0
 10
7.598899
 20
34.665803
 42
0.108373
  0
VERTEX
  8
0
 10
7.457295
 20
35.069098
 42
0.050477
  0
VERTEX
  8
0
 10
6.866860
 20
35.838655
 42
0.315493
  0
VERTEX
  8
0
 10
6.407182
 20
35.933879
 42
0.257010
  0
VERTEX
  8
0
 10
6.085158
 20
35.519563
 42
0.039415
  0
SEQEND
  0
ENDSEC
  0
EOF
