  0
SECTION
  2
HEADER
  9
$ACADVER
  1
AC1006
  9
$EXTMIN
 10
0.000000
 20
0.000000
 30
0.000000
  9
$EXTMAX
 10
200.000000
 20
206.000000
 30
0.000000
  0
ENDSEC
  0
SECTION
  2
ENTITIES
  0
POLYLINE
  8
0
 66
1
 70
1
  0
VERTEX
  8
0
 10
110.000000
 20
183.500000
 42
0.000000
  0
VERTEX
  8
0
 10
110.000000
 20
166.000000
 42
0.000000
  0
VERTEX
  8
0
 10
93.358263
 20
166.000000
 42
0.000000
  0
VERTEX
  8
0
 10
76.716526
 20
166.000000
 42
0.000000
  0
VERTEX
  8
0
 10
74.108263
 20
168.778881
 42
-0.003922
  0
VERTEX
  8
0
 10
72.874424
 20
170.114270
 42
-0.001824
  0
VERTEX
  8
0
 10
71.293379
 20
171.865392
 42
-0.001806
  0
VERTEX
  8
0
 10
69.646778
 20
173.715960
 42
-0.002521
  0
VERTEX
  8
0
 10
68.188348
 20
175.383895
 42
0.015659
  0
VERTEX
  8
0
 10
66.875688
 20
176.807827
 42
0.026071
  0
VERTEX
  8
0
 10
65.674098
 20
177.910707
 42
0.024331
  0
VERTEX
  8
0
 10
64.682496
 20
178.651784
 42
0.358964
  0
VERTEX
  8
0
 10
64.279604
 20
178.612938
 42
0.361906
  0
VERTEX
  8
0
 10
64.237759
 20
178.153940
 42
0.007998
  0
VERTEX
  8
0
 10
65.627061
 20
176.206102
 42
0.014361
  0
VERTEX
  8
0
 10
67.439055
 20
173.891895
 42
0.008733
  0
VERTEX
  8
0
 10
69.705159
 20
171.257923
 42
0.000000
  0
VERTEX
  8
0
 10
75.727805
 20
164.500000
 42
0.000000
  0
VERTEX
  8
0
 10
93.669599
 20
164.228193
 42
0.000000
  0
VERTEX
  8
0
 10
111.611393
 20
163.956385
 42
0.000000
  0
VERTEX
  8
0
 10
116.806445
 20
158.695990
 42
-0.014615
  0
VERTEX
  8
0
 10
120.028288
 20
155.237021
 42
-0.073275
  0
VERTEX
  8
0
 10
121.462605
 20
153.020819
 42
-0.065602
  0
VERTEX
  8
0
 10
122.271265
 20
150.379500
 42
-0.010336
  0
VERTEX
  8
0
 10
123.060285
 20
144.991594
 42
0.004194
  0
VERTEX
  8
0
 10
123.497935
 20
141.723548
 42
0.006415
  0
VERTEX
  8
0
 10
123.937440
 20
138.898632
 42
0.002624
  0
VERTEX
  8
0
 10
124.355628
 20
136.497340
 42
0.153112
  0
VERTEX
  8
0
 10
124.559537
 20
136.107130
 42
0.470877
  0
VERTEX
  8
0
 10
125.340000
 20
136.181308
 42
0.133183
  0
VERTEX
  8
0
 10
125.798381
 20
137.514880
 42
0.039183
  0
VERTEX
  8
0
 10
125.759908
 20
140.704466
 42
0.010656
  0
VERTEX
  8
0
 10
125.197421
 20
145.719277
 42
0.000000
  0
VERTEX
  8
0
 10
124.034418
 20
154.411463
 42
0.000000
  0
VERTEX
  8
0
 10
118.017209
 20
160.482637
 42
0.000000
  0
VERTEX
  8
0
 10
112.000000
 20
166.553811
 42
0.000000
  0
VERTEX
  8
0
 10
112.000000
 20
181.276905
 42
-0.003153
  0
VERTEX
  8
0
 10
112.051023
 20
189.367691
 42
-0.022233
  0
VERTEX
  8
0
 10
112.275470
 20
193.296151
 42
-0.048312
  0
VERTEX
  8
0
 10
112.698931
 20
195.405952
 42
-0.330326
  0
VERTEX
  8
0
 10
113.500000
 20
196.000000
 42
0.099038
  0
VERTEX
  8
0
 10
114.072457
 20
196.114514
 42
0.097945
  0
VERTEX
  8
0
 10
114.559375
 20
196.440625
 42
0.097945
  0
VERTEX
  8
0
 10
114.885486
 20
196.927543
 42
0.099038
  0
VERTEX
  8
0
 10
115.000000
 20
197.500000
 42
-0.361014
  0
VERTEX
  8
0
 10
115.694318
 20
198.336294
 42
-0.028543
  0
VERTEX
  8
0
 10
118.772947
 20
198.732259
 42
-0.015665
  0
VERTEX
  8
0
 10
124.320660
 20
198.951606
 42
-0.002048
  0
VERTEX
  8
0
 10
136.137681
 20
199.000000
 42
0.000000
  0
VERTEX
  8
0
 10
157.275363
 20
199.000000
 42
0.000000
  0
VERTEX
  8
0
 10
156.628946
 20
193.500000
 42
0.008798
  0
VERTEX
  8
0
 10
156.325308
 20
190.455273
 42
0.064570
  0
VERTEX
  8
0
 10
156.394151
 20
188.996598
 42
0.179750
  0
VERTEX
  8
0
 10
156.814578
 20
188.282038
 42
0.172498
  0
VERTEX
  8
0
 10
157.607761
 20
188.000000
 42
-0.195140
  0
VERTEX
  8
0
 10
158.408413
 20
187.675151
 42
-0.165985
  0
VERTEX
  8
0
 10
158.824876
 20
186.857219
 42
-0.055312
  0
VERTEX
  8
0
 10
158.878170
 20
185.164445
 42
-0.006912
  0
VERTEX
  8
0
 10
158.536903
 20
181.500000
 42
0.005257
  0
VERTEX
  8
0
 10
158.131657
 20
177.299151
 42
0.083283
  0
VERTEX
  8
0
 10
158.246686
 20
175.873759
 42
0.254931
  0
VERTEX
  8
0
 10
158.843768
 20
175.227590
 42
0.083063
  0
VERTEX
  8
0
 10
160.170406
 20
175.013655
 42
0.033711
  0
VERTEX
  8
0
 10
163.055028
 20
175.225352
 42
0.071574
  0
VERTEX
  8
0
 10
165.199983
 20
175.850409
 42
0.107623
  0
VERTEX
  8
0
 10
166.521239
 20
176.835951
 42
0.180806
  0
VERTEX
  8
0
 10
167.000000
 20
178.116631
 42
-0.078143
  0
VERTEX
  8
0
 10
167.113134
 20
178.836097
 42
-0.090403
  0
VERTEX
  8
0
 10
167.440625
 20
179.446760
 42
-0.100781
  0
VERTEX
  8
0
 10
167.927933
 20
179.855006
 42
-0.124756
  0
VERTEX
  8
0
 10
168.500000
 20
180.000000
 42
0.130775
  0
VERTEX
  8
0
 10
169.075754
 20
180.153209
 42
0.102140
  0
VERTEX
  8
0
 10
169.562500
 20
180.583333
 42
0.088920
  0
VERTEX
  8
0
 10
169.888136
 20
181.230589
 42
0.072314
  0
VERTEX
  8
0
 10
170.000000
 20
182.000000
 42
-0.072314
  0
VERTEX
  8
0
 10
170.111864
 20
182.769411
 42
-0.088920
  0
VERTEX
  8
0
 10
170.437500
 20
183.416667
 42
-0.102140
  0
VERTEX
  8
0
 10
170.924246
 20
183.846791
 42
-0.130775
  0
VERTEX
  8
0
 10
171.500000
 20
184.000000
 42
0.099038
  0
VERTEX
  8
0
 10
172.072457
 20
184.114514
 42
0.097945
  0
VERTEX
  8
0
 10
172.559375
 20
184.440625
 42
0.097945
  0
VERTEX
  8
0
 10
172.885486
 20
184.927543
 42
0.099038
  0
VERTEX
  8
0
 10
173.000000
 20
185.500000
 42
-0.164293
  0
VERTEX
  8
0
 10
173.226074
 20
186.169448
 42
-0.129352
  0
VERTEX
  8
0
 10
173.833333
 20
186.642857
 42
-0.075863
  0
VERTEX
  8
0
 10
174.895967
 20
186.918107
 42
-0.025511
  0
VERTEX
  8
0
 10
176.500000
 20
187.000000
 42
0.023974
  0
VERTEX
  8
0
 10
178.709242
 20
187.105988
 42
0.206324
  0
VERTEX
  8
0
 10
179.555556
 20
187.571429
 42
0.154453
  0
VERTEX
  8
0
 10
179.929858
 20
188.582500
 42
0.012019
  0
VERTEX
  8
0
 10
180.000000
 20
191.500000
 42
-0.013964
  0
VERTEX
  8
0
 10
180.069261
 20
193.979415
 42
-0.090841
  0
VERTEX
  8
0
 10
180.361111
 20
195.187500
 42
-0.188085
  0
VERTEX
  8
0
 10
180.964475
 20
195.785276
 42
-0.102588
  0
VERTEX
  8
0
 10
182.000000
 20
196.000000
 42
0.072314
  0
VERTEX
  8
0
 10
182.769411
 20
196.111864
 42
0.088920
  0
VERTEX
  8
0
 10
183.416667
 20
196.437500
 42
0.102140
  0
VERTEX
  8
0
 10
183.846791
 20
196.924246
 42
0.130775
  0
VERTEX
  8
0
 10
184.000000
 20
197.500000
 42
-0.152103
  0
VERTEX
  8
0
 10
184.202091
 20
198.148955
 42
-0.126510
  0
VERTEX
  8
0
 10
184.750000
 20
198.625000
 42
-0.082504
  0
VERTEX
  8
0
 10
185.677925
 20
198.911037
 42
-0.033607
  0
VERTEX
  8
0
 10
187.000000
 20
199.000000
 42
-0.033607
  0
VERTEX
  8
0
 10
188.322075
 20
198.911037
 42
-0.082504
  0
VERTEX
  8
0
 10
189.250000
 20
198.625000
 42
-0.126510
  0
VERTEX
  8
0
 10
189.797909
 20
198.148955
 42
-0.152103
  0
VERTEX
  8
0
 10
190.000000
 20
197.500000
 42
0.130775
  0
VERTEX
  8
0
 10
190.153209
 20
196.924246
 42
0.102140
  0
VERTEX
  8
0
 10
190.583333
 20
196.437500
 42
0.088920
  0
VERTEX
  8
0
 10
191.230589
 20
196.111864
 42
0.072314
  0
VERTEX
  8
0
 10
192.000000
 20
196.000000
 42
-0.072254
  0
VERTEX
  8
0
 10
192.873159
 20
195.873159
 42
-0.124864
  0
VERTEX
  8
0
 10
193.500000
 20
195.500000
 42
-0.124864
  0
VERTEX
  8
0
 10
193.873159
 20
194.873159
 42
-0.072254
  0
VERTEX
  8
0
 10
194.000000
 20
194.000000
 42
0.072254
  0
VERTEX
  8
0
 10
194.126841
 20
193.126841
 42
0.124864
  0
VERTEX
  8
0
 10
194.500000
 20
192.500000
 42
0.124864
  0
VERTEX
  8
0
 10
195.126841
 20
192.126841
 42
0.072254
  0
VERTEX
  8
0
 10
196.000000
 20
192.000000
 42
-0.341614
  0
VERTEX
  8
0
 10
197.204913
 20
191.068005
 42
-0.047946
  0
VERTEX
  8
0
 10
197.734375
 20
187.750000
 42
-0.014718
  0
VERTEX
  8
0
 10
197.963027
 20
180.820552
 42
-0.000888
  0
VERTEX
  8
0
 10
198.000000
 20
160.000000
 42
-0.000888
  0
VERTEX
  8
0
 10
197.963027
 20
139.179448
 42
-0.014718
  0
VERTEX
  8
0
 10
197.734375
 20
132.250000
 42
-0.047946
  0
VERTEX
  8
0
 10
197.204913
 20
128.931995
 42
-0.341614
  0
VERTEX
  8
0
 10
196.000000
 20
128.000000
 42
0.072254
  0
VERTEX
  8
0
 10
195.126841
 20
127.873159
 42
0.124864
  0
VERTEX
  8
0
 10
194.500000
 20
127.500000
 42
0.124864
  0
VERTEX
  8
0
 10
194.126841
 20
126.873159
 42
0.072254
  0
VERTEX
  8
0
 10
194.000000
 20
126.000000
 42
0.072254
  0
VERTEX
  8
0
 10
194.126841
 20
125.126841
 42
0.124864
  0
VERTEX
  8
0
 10
194.500000
 20
124.500000
 42
0.124864
  0
VERTEX
  8
0
 10
195.126841
 20
124.126841
 42
0.072254
  0
VERTEX
  8
0
 10
196.000000
 20
124.000000
 42
-0.048028
  0
VERTEX
  8
0
 10
196.765418
 20
123.926307
 42
-0.068025
  0
VERTEX
  8
0
 10
197.412500
 20
123.706250
 42
-0.088204
  0
VERTEX
  8
0
 10
197.848523
 20
123.381882
 42
-0.191087
  0
VERTEX
  8
0
 10
198.000000
 20
123.000000
 42
-0.191087
  0
VERTEX
  8
0
 10
197.848523
 20
122.618118
 42
-0.088204
  0
VERTEX
  8
0
 10
197.412500
 20
122.293750
 42
-0.068025
  0
VERTEX
  8
0
 10
196.765418
 20
122.073693
 42
-0.048028
  0
VERTEX
  8
0
 10
196.000000
 20
122.000000
 42
0.072314
  0
VERTEX
  8
0
 10
195.230589
 20
121.888136
 42
0.088920
  0
VERTEX
  8
0
 10
194.583333
 20
121.562500
 42
0.102140
  0
VERTEX
  8
0
 10
194.153209
 20
121.075754
 42
0.130775
  0
VERTEX
  8
0
 10
194.000000
 20
120.500000
 42
-0.064853
  0
VERTEX
  8
0
 10
193.925306
 20
119.926543
 42
-0.082425
  0
VERTEX
  8
0
 10
193.706250
 20
119.440625
 42
-0.098894
  0
VERTEX
  8
0
 10
193.381354
 20
119.115568
 42
-0.148195
  0
VERTEX
  8
0
 10
193.000000
 20
119.000000
 42
0.254951
  0
VERTEX
  8
0
 10
192.615738
 20
118.790443
 42
0.062710
  0
VERTEX
  8
0
 10
192.293750
 20
118.118750
 42
0.048861
  0
VERTEX
  8
0
 10
192.072766
 20
117.149251
 42
0.031626
  0
VERTEX
  8
0
 10
192.000000
 20
116.000000
 42
0.000000
  0
VERTEX
  8
0
 10
192.000000
 20
113.000000
 42
0.000000
  0
VERTEX
  8
0
 10
177.500000
 20
113.000000
 42
0.000000
  0
VERTEX
  8
0
 10
163.000000
 20
113.000000
 42
0.000000
  0
VERTEX
  8
0
 10
162.929715
 20
95.750000
 42
-0.003630
  0
VERTEX
  8
0
 10
162.853433
 20
89.019917
 42
-0.005260
  0
VERTEX
  8
0
 10
162.680410
 20
83.078548
 42
-0.002802
  0
VERTEX
  8
0
 10
162.453419
 20
78.064115
 42
-0.084468
  0
VERTEX
  8
0
 10
162.179715
 20
76.836547
 42
-0.063765
  0
VERTEX
  8
0
 10
161.605169
 20
75.821982
 42
-0.004762
  0
VERTEX
  8
0
 10
159.673893
 20
73.292824
 42
-0.006534
  0
VERTEX
  8
0
 10
157.294657
 20
70.318796
 42
-0.004916
  0
VERTEX
  8
0
 10
154.603751
 20
67.108721
 42
-0.027428
  0
VERTEX
  8
0
 10
149.263862
 20
61.516484
 42
-0.023028
  0
VERTEX
  8
0
 10
143.034014
 20
56.187840
 42
-0.019457
  0
VERTEX
  8
0
 10
137.151525
 20
51.964876
 42
-0.149280
  0
VERTEX
  8
0
 10
133.930282
 20
51.012901
 42
-0.054877
  0
VERTEX
  8
0
 10
133.051061
 20
51.117725
 42
-0.005911
  0
VERTEX
  8
0
 10
131.058036
 20
51.605723
 42
-0.007207
  0
VERTEX
  8
0
 10
128.692967
 20
52.251030
 42
-0.005747
  0
VERTEX
  8
0
 10
126.160906
 20
53.012901
 42
0.048779
  0
VERTEX
  8
0
 10
119.750489
 20
54.354355
 42
0.017774
  0
VERTEX
  8
0
 10
110.487613
 20
55.034159
 42
0.008965
  0
VERTEX
  8
0
 10
101.219804
 20
55.217543
 42
0.414757
  0
VERTEX
  8
0
 10
100.000000
 20
54.000000
 42
0.332234
  0
VERTEX
  8
0
 10
100.292067
 20
53.608967
 42
0.026982
  0
VERTEX
  8
0
 10
101.615625
 20
53.293750
 42
0.027868
  0
VERTEX
  8
0
 10
103.391660
 20
53.072146
 42
0.017105
  0
VERTEX
  8
0
 10
105.500000
 20
53.000000
 42
-0.008002
  0
VERTEX
  8
0
 10
109.082489
 20
52.942664
 42
-0.117370
  0
VERTEX
  8
0
 10
110.291667
 20
52.613636
 42
-0.230406
  0
VERTEX
  8
0
 10
110.847929
 20
51.832050
 42
-0.041432
  0
VERTEX
  8
0
 10
111.000000
 20
50.000000
 42
0.030723
  0
VERTEX
  8
0
 10
111.103846
 20
48.311537
 42
0.167168
  0
VERTEX
  8
0
 10
111.500000
 20
47.500000
 42
0.167168
  0
VERTEX
  8
0
 10
112.311537
 20
47.103846
 42
0.030723
  0
VERTEX
  8
0
 10
114.000000
 20
47.000000
 42
0.000000
  0
VERTEX
  8
0
 10
117.000000
 20
47.000000
 42
0.000000
  0
VERTEX
  8
0
 10
117.000000
 20
27.000000
 42
0.000000
  0
VERTEX
  8
0
 10
117.000000
 20
7.000000
 42
0.000000
  0
VERTEX
  8
0
 10
114.000000
 20
7.000000
 42
0.030723
  0
VERTEX
  8
0
 10
112.311537
 20
6.896154
 42
0.167168
  0
VERTEX
  8
0
 10
111.500000
 20
6.500000
 42
0.167168
  0
VERTEX
  8
0
 10
111.103846
 20
5.688463
 42
0.030723
  0
VERTEX
  8
0
 10
111.000000
 20
4.000000
 42
0.000000
  0
VERTEX
  8
0
 10
111.000000
 20
1.000000
 42
0.000000
  0
VERTEX
  8
0
 10
91.500000
 20
1.000000
 42
0.000000
  0
VERTEX
  8
0
 10
72.000000
 20
1.000000
 42
0.000000
  0
VERTEX
  8
0
 10
72.000000
 20
4.500000
 42
0.021868
  0
VERTEX
  8
0
 10
71.906903
 20
6.627612
 42
0.176278
  0
VERTEX
  8
0
 10
71.500000
 20
7.500000
 42
0.176278
  0
VERTEX
  8
0
 10
70.627612
 20
7.906903
 42
0.021868
  0
VERTEX
  8
0
 10
68.500000
 20
8.000000
 42
0.000000
  0
VERTEX
  8
0
 10
65.000000
 20
8.000000
 42
0.000000
  0
VERTEX
  8
0
 10
65.000000
 20
27.500000
 42
0.000000
  0
VERTEX
  8
0
 10
65.000000
 20
47.000000
 42
0.000000
  0
VERTEX
  8
0
 10
68.000000
 20
47.000000
 42
0.030723
  0
VERTEX
  8
0
 10
69.688463
 20
47.103846
 42
0.167168
  0
VERTEX
  8
0
 10
70.500000
 20
47.500000
 42
0.167168
  0
VERTEX
  8
0
 10
70.896154
 20
48.311537
 42
0.030723
  0
VERTEX
  8
0
 10
71.000000
 20
50.000000
 42
0.000000
  0
VERTEX
  8
0
 10
71.000000
 20
53.000000
 42
0.000000
  0
VERTEX
  8
0
 10
77.000000
 20
53.000000
 42
0.010614
  0
VERTEX
  8
0
 10
80.035942
 20
53.064452
 42
0.050675
  0
VERTEX
  8
0
 10
81.750000
 20
53.312500
 42
0.113455
  0
VERTEX
  8
0
 10
82.662288
 20
53.776970
 42
0.222027
  0
VERTEX
  8
0
 10
83.000000
 20
54.500000
 42
0.289633
  0
VERTEX
  8
0
 10
82.513638
 20
55.269186
 42
0.073509
  0
VERTEX
  8
0
 10
81.034149
 20
55.720965
 42
0.031270
  0
VERTEX
  8
0
 10
78.231575
 20
55.965678
 42
0.005044
  0
VERTEX
  8
0
 10
72.750000
 20
56.045104
 42
-0.010487
  0
VERTEX
  8
0
 10
68.603011
 20
56.150351
 42
-0.012304
  0
VERTEX
  8
0
 10
64.680043
 20
56.429170
 42
-0.011536
  0
VERTEX
  8
0
 10
61.391342
 20
56.821158
 42
-0.066564
  0
VERTEX
  8
0
 10
59.709222
 20
57.295104
 42
-0.084390
  0
VERTEX
  8
0
 10
58.245220
 20
58.245818
 42
-0.037813
  0
VERTEX
  8
0
 10
56.674389
 20
59.929029
 42
-0.029786
  0
VERTEX
  8
0
 10
54.982613
 20
62.320279
 42
-0.015249
  0
VERTEX
  8
0
 10
53.137955
 20
65.500000
 42
0.000000
  0
VERTEX
  8
0
 10
49.357466
 20
72.500000
 42
0.000000
  0
VERTEX
  8
0
 10
40.678733
 20
72.788933
 42
0.000000
  0
VERTEX
  8
0
 10
32.000000
 20
73.077866
 42
0.000000
  0
VERTEX
  8
0
 10
32.000000
 20
81.500000
 42
0.000000
  0
VERTEX
  8
0
 10
32.000000
 20
89.922134
 42
0.000000
  0
VERTEX
  8
0
 10
40.750000
 20
90.211067
 42
0.000000
  0
VERTEX
  8
0
 10
49.500000
 20
90.500000
 42
0.000000
  0
VERTEX
  8
0
 10
53.159701
 20
97.464551
 42
-0.012863
  0
VERTEX
  8
0
 10
55.182501
 20
101.084708
 42
-0.043908
  0
VERTEX
  8
0
 10
56.755794
 20
103.274429
 42
-0.065415
  0
VERTEX
  8
0
 10
58.306461
 20
104.660374
 42
-0.065781
  0
VERTEX
  8
0
 10
60.159701
 20
105.595580
 42
-0.030877
  0
VERTEX
  8
0
 10
62.192995
 20
106.167602
 42
-0.122976
  0
VERTEX
  8
0
 10
63.477999
 20
106.126189
 42
-0.102505
  0
VERTEX
  8
0
 10
64.716379
 20
105.479528
 42
-0.018092
  0
VERTEX
  8
0
 10
66.695302
 20
103.737877
 42
-0.050076
  0
VERTEX
  8
0
 10
68.188183
 20
102.010949
 42
-0.020495
  0
VERTEX
  8
0
 10
69.867638
 20
99.401017
 42
-0.019202
  0
VERTEX
  8
0
 10
71.532767
 20
96.297176
 42
-0.017708
  0
VERTEX
  8
0
 10
73.003700
 20
92.990821
 42
0.010748
  0
VERTEX
  8
0
 10
75.014446
 20
88.296226
 42
0.062854
  0
VERTEX
  8
0
 10
76.419490
 20
86.013311
 42
0.082045
  0
VERTEX
  8
0
 10
78.187125
 20
84.432000
 42
0.025275
  0
VERTEX
  8
0
 10
81.308398
 20
82.663248
 42
0.015883
  0
VERTEX
  8
0
 10
87.752400
 20
79.682473
 42
0.017864
  0
VERTEX
  8
0
 10
94.127650
 20
77.240741
 42
0.010875
  0
VERTEX
  8
0
 10
99.736970
 20
75.454468
 42
0.274591
  0
VERTEX
  8
0
 10
101.236427
 20
75.836427
 42
0.339393
  0
VERTEX
  8
0
 10
101.302311
 20
76.336445
 42
0.102393
  0
VERTEX
  8
0
 10
100.758620
 20
76.947099
 42
0.052069
  0
VERTEX
  8
0
 10
99.591456
 20
77.639175
 42
0.019633
  0
VERTEX
  8
0
 10
97.834877
 20
78.365164
 42
0.000362
  0
VERTEX
  8
0
 10
95.763821
 20
79.125692
 42
0.000168
  0
VERTEX
  8
0
 10
93.069873
 20
80.111719
 42
0.000166
  0
VERTEX
  8
0
 10
90.237871
 20
81.146134
 42
0.000231
  0
VERTEX
  8
0
 10
87.700859
 20
82.070521
 42
-0.032435
  0
VERTEX
  8
0
 10
82.723837
 20
84.256190
 42
-0.073922
  0
VERTEX
  8
0
 10
79.406919
 20
86.655444
 42
-0.072450
  0
VERTEX
  8
0
 10
76.892022
 20
89.947507
 42
-0.030177
  0
VERTEX
  8
0
 10
74.467752
 20
95.000000
 42
0.018912
  0
VERTEX
  8
0
 10
73.241447
 20
97.710618
 42
0.015990
  0
VERTEX
  8
0
 10
71.747649
 20
100.480102
 42
0.016287
  0
VERTEX
  8
0
 10
70.221563
 20
102.918581
 42
0.042612
  0
VERTEX
  8
0
 10
68.928196
 20
104.528008
 42
0.000000
  0
VERTEX
  8
0
 10
66.037992
 20
107.556017
 42
0.000000
  0
VERTEX
  8
0
 10
71.623849
 20
111.918626
 42
0.000000
  0
VERTEX
  8
0
 10
77.209706
 20
116.281236
 42
0.000000
  0
VERTEX
  8
0
 10
84.354853
 20
114.963541
 42
-0.032546
  0
VERTEX
  8
0
 10
88.696508
 20
113.866776
 42
-0.018467
  0
VERTEX
  8
0
 10
93.791847
 20
112.010088
 42
-0.013541
  0
VERTEX
  8
0
 10
100.246653
 20
109.178153
 42
-0.005303
  0
VERTEX
  8
0
 10
109.000000
 20
104.937590
 42
0.004776
  0
VERTEX
  8
0
 10
116.194622
 20
101.442769
 42
0.005010
  0
VERTEX
  8
0
 10
123.340980
 20
98.142653
 42
0.004813
  0
VERTEX
  8
0
 10
129.563767
 20
95.416048
 42
0.022200
  0
VERTEX
  8
0
 10
133.245888
 20
94.034505
 42
-0.015007
  0
VERTEX
  8
0
 10
137.467897
 20
92.519293
 42
-0.080121
  0
VERTEX
  8
0
 10
139.568270
 20
91.275977
 42
-0.077985
  0
VERTEX
  8
0
 10
141.197373
 20
89.421389
 42
-0.013802
  0
VERTEX
  8
0
 10
143.574048
 20
85.433974
 42
0.000000
  0
VERTEX
  8
0
 10
147.156321
 20
79.028273
 42
0.000000
  0
VERTEX
  8
0
 10
145.119549
 20
76.167891
 42
-0.037711
  0
VERTEX
  8
0
 10
142.085522
 20
72.522795
 42
-0.033928
  0
VERTEX
  8
0
 10
138.435333
 20
69.233652
 42
-0.035568
  0
VERTEX
  8
0
 10
134.745947
 20
66.739390
 42
-0.084684
  0
VERTEX
  8
0
 10
131.651833
 20
65.594462
 42
0.027991
  0
VERTEX
  8
0
 10
128.367300
 20
64.785758
 42
0.473649
  0
VERTEX
  8
0
 10
127.997210
 20
63.882137
 42
0.287815
  0
VERTEX
  8
0
 10
129.163046
 20
63.223345
 42
0.024402
  0
VERTEX
  8
0
 10
132.750000
 20
63.564872
 42
0.027016
  0
VERTEX
  8
0
 10
136.341478
 20
64.284458
 42
0.088524
  0
VERTEX
  8
0
 10
138.535208
 20
65.286169
 42
0.056483
  0
VERTEX
  8
0
 10
140.731303
 20
67.203700
 42
0.006569
  0
VERTEX
  8
0
 10
145.074839
 20
72.086388
 42
0.000000
  0
VERTEX
  8
0
 10
150.098926
 20
77.885766
 42
0.000000
  0
VERTEX
  8
0
 10
148.049463
 20
81.903045
 42
-0.046765
  0
VERTEX
  8
0
 10
146.966585
 20
84.627796
 42
-0.042179
  0
VERTEX
  8
0
 10
146.362017
 20
87.602386
 42
-0.024223
  0
VERTEX
  8
0
 10
146.073544
 20
91.852535
 42
-0.004833
  0
VERTEX
  8
0
 10
146.000000
 20
99.460162
 42
0.000000
  0
VERTEX
  8
0
 10
146.000000
 20
113.000000
 42
0.000000
  0
VERTEX
  8
0
 10
129.000000
 20
113.000000
 42
0.000000
  0
VERTEX
  8
0
 10
112.000000
 20
113.000000
 42
0.000000
  0
VERTEX
  8
0
 10
112.000000
 20
130.500000
 42
0.000000
  0
VERTEX
  8
0
 10
112.000000
 20
148.000000
 42
0.000000
  0
VERTEX
  8
0
 10
102.000000
 20
148.000000
 42
0.008055
  0
VERTEX
  8
0
 10
97.918453
 20
147.934243
 42
0.016864
  0
VERTEX
  8
0
 10
94.750000
 20
147.725000
 42
0.012451
  0
VERTEX
  8
0
 10
92.367196
 20
147.426633
 42
0.371083
  0
VERTEX
  8
0
 10
92.000000
 20
147.000000
 42
0.365646
  0
VERTEX
  8
0
 10
92.355190
 20
146.579235
 42
0.014491
  0
VERTEX
  8
0
 10
94.500000
 20
146.277778
 42
0.018502
  0
VERTEX
  8
0
 10
97.360273
 20
146.066717
 42
0.009164
  0
VERTEX
  8
0
 10
101.000000
 20
146.000000
 42
0.000000
  0
VERTEX
  8
0
 10
110.000000
 20
146.000000
 42
0.000000
  0
VERTEX
  8
0
 10
110.000000
 20
128.500000
 42
0.000000
  0
VERTEX
  8
0
 10
110.000000
 20
111.000000
 42
0.000000
  0
VERTEX
  8
0
 10
127.500000
 20
111.000000
 42
0.000000
  0
VERTEX
  8
0
 10
145.000000
 20
111.000000
 42
0.000000
  0
VERTEX
  8
0
 10
145.000000
 20
98.778220
 42
0.000000
  0
VERTEX
  8
0
 10
145.000000
 20
86.556439
 42
0.000000
  0
VERTEX
  8
0
 10
142.750000
 20
89.826538
 42
0.057189
  0
VERTEX
  8
0
 10
141.192780
 20
91.613105
 42
0.055769
  0
VERTEX
  8
0
 10
139.258959
 20
93.017766
 42
0.037465
  0
VERTEX
  8
0
 10
136.455864
 20
94.343873
 42
0.010829
  0
VERTEX
  8
0
 10
131.946455
 20
95.966133
 42
-0.014410
  0
VERTEX
  8
0
 10
126.284834
 20
98.048803
 42
-0.016568
  0
VERTEX
  8
0
 10
121.014334
 20
100.367429
 42
-0.014508
  0
VERTEX
  8
0
 10
116.701878
 20
102.593885
 42
-0.110131
  0
VERTEX
  8
0
 10
115.000000
 20
104.101612
 42
0.103035
  0
VERTEX
  8
0
 10
114.556082
 20
104.506146
 42
0.002859
  0
VERTEX
  8
0
 10
112.296875
 20
105.823639
 42
0.005760
  0
VERTEX
  8
0
 10
109.601692
 20
107.333731
 42
0.003910
  0
VERTEX
  8
0
 10
106.500000
 20
108.993605
 42
-0.002715
  0
VERTEX
  8
0
 10
103.361153
 20
110.663726
 42
-0.003696
  0
VERTEX
  8
0
 10
100.549714
 20
112.206215
 42
-0.002458
  0
VERTEX
  8
0
 10
98.207752
 20
113.528887
 42
-0.041656
  0
VERTEX
  8
0
 10
97.477749
 20
114.030769
 42
0.096961
  0
VERTEX
  8
0
 10
96.699580
 20
114.448076
 42
0.004973
  0
VERTEX
  8
0
 10
93.946342
 20
115.266608
 42
0.007766
  0
VERTEX
  8
0
 10
90.629680
 20
116.161346
 42
0.005544
  0
VERTEX
  8
0
 10
86.891438
 20
117.063797
 42
0.005987
  0
VERTEX
  8
0
 10
79.848848
 20
118.592990
 42
0.102890
  0
VERTEX
  8
0
 10
77.501158
 20
118.585439
 42
0.117508
  0
VERTEX
  8
0
 10
75.455855
 20
117.617004
 42
0.008709
  0
VERTEX
  8
0
 10
70.665790
 20
113.634690
 42
-0.018153
  0
VERTEX
  8
0
 10
67.902953
 20
111.424636
 42
-0.027247
  0
VERTEX
  8
0
 10
65.327554
 20
109.722883
 42
-0.030122
  0
VERTEX
  8
0
 10
62.798460
 20
108.440721
 42
-0.031844
  0
VERTEX
  8
0
 10
60.179474
 20
107.498608
 42
0.064994
  0
VERTEX
  8
0
 10
58.208041
 20
106.638364
 42
0.072812
  0
VERTEX
  8
0
 10
56.607321
 20
105.326303
 42
0.046044
  0
VERTEX
  8
0
 10
54.958497
 20
103.142852
 42
0.011207
  0
VERTEX
  8
0
 10
52.664478
 20
99.248608
 42
0.000000
  0
VERTEX
  8
0
 10
48.610494
 20
92.000000
 42
0.000000
  0
VERTEX
  8
0
 10
39.305247
 20
92.000000
 42
0.000000
  0
VERTEX
  8
0
 10
30.000000
 20
92.000000
 42
0.000000
  0
VERTEX
  8
0
 10
30.000000
 20
81.500000
 42
0.000000
  0
VERTEX
  8
0
 10
30.000000
 20
71.000000
 42
0.000000
  0
VERTEX
  8
0
 10
39.263192
 20
71.000000
 42
0.000000
  0
VERTEX
  8
0
 10
48.526383
 20
71.000000
 42
0.000000
  0
VERTEX
  8
0
 10
52.076284
 20
64.250000
 42
0.037043
  0
VERTEX
  8
0
 10
55.073401
 20
59.450500
 42
0.078825
  0
VERTEX
  8
0
 10
58.173025
 20
56.376769
 42
0.090581
  0
VERTEX
  8
0
 10
61.771536
 20
54.668527
 42
0.062515
  0
VERTEX
  8
0
 10
66.250000
 20
54.048032
 42
-0.018569
  0
VERTEX
  8
0
 10
68.490212
 20
53.936061
 42
-0.149967
  0
VERTEX
  8
0
 10
69.433497
 20
53.554054
 42
-0.190819
  0
VERTEX
  8
0
 10
69.882226
 20
52.754071
 42
-0.033534
  0
VERTEX
  8
0
 10
70.000000
 20
51.000000
 42
-0.030723
  0
VERTEX
  8
0
 10
69.896154
 20
49.311537
 42
-0.167168
  0
VERTEX
  8
0
 10
69.500000
 20
48.500000
 42
-0.167168
  0
VERTEX
  8
0
 10
68.688463
 20
48.103846
 42
-0.030723
  0
VERTEX
  8
0
 10
67.000000
 20
48.000000
 42
0.000000
  0
VERTEX
  8
0
 10
64.000000
 20
48.000000
 42
0.000000
  0
VERTEX
  8
0
 10
64.000000
 20
27.500000
 42
0.000000
  0
VERTEX
  8
0
 10
64.000000
 20
7.000000
 42
0.000000
  0
VERTEX
  8
0
 10
67.500000
 20
7.000000
 42
-0.021868
  0
VERTEX
  8
0
 10
69.627612
 20
6.906903
 42
-0.176278
  0
VERTEX
  8
0
 10
70.500000
 20
6.500000
 42
-0.176278
  0
VERTEX
  8
0
 10
70.906903
 20
5.627612
 42
-0.021868
  0
VERTEX
  8
0
 10
71.000000
 20
3.500000
 42
0.000000
  0
VERTEX
  8
0
 10
71.000000
 20
0.000000
 42
0.000000
  0
VERTEX
  8
0
 10
91.500000
 20
0.000000
 42
0.000000
  0
VERTEX
  8
0
 10
112.000000
 20
0.000000
 42
0.000000
  0
VERTEX
  8
0
 10
112.000000
 20
3.000000
 42
-0.030723
  0
VERTEX
  8
0
 10
112.103846
 20
4.688463
 42
-0.167168
  0
VERTEX
  8
0
 10
112.500000
 20
5.500000
 42
-0.167168
  0
VERTEX
  8
0
 10
113.311537
 20
5.896154
 42
-0.030723
  0
VERTEX
  8
0
 10
115.000000
 20
6.000000
 42
0.000000
  0
VERTEX
  8
0
 10
118.000000
 20
6.000000
 42
0.000000
  0
VERTEX
  8
0
 10
118.000000
 20
27.000000
 42
0.000000
  0
VERTEX
  8
0
 10
118.000000
 20
48.000000
 42
0.000000
  0
VERTEX
  8
0
 10
115.000000
 20
48.000000
 42
-0.030103
  0
VERTEX
  8
0
 10
113.386401
 20
48.097235
 42
-0.144586
  0
VERTEX
  8
0
 10
112.550000
 20
48.458333
 42
-0.173074
  0
VERTEX
  8
0
 10
112.126572
 20
49.175563
 42
-0.047675
  0
VERTEX
  8
0
 10
112.000000
 20
50.500000
 42
-0.064271
  0
VERTEX
  8
0
 10
112.183591
 20
51.922364
 42
-0.218307
  0
VERTEX
  8
0
 10
112.761873
 20
52.627899
 42
-0.104087
  0
VERTEX
  8
0
 10
113.993450
 20
52.938309
 42
-0.009869
  0
VERTEX
  8
0
 10
117.118729
 20
53.000000
 42
-0.031296
  0
VERTEX
  8
0
 10
119.523243
 20
52.849351
 42
-0.015252
  0
VERTEX
  8
0
 10
122.562299
 20
52.372488
 42
-0.015064
  0
VERTEX
  8
0
 10
125.704805
 20
51.682062
 42
-0.021053
  0
VERTEX
  8
0
 10
128.462031
 20
50.863787
 42
0.000000
  0
VERTEX
  8
0
 10
134.686604
 20
48.727575
 42
0.000000
  0
VERTEX
  8
0
 10
142.093302
 20
53.759750
 42
0.014922
  0
VERTEX
  8
0
 10
147.367169
 20
57.577727
 42
0.027325
  0
VERTEX
  8
0
 10
151.387401
 20
61.040884
 42
0.025353
  0
VERTEX
  8
0
 10
155.197069
 20
65.094609
 42
0.011008
  0
VERTEX
  8
0
 10
159.858784
 20
70.839798
 42
0.000000
  0
VERTEX
  8
0
 10
164.000000
 20
76.179595
 42
0.000000
  0
VERTEX
  8
0
 10
164.000000
 20
93.589798
 42
0.000000
  0
VERTEX
  8
0
 10
164.000000
 20
111.000000
 42
0.000000
  0
VERTEX
  8
0
 10
179.000000
 20
111.000000
 42
0.000000
  0
VERTEX
  8
0
 10
194.000000
 20
111.000000
 42
0.000000
  0
VERTEX
  8
0
 10
194.013655
 20
113.750000
 42
-0.029768
  0
VERTEX
  8
0
 10
194.216104
 20
116.885147
 42
-0.070216
  0
VERTEX
  8
0
 10
194.826559
 20
119.141668
 42
-0.110653
  0
VERTEX
  8
0
 10
195.808751
 20
120.503546
 42
-0.183409
  0
VERTEX
  8
0
 10
197.116631
 20
121.000000
 42
0.082074
  0
VERTEX
  8
0
 10
197.919256
 20
121.132643
 42
0.122573
  0
VERTEX
  8
0
 10
198.514579
 20
121.515482
 42
0.117651
  0
VERTEX
  8
0
 10
198.876666
 20
122.146201
 42
0.071854
  0
VERTEX
  8
0
 10
199.000000
 20
123.000000
 42
0.072254
  0
VERTEX
  8
0
 10
198.873159
 20
123.873159
 42
0.124864
  0
VERTEX
  8
0
 10
198.500000
 20
124.500000
 42
0.124864
  0
VERTEX
  8
0
 10
197.873159
 20
124.873159
 42
0.072254
  0
VERTEX
  8
0
 10
197.000000
 20
125.000000
 42
-0.048028
  0
VERTEX
  8
0
 10
196.234582
 20
125.073693
 42
-0.068025
  0
VERTEX
  8
0
 10
195.587500
 20
125.293750
 42
-0.088204
  0
VERTEX
  8
0
 10
195.151477
 20
125.618118
 42
-0.191087
  0
VERTEX
  8
0
 10
195.000000
 20
126.000000
 42
-0.191087
  0
VERTEX
  8
0
 10
195.151477
 20
126.381882
 42
-0.088204
  0
VERTEX
  8
0
 10
195.587500
 20
126.706250
 42
-0.068025
  0
VERTEX
  8
0
 10
196.234582
 20
126.926307
 42
-0.048028
  0
VERTEX
  8
0
 10
197.000000
 20
127.000000
 42
0.344545
  0
VERTEX
  8
0
 10
198.209349
 20
127.945603
 42
0.045791
  0
VERTEX
  8
0
 10
198.734848
 20
131.375000
 42
0.014277
  0
VERTEX
  8
0
 10
198.963158
 20
138.511581
 42
0.000857
  0
VERTEX
  8
0
 10
199.000000
 20
160.000000
 42
0.000857
  0
VERTEX
  8
0
 10
198.963158
 20
181.488419
 42
0.014277
  0
VERTEX
  8
0
 10
198.734848
 20
188.625000
 42
0.045791
  0
VERTEX
  8
0
 10
198.209349
 20
192.054397
 42
0.344545
  0
VERTEX
  8
0
 10
197.000000
 20
193.000000
 42
-0.072254
  0
VERTEX
  8
0
 10
196.126841
 20
193.126841
 42
-0.124864
  0
VERTEX
  8
0
 10
195.500000
 20
193.500000
 42
-0.124864
  0
VERTEX
  8
0
 10
195.126841
 20
194.126841
 42
-0.072254
  0
VERTEX
  8
0
 10
195.000000
 20
195.000000
 42
0.072254
  0
VERTEX
  8
0
 10
194.873159
 20
195.873159
 42
0.124864
  0
VERTEX
  8
0
 10
194.500000
 20
196.500000
 42
0.124864
  0
VERTEX
  8
0
 10
193.873159
 20
196.873159
 42
0.072254
  0
VERTEX
  8
0
 10
193.000000
 20
197.000000
 42
-0.072314
  0
VERTEX
  8
0
 10
192.230589
 20
197.111864
 42
-0.088920
  0
VERTEX
  8
0
 10
191.583333
 20
197.437500
 42
-0.102140
  0
VERTEX
  8
0
 10
191.153209
 20
197.924246
 42
-0.130775
  0
VERTEX
  8
0
 10
191.000000
 20
198.500000
 42
0.176579
  0
VERTEX
  8
0
 10
190.750359
 20
199.184843
 42
0.128937
  0
VERTEX
  8
0
 10
190.083333
 20
199.656250
 42
0.069535
  0
VERTEX
  8
0
 10
188.888175
 20
199.923415
 42
0.020272
  0
VERTEX
  8
0
 10
187.000000
 20
200.000000
 42
0.020272
  0
VERTEX
  8
0
 10
185.111825
 20
199.923415
 42
0.069535
  0
VERTEX
  8
0
 10
183.916667
 20
199.656250
 42
0.128937
  0
VERTEX
  8
0
 10
183.249641
 20
199.184843
 42
0.176579
  0
VERTEX
  8
0
 10
183.000000
 20
198.500000
 42
-0.130775
  0
VERTEX
  8
0
 10
182.846791
 20
197.924246
 42
-0.102140
  0
VERTEX
  8
0
 10
182.416667
 20
197.437500
 42
-0.088920
  0
VERTEX
  8
0
 10
181.769411
 20
197.111864
 42
-0.072314
  0
VERTEX
  8
0
 10
181.000000
 20
197.000000
 42
0.102588
  0
VERTEX
  8
0
 10
179.964475
 20
196.785276
 42
0.188085
  0
VERTEX
  8
0
 10
179.361111
 20
196.187500
 42
0.090841
  0
VERTEX
  8
0
 10
179.069261
 20
194.979415
 42
0.013964
  0
VERTEX
  8
0
 10
179.000000
 20
192.500000
 42
-0.012019
  0
VERTEX
  8
0
 10
178.929858
 20
189.582500
 42
-0.154453
  0
VERTEX
  8
0
 10
178.555556
 20
188.571429
 42
-0.206324
  0
VERTEX
  8
0
 10
177.709242
 20
188.105988
 42
-0.023974
  0
VERTEX
  8
0
 10
175.500000
 20
188.000000
 42
0.025511
  0
VERTEX
  8
0
 10
173.895967
 20
187.918107
 42
0.075863
  0
VERTEX
  8
0
 10
172.833333
 20
187.642857
 42
0.129352
  0
VERTEX
  8
0
 10
172.226074
 20
187.169448
 42
0.164293
  0
VERTEX
  8
0
 10
172.000000
 20
186.500000
 42
-0.099038
  0
VERTEX
  8
0
 10
171.885486
 20
185.927543
 42
-0.097945
  0
VERTEX
  8
0
 10
171.559375
 20
185.440625
 42
-0.097945
  0
VERTEX
  8
0
 10
171.072457
 20
185.114514
 42
-0.099038
  0
VERTEX
  8
0
 10
170.500000
 20
185.000000
 42
0.130775
  0
VERTEX
  8
0
 10
169.924246
 20
184.846791
 42
0.102140
  0
VERTEX
  8
0
 10
169.437500
 20
184.416667
 42
0.088920
  0
VERTEX
  8
0
 10
169.111864
 20
183.769411
 42
0.072314
  0
VERTEX
  8
0
 10
169.000000
 20
183.000000
 42
-0.072314
  0
VERTEX
  8
0
 10
168.888136
 20
182.230589
 42
-0.088920
  0
VERTEX
  8
0
 10
168.562500
 20
181.583333
 42
-0.102140
  0
VERTEX
  8
0
 10
168.075754
 20
181.153209
 42
-0.130775
  0
VERTEX
  8
0
 10
167.500000
 20
181.000000
 42
0.124756
  0
VERTEX
  8
0
 10
166.927933
 20
180.855006
 42
0.100781
  0
VERTEX
  8
0
 10
166.440625
 20
180.446760
 42
0.090403
  0
VERTEX
  8
0
 10
166.113134
 20
179.836097
 42
0.078143
  0
VERTEX
  8
0
 10
166.000000
 20
179.116631
 42
-0.100847
  0
VERTEX
  8
0
 10
165.837853
 20
178.320885
 42
-0.083571
  0
VERTEX
  8
0
 10
165.371293
 20
177.591036
 42
-0.076890
  0
VERTEX
  8
0
 10
164.649875
 20
177.005527
 42
-0.066715
  0
VERTEX
  8
0
 10
163.750000
 20
176.630286
 42
-0.030607
  0
VERTEX
  8
0
 10
160.879705
 20
176.046528
 42
-0.283289
  0
VERTEX
  8
0
 10
159.768280
 20
176.533113
 42
-0.165910
  0
VERTEX
  8
0
 10
159.354961
 20
177.985811
 42
-0.010370
  0
VERTEX
  8
0
 10
159.682230
 20
182.500000
 42
0.007860
  0
VERTEX
  8
0
 10
159.950052
 20
185.953671
 42
0.048017
  0
VERTEX
  8
0
 10
159.888785
 20
187.739824
 42
0.126922
  0
VERTEX
  8
0
 10
159.522028
 20
188.650806
 42
0.238250
  0
VERTEX
  8
0
 10
158.830795
 20
189.000000
 42
-0.228611
  0
VERTEX
  8
0
 10
158.141958
 20
189.332319
 42
-0.126340
  0
VERTEX
  8
0
 10
157.752162
 20
190.204118
 42
-0.051053
  0
VERTEX
  8
0
 10
157.639298
 20
191.883935
 42
-0.009320
  0
VERTEX
  8
0
 10
157.806381
 20
195.000000
 42
0.000000
  0
VERTEX
  8
0
 10
158.240382
 20
201.000000
 42
0.000000
  0
VERTEX
  8
0
 10
134.120191
 20
201.000000
 42
0.000000
  0
VERTEX
  8
0
 10
110.000000
 20
201.000000
 42
0.000000
  0
SEQEND
  0
POLYLINE
  8
0
 66
1
 70
1
  0
VERTEX
  8
0
 10
114.000000
 20
198.000000
 42
-0.099038
  0
VERTEX
  8
0
 10
113.923658
 20
197.618362
 42
-0.097945
  0
VERTEX
  8
0
 10
113.706250
 20
197.293750
 42
-0.097945
  0
VERTEX
  8
0
 10
113.381638
 20
197.076342
 42
-0.099038
  0
VERTEX
  8
0
 10
113.000000
 20
197.000000
 42
-0.099038
  0
VERTEX
  8
0
 10
112.618362
 20
197.076342
 42
-0.097945
  0
VERTEX
  8
0
 10
112.293750
 20
197.293750
 42
-0.097945
  0
VERTEX
  8
0
 10
112.076342
 20
197.618362
 42
-0.099038
  0
VERTEX
  8
0
 10
112.000000
 20
198.000000
 42
-0.099038
  0
VERTEX
  8
0
 10
112.076342
 20
198.381638
 42
-0.097945
  0
VERTEX
  8
0
 10
112.293750
 20
198.706250
 42
-0.097945
  0
VERTEX
  8
0
 10
112.618362
 20
198.923658
 42
-0.099038
  0
VERTEX
  8
0
 10
113.000000
 20
199.000000
 42
-0.099038
  0
VERTEX
  8
0
 10
113.381638
 20
198.923658
 42
-0.097945
  0
VERTEX
  8
0
 10
113.706250
 20
198.706250
 42
-0.097945
  0
VERTEX
  8
0
 10
113.923658
 20
198.381638
 42
-0.099038
  0
SEQEND
  0
POLYLINE
  8
0
 66
1
 70
1
  0
VERTEX
  8
0
 10
153.000000
 20
195.500000
 42
0.099038
  0
VERTEX
  8
0
 10
153.114514
 20
194.927543
 42
0.097945
  0
VERTEX
  8
0
 10
153.440625
 20
194.440625
 42
0.097945
  0
VERTEX
  8
0
 10
153.927543
 20
194.114514
 42
0.099038
  0
VERTEX
  8
0
 10
154.500000
 20
194.000000
 42
0.099038
  0
VERTEX
  8
0
 10
155.072457
 20
194.114514
 42
0.097945
  0
VERTEX
  8
0
 10
155.559375
 20
194.440625
 42
0.097945
  0
VERTEX
  8
0
 10
155.885486
 20
194.927543
 42
0.099038
  0
VERTEX
  8
0
 10
156.000000
 20
195.500000
 42
0.099038
  0
VERTEX
  8
0
 10
155.885486
 20
196.072457
 42
0.097945
  0
VERTEX
  8
0
 10
155.559375
 20
196.559375
 42
0.097945
  0
VERTEX
  8
0
 10
155.072457
 20
196.885486
 42
0.099038
  0
VERTEX
  8
0
 10
154.500000
 20
197.000000
 42
0.099038
  0
VERTEX
  8
0
 10
153.927543
 20
196.885486
 42
0.097945
  0
VERTEX
  8
0
 10
153.440625
 20
196.559375
 42
0.097945
  0
VERTEX
  8
0
 10
153.114514
 20
196.072457
 42
0.099038
  0
SEQEND
  0
POLYLINE
  8
0
 66
1
 70
1
  0
VERTEX
  8
0
 10
48.176676
 20
189.332866
 42
0.100818
  0
VERTEX
  8
0
 10
48.769787
 20
187.900237
 42
0.210781
  0
VERTEX
  8
0
 10
49.770795
 20
187.270086
 42
0.297834
  0
VERTEX
  8
0
 10
50.642779
 20
187.672718
 42
0.140740
  0
VERTEX
  8
0
 10
51.000000
 20
188.916667
 42
0.066422
  0
VERTEX
  8
0
 10
50.888599
 20
189.751548
 42
0.095670
  0
VERTEX
  8
0
 10
50.561201
 20
190.418960
 42
0.111791
  0
VERTEX
  8
0
 10
50.054646
 20
190.846770
 42
0.120240
  0
VERTEX
  8
0
 10
49.426676
 20
191.000000
 42
0.099154
  0
VERTEX
  8
0
 10
48.820192
 20
190.878535
 42
0.133817
  0
VERTEX
  8
0
 10
48.380696
 20
190.536470
 42
0.126354
  0
VERTEX
  8
0
 10
48.159635
 20
190.001710
 42
0.083236
  0
SEQEND
  0
POLYLINE
  8
0
 66
1
 70
1
  0
VERTEX
  8
0
 10
30.000000
 20
188.426676
 42
0.099154
  0
VERTEX
  8
0
 10
30.121465
 20
187.820192
 42
0.133817
  0
VERTEX
  8
0
 10
30.463530
 20
187.380696
 42
0.126354
  0
VERTEX
  8
0
 10
30.998290
 20
187.159635
 42
0.083236
  0
VERTEX
  8
0
 10
31.667134
 20
187.176676
 42
0.100818
  0
VERTEX
  8
0
 10
33.099763
 20
187.769787
 42
0.210781
  0
VERTEX
  8
0
 10
33.729914
 20
188.770795
 42
0.297834
  0
VERTEX
  8
0
 10
33.327282
 20
189.642779
 42
0.140740
  0
VERTEX
  8
0
 10
32.083333
 20
190.000000
 42
0.066422
  0
VERTEX
  8
0
 10
31.248452
 20
189.888599
 42
0.095670
  0
VERTEX
  8
0
 10
30.581040
 20
189.561201
 42
0.111791
  0
VERTEX
  8
0
 10
30.153230
 20
189.054646
 42
0.120240
  0
SEQEND
  0
POLYLINE
  8
0
 66
1
 70
1
  0
VERTEX
  8
0
 10
36.000000
 20
189.000000
 42
0.322437
  0
VERTEX
  8
0
 10
36.280551
 20
188.610183
 42
0.031449
  0
VERTEX
  8
0
 10
37.468750
 20
188.293750
 42
0.030530
  0
VERTEX
  8
0
 10
39.083446
 20
188.072205
 42
0.018830
  0
VERTEX
  8
0
 10
41.000000
 20
188.000000
 42
0.018830
  0
VERTEX
  8
0
 10
42.916554
 20
188.072205
 42
0.030530
  0
VERTEX
  8
0
 10
44.531250
 20
188.293750
 42
0.031449
  0
VERTEX
  8
0
 10
45.719449
 20
188.610183
 42
0.322437
  0
VERTEX
  8
0
 10
46.000000
 20
189.000000
 42
0.322437
  0
VERTEX
  8
0
 10
45.719449
 20
189.389817
 42
0.031449
  0
VERTEX
  8
0
 10
44.531250
 20
189.706250
 42
0.030530
  0
VERTEX
  8
0
 10
42.916554
 20
189.927795
 42
0.018830
  0
VERTEX
  8
0
 10
41.000000
 20
190.000000
 42
0.018830
  0
VERTEX
  8
0
 10
39.083446
 20
189.927795
 42
0.030530
  0
VERTEX
  8
0
 10
37.468750
 20
189.706250
 42
0.031449
  0
VERTEX
  8
0
 10
36.280551
 20
189.389817
 42
0.322437
  0
SEQEND
  0
POLYLINE
  8
0
 66
1
 70
1
  0
VERTEX
  8
0
 10
54.657991
 20
188.324657
 42
0.126013
  0
VERTEX
  8
0
 10
54.102418
 20
187.386569
 42
0.122820
  0
VERTEX
  8
0
 10
54.058893
 20
186.287295
 42
0.123370
  0
VERTEX
  8
0
 10
54.536223
 20
185.300006
 42
0.127827
  0
VERTEX
  8
0
 10
55.417241
 20
184.670131
 42
0.095176
  0
VERTEX
  8
0
 10
55.998073
 20
184.566460
 42
0.096953
  0
VERTEX
  8
0
 10
56.571892
 20
184.686640
 42
0.098800
  0
VERTEX
  8
0
 10
57.049720
 20
185.011242
 42
0.103040
  0
VERTEX
  8
0
 10
57.357800
 20
185.490029
 42
0.181201
  0
VERTEX
  8
0
 10
57.366984
 20
186.653157
 42
0.102968
  0
VERTEX
  8
0
 10
56.614701
 20
187.864259
 42
0.124017
  0
VERTEX
  8
0
 10
55.548111
 20
188.537393
 42
0.282582
  0
SEQEND
  0
POLYLINE
  8
0
 66
1
 70
1
  0
VERTEX
  8
0
 10
26.000000
 20
186.500000
 42
0.099038
  0
VERTEX
  8
0
 10
26.114514
 20
185.927543
 42
0.097945
  0
VERTEX
  8
0
 10
26.440625
 20
185.440625
 42
0.097945
  0
VERTEX
  8
0
 10
26.927543
 20
185.114514
 42
0.099038
  0
VERTEX
  8
0
 10
27.500000
 20
185.000000
 42
0.099038
  0
VERTEX
  8
0
 10
28.072457
 20
185.114514
 42
0.097945
  0
VERTEX
  8
0
 10
28.559375
 20
185.440625
 42
0.097945
  0
VERTEX
  8
0
 10
28.885486
 20
185.927543
 42
0.099038
  0
VERTEX
  8
0
 10
29.000000
 20
186.500000
 42
0.099038
  0
VERTEX
  8
0
 10
28.885486
 20
187.072457
 42
0.097945
  0
VERTEX
  8
0
 10
28.559375
 20
187.559375
 42
0.097945
  0
VERTEX
  8
0
 10
28.072457
 20
187.885486
 42
0.099038
  0
VERTEX
  8
0
 10
27.500000
 20
188.000000
 42
0.099038
  0
VERTEX
  8
0
 10
26.927543
 20
187.885486
 42
0.097945
  0
VERTEX
  8
0
 10
26.440625
 20
187.559375
 42
0.097945
  0
VERTEX
  8
0
 10
26.114514
 20
187.072457
 42
0.099038
  0
SEQEND
  0
POLYLINE
  8
0
 66
1
 70
1
  0
VERTEX
  8
0
 10
126.011006
 20
186.250000
 42
0.020978
  0
VERTEX
  8
0
 10
126.055357
 20
185.331292
 42
0.006003
  0
VERTEX
  8
0
 10
126.200855
 20
183.912500
 42
0.006031
  0
VERTEX
  8
0
 10
126.403757
 20
182.314061
 42
0.006371
  0
VERTEX
  8
0
 10
126.641848
 20
180.750000
 42
0.023431
  0
VERTEX
  8
0
 10
127.060022
 20
178.794405
 42
0.100330
  0
VERTEX
  8
0
 10
127.584034
 20
177.730088
 42
0.151323
  0
VERTEX
  8
0
 10
128.357914
 20
177.185822
 42
0.078301
  0
VERTEX
  8
0
 10
129.537223
 20
177.000000
 42
-0.040705
  0
VERTEX
  8
0
 10
130.658193
 20
176.908590
 42
-0.173851
  0
VERTEX
  8
0
 10
131.235884
 20
176.587732
 42
-0.193971
  0
VERTEX
  8
0
 10
131.441963
 20
175.998344
 42
-0.052286
  0
VERTEX
  8
0
 10
131.289749
 20
175.000000
 42
0.049804
  0
VERTEX
  8
0
 10
131.167727
 20
174.225436
 42
0.086529
  0
VERTEX
  8
0
 10
131.242791
 20
173.580679
 42
0.126717
  0
VERTEX
  8
0
 10
131.496045
 20
173.158779
 42
0.197013
  0
VERTEX
  8
0
 10
131.883369
 20
173.000000
 42
-0.261576
  0
VERTEX
  8
0
 10
132.312871
 20
172.758802
 42
-0.059719
  0
VERTEX
  8
0
 10
132.671990
 20
171.971875
 42
-0.047010
  0
VERTEX
  8
0
 10
132.918825
 20
170.840892
 42
-0.030241
  0
VERTEX
  8
0
 10
133.000000
 20
169.500000
 42
0.030402
  0
VERTEX
  8
0
 10
133.081607
 20
168.159119
 42
0.047226
  0
VERTEX
  8
0
 10
133.329718
 20
167.028125
 42
0.060073
  0
VERTEX
  8
0
 10
133.690758
 20
166.241597
 42
0.260797
  0
VERTEX
  8
0
 10
134.122445
 20
166.000000
 42
-0.097798
  0
VERTEX
  8
0
 10
134.562784
 20
165.913039
 42
-0.313517
  0
VERTEX
  8
0
 10
134.716495
 20
165.674921
 42
-0.141986
  0
VERTEX
  8
0
 10
134.581562
 20
165.262907
 42
-0.023542
  0
VERTEX
  8
0
 10
134.073886
 20
164.589028
 42
0.042246
  0
VERTEX
  8
0
 10
133.600925
 20
163.909843
 42
0.118701
  0
VERTEX
  8
0
 10
133.437769
 20
163.358158
 42
0.164411
  0
VERTEX
  8
0
 10
133.565939
 20
162.903294
 42
0.104543
  0
VERTEX
  8
0
 10
133.967754
 20
162.519929
 42
-0.087848
  0
VERTEX
  8
0
 10
134.329851
 20
162.196651
 42
-0.094592
  0
VERTEX
  8
0
 10
134.547595
 20
161.776465
 42
-0.100073
  0
VERTEX
  8
0
 10
134.588288
 20
161.325549
 42
-0.111482
  0
VERTEX
  8
0
 10
134.446332
 20
160.913163
 42
0.231808
  0
VERTEX
  8
0
 10
134.388776
 20
160.327770
 42
0.028771
  0
VERTEX
  8
0
 10
134.920024
 20
159.122297
 42
0.029161
  0
VERTEX
  8
0
 10
135.767162
 20
157.679515
 42
0.020159
  0
VERTEX
  8
0
 10
136.882203
 20
156.148730
 42
-0.010875
  0
VERTEX
  8
0
 10
138.616964
 20
153.857758
 42
-0.091052
  0
VERTEX
  8
0
 10
139.173435
 20
152.690163
 42
-0.186932
  0
VERTEX
  8
0
 10
139.076076
 20
151.779034
 42
-0.077492
  0
VERTEX
  8
0
 10
138.333371
 20
150.761943
 42
0.072265
  0
VERTEX
  8
0
 10
137.580322
 20
149.752877
 42
0.187903
  0
VERTEX
  8
0
 10
137.468904
 20
148.868787
 42
0.095532
  0
VERTEX
  8
0
 10
137.988656
 20
147.754938
 42
0.011596
  0
VERTEX
  8
0
 10
139.631188
 20
145.595503
 42
0.019416
  0
VERTEX
  8
0
 10
140.820025
 20
144.218758
 42
0.025035
  0
VERTEX
  8
0
 10
142.019840
 20
143.056212
 42
0.024229
  0
VERTEX
  8
0
 10
143.088050
 20
142.207976
 42
0.156931
  0
VERTEX
  8
0
 10
143.734223
 20
142.000029
 42
0.123283
  0
VERTEX
  8
0
 10
144.401136
 20
142.166988
 42
0.020588
  0
VERTEX
  8
0
 10
145.547841
 20
142.841639
 42
0.021484
  0
VERTEX
  8
0
 10
146.856892
 20
143.768166
 42
0.017581
  0
VERTEX
  8
0
 10
148.175077
 20
144.865124
 42
0.000000
  0
VERTEX
  8
0
 10
151.381707
 20
147.730247
 42
0.000000
  0
VERTEX
  8
0
 10
148.191396
 20
151.758343
 42
-0.011116
  0
VERTEX
  8
0
 10
146.581536
 20
153.886496
 42
-0.068454
  0
VERTEX
  8
0
 10
145.938119
 20
155.096576
 42
-0.194133
  0
VERTEX
  8
0
 10
145.961814
 20
155.848663
 42
-0.199952
  0
VERTEX
  8
0
 10
146.500543
 20
156.361835
 42
0.161052
  0
VERTEX
  8
0
 10
147.587619
 20
157.251332
 42
0.201423
  0
VERTEX
  8
0
 10
147.803821
 20
158.525045
 42
0.096146
  0
VERTEX
  8
0
 10
146.985963
 20
160.351097
 42
0.023618
  0
VERTEX
  8
0
 10
144.959359
 20
162.962226
 42
-0.016884
  0
VERTEX
  8
0
 10
143.826309
 20
164.382196
 42
-0.020638
  0
VERTEX
  8
0
 10
142.869312
 20
165.785706
 42
-0.019617
  0
VERTEX
  8
0
 10
142.171152
 20
167.010892
 42
-0.120254
  0
VERTEX
  8
0
 10
142.000000
 20
167.712226
 42
0.115731
  0
VERTEX
  8
0
 10
141.884759
 20
168.203437
 42
0.100462
  0
VERTEX
  8
0
 10
141.559375
 20
168.621716
 42
0.093300
  0
VERTEX
  8
0
 10
141.072825
 20
168.902469
 42
0.084524
  0
VERTEX
  8
0
 10
140.500000
 20
169.000000
 42
-0.064853
  0
VERTEX
  8
0
 10
139.926543
 20
169.074694
 42
-0.082425
  0
VERTEX
  8
0
 10
139.440625
 20
169.293750
 42
-0.098894
  0
VERTEX
  8
0
 10
139.115568
 20
169.618646
 42
-0.148195
  0
VERTEX
  8
0
 10
139.000000
 20
170.000000
 42
0.151449
  0
VERTEX
  8
0
 10
138.881773
 20
170.381368
 42
0.098371
  0
VERTEX
  8
0
 10
138.549040
 20
170.706250
 42
0.081304
  0
VERTEX
  8
0
 10
138.051780
 20
170.925396
 42
0.063296
  0
VERTEX
  8
0
 10
137.464816
 20
171.000000
 42
-0.066910
  0
VERTEX
  8
0
 10
136.752855
 20
171.095703
 42
-0.268860
  0
VERTEX
  8
0
 10
136.456410
 20
171.396412
 42
-0.162700
  0
VERTEX
  8
0
 10
136.494269
 20
171.939385
 42
-0.024808
  0
VERTEX
  8
0
 10
136.964816
 20
172.934259
 42
0.037092
  0
VERTEX
  8
0
 10
137.824895
 20
174.874549
 42
0.162460
  0
VERTEX
  8
0
 10
137.850862
 20
176.111490
 42
0.199149
  0
VERTEX
  8
0
 10
137.139110
 20
176.966408
 42
0.059437
  0
VERTEX
  8
0
 10
135.520753
 20
177.584147
 42
-0.076153
  0
VERTEX
  8
0
 10
134.207320
 20
178.136235
 42
-0.126958
  0
VERTEX
  8
0
 10
133.378556
 20
178.993832
 42
-0.079205
  0
VERTEX
  8
0
 10
132.836817
 20
180.443378
 42
-0.016925
  0
VERTEX
  8
0
 10
132.391922
 20
183.103199
 42
0.012521
  0
VERTEX
  8
0
 10
131.924155
 20
186.059514
 42
0.110798
  0
VERTEX
  8
0
 10
131.409819
 20
187.267062
 42
0.188480
  0
VERTEX
  8
0
 10
130.539832
 20
187.830669
 42
0.050609
  0
VERTEX
  8
0
 10
128.871169
 20
188.000000
 42
0.034396
  0
VERTEX
  8
0
 10
127.524636
 20
187.907259
 42
0.103254
  0
VERTEX
  8
0
 10
126.661119
 20
187.598581
 42
0.151001
  0
VERTEX
  8
0
 10
126.180378
 20
187.052630
 42
0.107541
  0
SEQEND
  0
POLYLINE
  8
0
 66
1
 70
1
  0
VERTEX
  8
0
 10
131.013655
 20
184.750000
 42
0.020614
  0
VERTEX
  8
0
 10
131.062129
 20
183.725757
 42
0.011917
  0
VERTEX
  8
0
 10
131.200423
 20
182.500000
 42
0.011897
  0
VERTEX
  8
0
 10
131.398132
 20
181.274675
 42
0.019520
  0
VERTEX
  8
0
 10
131.630286
 20
180.250000
 42
-0.036755
  0
VERTEX
  8
0
 10
131.852099
 20
179.086359
 42
-0.178633
  0
VERTEX
  8
0
 10
131.695948
 20
178.444534
 42
-0.199953
  0
VERTEX
  8
0
 10
131.175195
 20
178.100440
 42
-0.047336
  0
VERTEX
  8
0
 10
130.116631
 20
178.000000
 42
-0.063116
  0
VERTEX
  8
0
 10
129.307348
 20
178.102566
 42
-0.081172
  0
VERTEX
  8
0
 10
128.621760
 20
178.403906
 42
-0.098305
  0
VERTEX
  8
0
 10
128.162995
 20
178.850617
 42
-0.151833
  0
VERTEX
  8
0
 10
128.000000
 20
179.375000
 42
0.027247
  0
VERTEX
  8
0
 10
127.960131
 20
180.106076
 42
0.007261
  0
VERTEX
  8
0
 10
127.816406
 20
181.264062
 42
0.007340
  0
VERTEX
  8
0
 10
127.614255
 20
182.577733
 42
0.007508
  0
VERTEX
  8
0
 10
127.375000
 20
183.875000
 42
-0.019129
  0
VERTEX
  8
0
 10
127.093031
 20
185.631815
 42
-0.143067
  0
VERTEX
  8
0
 10
127.228824
 20
186.455882
 42
-0.228550
  0
VERTEX
  8
0
 10
127.751572
 20
186.873356
 42
-0.056187
  0
VERTEX
  8
0
 10
128.875000
 20
187.000000
 42
-0.064853
  0
VERTEX
  8
0
 10
129.860849
 20
186.871589
 42
-0.138810
  0
VERTEX
  8
0
 10
130.515505
 20
186.483688
 42
-0.132547
  0
VERTEX
  8
0
 10
130.888073
 20
185.795953
 42
-0.056773
  0
SEQEND
  0
POLYLINE
  8
0
 66
1
 70
1
  0
VERTEX
  8
0
 10
135.697214
 20
176.208294
 42
-0.092797
  0
VERTEX
  8
0
 10
136.152692
 20
175.782841
 42
-0.129779
  0
VERTEX
  8
0
 10
136.356440
 20
175.267172
 42
-0.112430
  0
VERTEX
  8
0
 10
136.292169
 20
174.661663
 42
-0.058625
  0
VERTEX
  8
0
 10
135.962526
 20
173.973607
 42
0.054159
  0
VERTEX
  8
0
 10
135.211793
 20
172.441776
 42
0.121067
  0
VERTEX
  8
0
 10
135.074832
 20
171.160810
 42
0.194313
  0
VERTEX
  8
0
 10
135.548295
 20
170.330596
 42
0.168741
  0
VERTEX
  8
0
 10
136.500000
 20
170.000000
 42
-0.064853
  0
VERTEX
  8
0
 10
137.073457
 20
169.925306
 42
-0.082425
  0
VERTEX
  8
0
 10
137.559375
 20
169.706250
 42
-0.098894
  0
VERTEX
  8
0
 10
137.884432
 20
169.381354
 42
-0.148195
  0
VERTEX
  8
0
 10
138.000000
 20
169.000000
 42
0.148195
  0
VERTEX
  8
0
 10
138.115568
 20
168.618646
 42
0.098894
  0
VERTEX
  8
0
 10
138.440625
 20
168.293750
 42
0.082425
  0
VERTEX
  8
0
 10
138.926543
 20
168.074694
 42
0.064853
  0
VERTEX
  8
0
 10
139.500000
 20
168.000000
 42
-0.083453
  0
VERTEX
  8
0
 10
140.072855
 20
167.903716
 42
-0.092853
  0
VERTEX
  8
0
 10
140.559375
 20
167.626304
 42
-0.100557
  0
VERTEX
  8
0
 10
140.884714
 20
167.213082
 42
-0.117162
  0
VERTEX
  8
0
 10
141.000000
 20
166.727844
 42
0.118712
  0
VERTEX
  8
0
 10
141.168549
 20
166.027939
 42
0.018480
  0
VERTEX
  8
0
 10
141.867888
 20
164.776486
 42
0.019695
  0
VERTEX
  8
0
 10
142.823287
 20
163.336935
 42
0.016016
  0
VERTEX
  8
0
 10
143.954511
 20
161.871354
 42
0.000000
  0
VERTEX
  8
0
 10
146.909022
 20
158.287020
 42
0.000000
  0
VERTEX
  8
0
 10
144.066366
 20
155.563582
 42
0.000000
  0
VERTEX
  8
0
 10
141.223710
 20
152.840145
 42
0.000000
  0
VERTEX
  8
0
 10
138.511855
 20
156.395570
 42
-0.032613
  0
VERTEX
  8
0
 10
137.346554
 20
158.149607
 42
-0.038870
  0
VERTEX
  8
0
 10
136.494551
 20
159.943075
 42
-0.041546
  0
VERTEX
  8
0
 10
135.974605
 20
161.732693
 42
-0.049968
  0
VERTEX
  8
0
 10
135.800000
 20
163.475498
 42
0.024111
  0
VERTEX
  8
0
 10
135.734830
 20
164.826183
 42
0.038416
  0
VERTEX
  8
0
 10
135.535625
 20
165.964677
 42
0.045122
  0
VERTEX
  8
0
 10
135.248200
 20
166.776712
 42
0.293089
  0
VERTEX
  8
0
 10
134.900000
 20
167.000000
 42
-0.292165
  0
VERTEX
  8
0
 10
134.551870
 20
167.222408
 42
-0.045555
  0
VERTEX
  8
0
 10
134.264375
 20
168.028125
 42
-0.038664
  0
VERTEX
  8
0
 10
134.065177
 20
169.158715
 42
-0.024282
  0
VERTEX
  8
0
 10
134.000000
 20
170.500000
 42
0.026163
  0
VERTEX
  8
0
 10
133.929774
 20
171.841167
 42
0.041364
  0
VERTEX
  8
0
 10
133.715469
 20
172.971875
 42
0.050227
  0
VERTEX
  8
0
 10
133.405290
 20
173.770739
 42
0.282167
  0
VERTEX
  8
0
 10
133.031385
 20
174.000000
 42
-0.184534
  0
VERTEX
  8
0
 10
132.710807
 20
174.122486
 42
-0.147206
  0
VERTEX
  8
0
 10
132.516384
 20
174.440625
 42
-0.100118
  0
VERTEX
  8
0
 10
132.488865
 20
174.925634
 42
-0.055937
  0
VERTEX
  8
0
 10
132.638374
 20
175.500000
 42
-0.056799
  0
VERTEX
  8
0
 10
133.155059
 20
176.492740
 42
-0.189700
  0
VERTEX
  8
0
 10
133.749106
 20
176.901325
 42
-0.161236
  0
VERTEX
  8
0
 10
134.530796
 20
176.829069
 42
-0.038611
  0
SEQEND
  0
POLYLINE
  8
0
 66
1
 70
1
  0
VERTEX
  8
0
 10
147.349926
 20
150.733130
 42
-0.021642
  0
VERTEX
  8
0
 10
148.361667
 20
149.248067
 42
-0.101421
  0
VERTEX
  8
0
 10
148.716842
 20
148.282925
 42
-0.147401
  0
VERTEX
  8
0
 10
148.597156
 20
147.447071
 42
-0.064541
  0
VERTEX
  8
0
 10
147.993016
 20
146.491585
 42
-0.044278
  0
VERTEX
  8
0
 10
145.984731
 20
144.466454
 42
-0.163789
  0
VERTEX
  8
0
 10
144.333508
 20
143.813849
 42
-0.187655
  0
VERTEX
  8
0
 10
142.766771
 20
144.331845
 42
-0.061039
  0
VERTEX
  8
0
 10
141.059861
 20
146.132904
 42
0.000000
  0
VERTEX
  8
0
 10
138.812959
 20
149.172002
 42
0.000000
  0
VERTEX
  8
0
 10
141.098843
 20
151.605213
 42
-0.041706
  0
VERTEX
  8
0
 10
142.906419
 20
153.233435
 42
-0.199717
  0
VERTEX
  8
0
 10
144.220986
 20
153.576998
 42
-0.170413
  0
VERTEX
  8
0
 10
145.523516
 20
152.905170
 42
-0.028930
  0
SEQEND
  0
POLYLINE
  8
0
 66
1
 70
1
  0
VERTEX
  8
0
 10
60.379051
 20
183.545407
 42
0.111839
  0
VERTEX
  8
0
 10
60.158147
 20
182.018276
 42
0.192473
  0
VERTEX
  8
0
 10
60.719797
 20
180.882919
 42
0.252090
  0
VERTEX
  8
0
 10
61.764676
 20
180.630297
 42
0.156612
  0
VERTEX
  8
0
 10
62.854713
 20
181.324940
 42
0.053861
  0
VERTEX
  8
0
 10
63.356196
 20
182.081905
 42
0.151481
  0
VERTEX
  8
0
 10
63.466689
 20
182.700292
 42
0.143237
  0
VERTEX
  8
0
 10
63.209403
 20
183.294855
 42
0.046316
  0
VERTEX
  8
0
 10
62.524164
 20
183.979945
 42
0.034716
  0
VERTEX
  8
0
 10
61.711368
 20
184.564292
 42
0.190709
  0
VERTEX
  8
0
 10
61.189755
 20
184.657607
 42
0.211081
  0
VERTEX
  8
0
 10
60.778273
 20
184.366373
 42
0.043130
  0
SEQEND
  0
POLYLINE
  8
0
 66
1
 70
1
  0
VERTEX
  8
0
 10
21.000000
 20
182.606989
 42
0.166767
  0
VERTEX
  8
0
 10
21.352279
 20
181.580160
 42
0.102084
  0
VERTEX
  8
0
 10
22.336188
 20
180.740688
 42
0.110164
  0
VERTEX
  8
0
 10
23.509634
 20
180.398878
 42
0.215600
  0
VERTEX
  8
0
 10
24.402234
 20
180.735568
 42
0.134985
  0
VERTEX
  8
0
 10
24.987248
 20
181.764340
 42
0.165081
  0
VERTEX
  8
0
 10
24.900926
 20
182.861624
 42
0.162656
  0
VERTEX
  8
0
 10
24.161397
 20
183.690980
 42
0.130763
  0
VERTEX
  8
0
 10
23.000000
 20
184.000000
 42
0.067898
  0
VERTEX
  8
0
 10
22.235532
 20
183.895707
 42
0.084500
  0
VERTEX
  8
0
 10
21.587500
 20
183.590803
 42
0.099710
  0
VERTEX
  8
0
 10
21.154161
 20
183.138200
 42
0.142170
  0
SEQEND
  0
POLYLINE
  8
0
 66
1
 70
1
  0
VERTEX
  8
0
 10
12.750000
 20
171.751720
 42
0.005356
  0
VERTEX
  8
0
 10
9.779849
 20
168.646181
 42
0.008176
  0
VERTEX
  8
0
 10
7.276562
 20
165.882806
 42
0.003712
  0
VERTEX
  8
0
 10
5.215389
 20
163.495802
 42
0.178060
  0
VERTEX
  8
0
 10
5.000000
 20
162.910157
 42
0.211676
  0
VERTEX
  8
0
 10
5.154265
 20
162.562093
 42
0.080864
  0
VERTEX
  8
0
 10
5.609039
 20
162.267359
 42
0.061546
  0
VERTEX
  8
0
 10
6.279544
 20
162.066747
 42
0.041970
  0
VERTEX
  8
0
 10
7.073324
 20
162.000000
 42
0.055033
  0
VERTEX
  8
0
 10
7.991738
 20
162.101393
 42
0.143676
  0
VERTEX
  8
0
 10
8.567294
 20
162.419799
 42
0.165442
  0
VERTEX
  8
0
 10
8.831811
 20
162.964361
 42
0.079455
  0
VERTEX
  8
0
 10
8.804842
 20
163.750000
 42
-0.136632
  0
VERTEX
  8
0
 10
8.873163
 20
164.616405
 42
-0.054908
  0
VERTEX
  8
0
 10
9.405221
 20
165.690345
 42
-0.046584
  0
VERTEX
  8
0
 10
10.299384
 20
166.835857
 42
-0.034346
  0
VERTEX
  8
0
 10
11.481518
 20
167.928864
 42
0.012224
  0
VERTEX
  8
0
 10
15.538364
 20
171.359966
 42
0.017734
  0
VERTEX
  8
0
 10
18.931615
 20
174.597617
 42
0.014160
  0
VERTEX
  8
0
 10
21.508787
 20
177.391482
 42
0.181132
  0
VERTEX
  8
0
 10
22.000000
 20
178.702948
 42
0.357401
  0
VERTEX
  8
0
 10
21.451653
 20
179.372089
 42
0.213726
  0
VERTEX
  8
0
 10
20.388323
 20
179.130583
 42
0.034809
  0
VERTEX
  8
0
 10
18.052330
 20
177.106264
 42
0.003334
  0
SEQEND
  0
POLYLINE
  8
0
 66
1
 70
1
  0
VERTEX
  8
0
 10
159.438730
 20
167.750000
 42
0.002288
  0
VERTEX
  8
0
 10
159.749262
 20
161.825858
 42
0.046562
  0
VERTEX
  8
0
 10
160.017413
 20
160.051657
 42
0.197108
  0
VERTEX
  8
0
 10
160.574446
 20
159.291331
 42
0.138190
  0
VERTEX
  8
0
 10
161.608408
 20
159.000000
 42
0.098620
  0
VERTEX
  8
0
 10
162.346726
 20
159.147056
 42
0.212268
  0
VERTEX
  8
0
 10
162.737790
 20
159.559117
 42
0.121841
  0
VERTEX
  8
0
 10
162.813320
 20
160.323862
 42
0.025472
  0
VERTEX
  8
0
 10
162.550418
 20
161.655143
 42
-0.037982
  0
VERTEX
  8
0
 10
162.356877
 20
162.782783
 42
-0.058176
  0
VERTEX
  8
0
 10
162.378838
 20
163.773085
 42
-0.073111
  0
VERTEX
  8
0
 10
162.603691
 20
164.542405
 42
-0.147788
  0
VERTEX
  8
0
 10
163.017836
 20
165.011023
 42
0.143137
  0
VERTEX
  8
0
 10
163.491524
 20
165.537275
 42
0.028251
  0
VERTEX
  8
0
 10
163.981872
 20
166.723254
 42
0.027842
  0
VERTEX
  8
0
 10
164.411505
 20
168.217937
 42
0.022727
  0
VERTEX
  8
0
 10
164.707495
 20
169.855880
 42
0.011320
  0
VERTEX
  8
0
 10
165.004595
 20
172.528901
 42
0.159307
  0
VERTEX
  8
0
 10
164.789334
 20
173.457010
 42
0.233942
  0
VERTEX
  8
0
 10
164.097549
 20
173.897806
 42
0.026931
  0
VERTEX
  8
0
 10
162.201566
 20
174.000000
 42
0.000000
  0
VERTEX
  8
0
 10
159.139793
 20
174.000000
 42
0.000000
  0
SEQEND
  0
POLYLINE
  8
0
 66
1
 70
1
  0
VERTEX
  8
0
 10
163.614583
 20
169.822917
 42
-0.014527
  0
VERTEX
  8
0
 10
162.833379
 20
166.432265
 42
-0.334612
  0
VERTEX
  8
0
 10
162.099982
 20
165.851833
 42
-0.343643
  0
VERTEX
  8
0
 10
161.359603
 20
166.401135
 42
-0.014861
  0
VERTEX
  8
0
 10
160.537360
 20
169.750000
 42
-0.016849
  0
VERTEX
  8
0
 10
160.200785
 20
171.627849
 42
-0.145549
  0
VERTEX
  8
0
 10
160.322708
 20
172.460390
 42
-0.237508
  0
VERTEX
  8
0
 10
160.849715
 20
172.877862
 42
-0.050936
  0
VERTEX
  8
0
 10
162.045545
 20
173.000000
 42
-0.051474
  0
VERTEX
  8
0
 10
163.231932
 20
172.877539
 42
-0.230549
  0
VERTEX
  8
0
 10
163.768886
 20
172.461758
 42
-0.146711
  0
VERTEX
  8
0
 10
163.908425
 20
171.635893
 42
-0.018360
  0
SEQEND
  0
POLYLINE
  8
0
 66
1
 70
1
  0
VERTEX
  8
0
 10
183.000000
 20
172.500000
 42
0.099038
  0
VERTEX
  8
0
 10
183.114514
 20
171.927543
 42
0.097945
  0
VERTEX
  8
0
 10
183.440625
 20
171.440625
 42
0.097945
  0
VERTEX
  8
0
 10
183.927543
 20
171.114514
 42
0.099038
  0
VERTEX
  8
0
 10
184.500000
 20
171.000000
 42
0.099038
  0
VERTEX
  8
0
 10
185.072457
 20
171.114514
 42
0.097945
  0
VERTEX
  8
0
 10
185.559375
 20
171.440625
 42
0.097945
  0
VERTEX
  8
0
 10
185.885486
 20
171.927543
 42
0.099038
  0
VERTEX
  8
0
 10
186.000000
 20
172.500000
 42
0.099038
  0
VERTEX
  8
0
 10
185.885486
 20
173.072457
 42
0.097945
  0
VERTEX
  8
0
 10
185.559375
 20
173.559375
 42
0.097945
  0
VERTEX
  8
0
 10
185.072457
 20
173.885486
 42
0.099038
  0
VERTEX
  8
0
 10
184.500000
 20
174.000000
 42
0.099038
  0
VERTEX
  8
0
 10
183.927543
 20
173.885486
 42
0.097945
  0
VERTEX
  8
0
 10
183.440625
 20
173.559375
 42
0.097945
  0
VERTEX
  8
0
 10
183.114514
 20
173.072457
 42
0.099038
  0
SEQEND
  0
POLYLINE
  8
0
 66
1
 70
1
  0
VERTEX
  8
0
 10
182.000000
 20
168.500000
 42
0.099038
  0
VERTEX
  8
0
 10
182.114514
 20
167.927543
 42
0.097945
  0
VERTEX
  8
0
 10
182.440625
 20
167.440625
 42
0.097945
  0
VERTEX
  8
0
 10
182.927543
 20
167.114514
 42
0.099038
  0
VERTEX
  8
0
 10
183.500000
 20
167.000000
 42
0.099038
  0
VERTEX
  8
0
 10
184.072457
 20
167.114514
 42
0.097945
  0
VERTEX
  8
0
 10
184.559375
 20
167.440625
 42
0.097945
  0
VERTEX
  8
0
 10
184.885486
 20
167.927543
 42
0.099038
  0
VERTEX
  8
0
 10
185.000000
 20
168.500000
 42
0.099038
  0
VERTEX
  8
0
 10
184.885486
 20
169.072457
 42
0.097945
  0
VERTEX
  8
0
 10
184.559375
 20
169.559375
 42
0.097945
  0
VERTEX
  8
0
 10
184.072457
 20
169.885486
 42
0.099038
  0
VERTEX
  8
0
 10
183.500000
 20
170.000000
 42
0.099038
  0
VERTEX
  8
0
 10
182.927543
 20
169.885486
 42
0.097945
  0
VERTEX
  8
0
 10
182.440625
 20
169.559375
 42
0.097945
  0
VERTEX
  8
0
 10
182.114514
 20
169.072457
 42
0.099038
  0
SEQEND
  0
POLYLINE
  8
0
 66
1
 70
1
  0
VERTEX
  8
0
 10
41.000000
 20
166.500000
 42
0.130775
  0
VERTEX
  8
0
 10
41.153209
 20
165.924246
 42
0.102140
  0
VERTEX
  8
0
 10
41.583333
 20
165.437500
 42
0.088920
  0
VERTEX
  8
0
 10
42.230589
 20
165.111864
 42
0.072314
  0
VERTEX
  8
0
 10
43.000000
 20
165.000000
 42
0.072314
  0
VERTEX
  8
0
 10
43.769411
 20
165.111864
 42
0.088920
  0
VERTEX
  8
0
 10
44.416667
 20
165.437500
 42
0.102140
  0
VERTEX
  8
0
 10
44.846791
 20
165.924246
 42
0.130775
  0
VERTEX
  8
0
 10
45.000000
 20
166.500000
 42
0.130775
  0
VERTEX
  8
0
 10
44.846791
 20
167.075754
 42
0.102140
  0
VERTEX
  8
0
 10
44.416667
 20
167.562500
 42
0.088920
  0
VERTEX
  8
0
 10
43.769411
 20
167.888136
 42
0.072314
  0
VERTEX
  8
0
 10
43.000000
 20
168.000000
 42
0.072314
  0
VERTEX
  8
0
 10
42.230589
 20
167.888136
 42
0.088920
  0
VERTEX
  8
0
 10
41.583333
 20
167.562500
 42
0.102140
  0
VERTEX
  8
0
 10
41.153209
 20
167.075754
 42
0.130775
  0
SEQEND
  0
POLYLINE
  8
0
 66
1
 70
1
  0
VERTEX
  8
0
 10
46.639480
 20
167.306147
 42
0.128822
  0
VERTEX
  8
0
 10
46.066992
 20
166.327196
 42
0.132661
  0
VERTEX
  8
0
 10
46.056720
 20
165.204890
 42
0.152160
  0
VERTEX
  8
0
 10
46.597640
 20
164.335619
 42
0.179946
  0
VERTEX
  8
0
 10
47.500000
 20
164.000000
 42
0.095012
  0
VERTEX
  8
0
 10
48.072549
 20
164.109789
 42
0.096907
  0
VERTEX
  8
0
 10
48.559375
 20
164.423289
 42
0.098834
  0
VERTEX
  8
0
 10
48.885271
 20
164.891133
 42
0.103216
  0
VERTEX
  8
0
 10
49.000000
 20
165.440983
 42
0.098073
  0
VERTEX
  8
0
 10
48.782775
 20
166.537796
 42
0.128462
  0
VERTEX
  8
0
 10
48.169706
 20
167.350022
 42
0.172865
  0
VERTEX
  8
0
 10
47.376680
 20
167.618432
 42
0.194761
  0
SEQEND
  0
POLYLINE
  8
0
 66
1
 70
1
  0
VERTEX
  8
0
 10
37.000000
 20
165.500000
 42
0.099038
  0
VERTEX
  8
0
 10
37.114514
 20
164.927543
 42
0.097945
  0
VERTEX
  8
0
 10
37.440625
 20
164.440625
 42
0.097945
  0
VERTEX
  8
0
 10
37.927543
 20
164.114514
 42
0.099038
  0
VERTEX
  8
0
 10
38.500000
 20
164.000000
 42
0.099038
  0
VERTEX
  8
0
 10
39.072457
 20
164.114514
 42
0.097945
  0
VERTEX
  8
0
 10
39.559375
 20
164.440625
 42
0.097945
  0
VERTEX
  8
0
 10
39.885486
 20
164.927543
 42
0.099038
  0
VERTEX
  8
0
 10
40.000000
 20
165.500000
 42
0.099038
  0
VERTEX
  8
0
 10
39.885486
 20
166.072457
 42
0.097945
  0
VERTEX
  8
0
 10
39.559375
 20
166.559375
 42
0.097945
  0
VERTEX
  8
0
 10
39.072457
 20
166.885486
 42
0.099038
  0
VERTEX
  8
0
 10
38.500000
 20
167.000000
 42
0.099038
  0
VERTEX
  8
0
 10
37.927543
 20
166.885486
 42
0.097945
  0
VERTEX
  8
0
 10
37.440625
 20
166.559375
 42
0.097945
  0
VERTEX
  8
0
 10
37.114514
 20
166.072457
 42
0.099038
  0
SEQEND
  0
POLYLINE
  8
0
 66
1
 70
1
  0
VERTEX
  8
0
 10
27.221112
 20
159.723095
 42
0.000000
  0
VERTEX
  8
0
 10
21.000000
 20
153.446189
 42
0.000000
  0
VERTEX
  8
0
 10
21.000000
 20
144.723095
 42
0.009526
  0
VERTEX
  8
0
 10
21.067021
 20
141.205666
 42
0.019011
  0
VERTEX
  8
0
 10
21.278660
 20
138.430774
 42
0.015137
  0
VERTEX
  8
0
 10
21.581037
 20
136.351498
 42
0.363927
  0
VERTEX
  8
0
 10
22.000000
 20
136.000000
 42
0.364759
  0
VERTEX
  8
0
 10
22.419832
 20
136.353277
 42
0.014825
  0
VERTEX
  8
0
 10
22.721767
 20
138.463736
 42
0.018766
  0
VERTEX
  8
0
 10
22.933126
 20
141.279285
 42
0.009350
  0
VERTEX
  8
0
 10
23.000000
 20
144.854943
 42
0.000000
  0
VERTEX
  8
0
 10
23.000000
 20
153.709886
 42
0.000000
  0
VERTEX
  8
0
 10
28.440139
 20
158.854943
 42
-0.009549
  0
VERTEX
  8
0
 10
30.605619
 20
160.825996
 42
-0.013541
  0
VERTEX
  8
0
 10
32.610908
 20
162.488639
 42
-0.009571
  0
VERTEX
  8
0
 10
34.326142
 20
163.781856
 42
-0.158018
  0
VERTEX
  8
0
 10
34.999156
 20
164.000000
 42
0.101158
  0
VERTEX
  8
0
 10
35.377842
 20
164.077406
 42
0.177637
  0
VERTEX
  8
0
 10
35.607816
 20
164.293750
 42
0.167539
  0
VERTEX
  8
0
 10
35.651002
 20
164.618198
 42
0.088709
  0
VERTEX
  8
0
 10
35.500000
 20
165.000000
 42
0.210919
  0
VERTEX
  8
0
 10
34.547092
 20
165.653989
 42
0.190557
  0
VERTEX
  8
0
 10
33.367254
 20
165.426026
 42
0.050823
  0
VERTEX
  8
0
 10
31.458563
 20
163.916898
 42
0.004821
  0
SEQEND
  0
POLYLINE
  8
0
 66
1
 70
1
  0
VERTEX
  8
0
 10
50.621328
 20
165.196313
 42
0.274607
  0
VERTEX
  8
0
 10
50.610736
 20
164.593610
 42
0.033273
  0
VERTEX
  8
0
 10
51.373218
 20
163.442286
 42
0.031992
  0
VERTEX
  8
0
 10
52.553223
 20
162.084430
 42
0.020867
  0
VERTEX
  8
0
 10
54.073401
 20
160.669167
 42
-0.013734
  0
VERTEX
  8
0
 10
55.808369
 20
159.099522
 42
-0.010159
  0
VERTEX
  8
0
 10
57.642371
 20
157.273578
 42
-0.010284
  0
VERTEX
  8
0
 10
59.305297
 20
155.476751
 42
-0.022633
  0
VERTEX
  8
0
 10
60.483049
 20
154.022975
 42
0.021166
  0
VERTEX
  8
0
 10
61.553020
 20
152.694297
 42
0.069123
  0
VERTEX
  8
0
 10
62.405343
 20
151.958009
 42
0.151096
  0
VERTEX
  8
0
 10
63.052972
 20
151.775606
 42
0.253169
  0
VERTEX
  8
0
 10
63.530977
 20
152.050121
 42
0.283809
  0
VERTEX
  8
0
 10
63.531379
 20
152.855058
 42
0.023116
  0
VERTEX
  8
0
 10
62.290087
 20
154.674140
 42
0.023566
  0
VERTEX
  8
0
 10
60.384919
 20
156.972440
 42
0.011533
  0
VERTEX
  8
0
 10
57.756859
 20
159.724623
 42
0.011813
  0
VERTEX
  8
0
 10
55.199318
 20
162.164092
 42
0.020995
  0
VERTEX
  8
0
 10
52.965941
 20
164.030647
 42
0.017355
  0
VERTEX
  8
0
 10
51.164136
 20
165.315546
 42
0.423380
  0
SEQEND
  0
POLYLINE
  8
0
 66
1
 70
1
  0
VERTEX
  8
0
 10
178.701236
 20
165.367903
 42
0.094113
  0
VERTEX
  8
0
 10
178.431529
 20
164.971742
 42
0.035048
  0
VERTEX
  8
0
 10
178.205988
 20
164.334113
 42
0.033211
  0
VERTEX
  8
0
 10
178.051728
 20
163.586640
 42
0.034293
  0
VERTEX
  8
0
 10
178.000000
 20
162.833333
 42
-0.080377
  0
VERTEX
  8
0
 10
177.886697
 20
162.133065
 42
-0.091482
  0
VERTEX
  8
0
 10
177.559375
 20
161.538542
 42
-0.100741
  0
VERTEX
  8
0
 10
177.072097
 20
161.141051
 42
-0.121457
  0
VERTEX
  8
0
 10
176.500000
 20
161.000000
 42
0.188641
  0
VERTEX
  8
0
 10
175.803001
 20
160.727332
 42
0.126480
  0
VERTEX
  8
0
 10
175.333333
 20
160.000000
 42
0.063857
  0
VERTEX
  8
0
 10
175.072487
 20
158.673807
 42
0.016668
  0
VERTEX
  8
0
 10
175.000000
 20
156.500000
 42
-0.012561
  0
VERTEX
  8
0
 10
174.931954
 20
153.791806
 42
-0.118503
  0
VERTEX
  8
0
 10
174.606177
 20
152.684561
 42
-0.211782
  0
VERTEX
  8
0
 10
173.886624
 20
152.158440
 42
-0.053538
  0
VERTEX
  8
0
 10
172.411179
 20
152.000000
 42
0.059595
  0
VERTEX
  8
0
 10
170.892166
 20
151.818303
 42
0.244640
  0
VERTEX
  8
0
 10
170.215707
 20
151.227448
 42
0.101370
  0
VERTEX
  8
0
 10
169.994740
 20
149.947382
 42
0.006936
  0
VERTEX
  8
0
 10
170.161179
 20
146.250000
 42
0.000000
  0
VERTEX
  8
0
 10
170.500000
 20
140.500000
 42
0.000000
  0
VERTEX
  8
0
 10
154.250000
 20
140.704619
 42
0.001748
  0
VERTEX
  8
0
 10
143.483971
 20
140.802548
 42
0.032055
  0
VERTEX
  8
0
 10
140.069912
 20
140.602640
 42
0.145839
  0
VERTEX
  8
0
 10
138.590653
 20
139.955813
 42
0.222541
  0
VERTEX
  8
0
 10
138.015313
 20
138.704619
 42
0.160589
  0
VERTEX
  8
0
 10
138.867926
 20
136.177590
 42
0.184002
  0
VERTEX
  8
0
 10
141.012697
 20
134.823943
 42
0.046745
  0
VERTEX
  8
0
 10
145.876260
 20
134.308207
 42
0.002959
  0
VERTEX
  8
0
 10
160.257233
 20
134.217521
 42
0.000000
  0
VERTEX
  8
0
 10
181.014465
 20
134.209452
 42
0.000000
  0
VERTEX
  8
0
 10
181.665173
 20
136.802079
 42
0.033810
  0
VERTEX
  8
0
 10
181.848069
 20
137.816906
 42
0.049893
  0
VERTEX
  8
0
 10
181.858028
 20
138.721258
 42
0.062708
  0
VERTEX
  8
0
 10
181.711075
 20
139.397623
 42
0.232150
  0
VERTEX
  8
0
 10
181.407941
 20
139.694744
 42
-0.292170
  0
VERTEX
  8
0
 10
181.060120
 20
140.122130
 42
-0.011161
  0
VERTEX
  8
0
 10
180.862513
 20
142.257412
 42
-0.016924
  0
VERTEX
  8
0
 10
180.766734
 20
144.908366
 42
-0.010751
  0
VERTEX
  8
0
 10
180.826147
 20
147.997390
 42
-0.005999
  0
VERTEX
  8
0
 10
181.071053
 20
152.637623
 42
-0.052387
  0
VERTEX
  8
0
 10
181.418286
 20
154.667698
 42
-0.152952
  0
VERTEX
  8
0
 10
182.045371
 20
155.629793
 42
-0.174132
  0
VERTEX
  8
0
 10
183.076147
 20
156.000000
 42
0.076422
  0
VERTEX
  8
0
 10
183.811148
 20
156.113000
 42
0.089522
  0
VERTEX
  8
0
 10
184.434868
 20
156.440625
 42
0.100754
  0
VERTEX
  8
0
 10
184.851826
 20
156.927953
 42
0.127409
  0
VERTEX
  8
0
 10
185.000000
 20
157.500000
 42
0.060556
  0
VERTEX
  8
0
 10
184.930273
 20
158.073609
 42
0.079230
  0
VERTEX
  8
0
 10
184.724862
 20
158.559375
 42
0.097254
  0
VERTEX
  8
0
 10
184.420597
 20
158.884618
 42
0.157486
  0
VERTEX
  8
0
 10
184.063358
 20
159.000000
 42
-0.257910
  0
VERTEX
  8
0
 10
183.681246
 20
159.211147
 42
-0.048322
  0
VERTEX
  8
0
 10
183.309806
 20
159.952282
 42
-0.040935
  0
VERTEX
  8
0
 10
183.001526
 20
160.999875
 42
-0.027009
  0
VERTEX
  8
0
 10
182.813358
 20
162.241811
 42
0.077052
  0
VERTEX
  8
0
 10
182.305999
 20
164.227445
 42
0.129931
  0
VERTEX
  8
0
 10
181.255467
 20
165.574419
 42
0.186172
  0
VERTEX
  8
0
 10
179.954004
 20
165.951306
 42
0.176588
  0
SEQEND
  0
POLYLINE
  8
0
 66
1
 70
1
  0
VERTEX
  8
0
 10
182.000000
 20
161.024316
 42
0.040750
  0
VERTEX
  8
0
 10
182.092306
 20
159.893597
 42
0.048301
  0
VERTEX
  8
0
 10
182.367188
 20
158.857938
 42
0.055208
  0
VERTEX
  8
0
 10
182.770018
 20
158.057522
 42
0.153872
  0
VERTEX
  8
0
 10
183.250000
 20
157.662281
 42
-0.134342
  0
VERTEX
  8
0
 10
183.507991
 20
157.465905
 42
-0.451325
  0
VERTEX
  8
0
 10
183.471875
 20
157.282867
 42
-0.102704
  0
VERTEX
  8
0
 10
183.046513
 20
157.140307
 42
-0.020908
  0
VERTEX
  8
0
 10
182.250000
 20
157.078947
 42
0.114771
  0
VERTEX
  8
0
 10
180.996705
 20
156.740687
 42
0.200122
  0
VERTEX
  8
0
 10
180.327632
 20
155.919391
 42
0.066727
  0
VERTEX
  8
0
 10
180.051379
 20
154.155232
 42
0.005518
  0
VERTEX
  8
0
 10
180.000000
 20
149.500000
 42
0.000000
  0
VERTEX
  8
0
 10
180.000000
 20
142.000000
 42
0.000000
  0
VERTEX
  8
0
 10
175.500000
 20
142.000000
 42
0.000000
  0
VERTEX
  8
0
 10
171.000000
 20
142.000000
 42
0.000000
  0
VERTEX
  8
0
 10
171.000000
 20
146.500000
 42
-0.012699
  0
VERTEX
  8
0
 10
171.068074
 20
149.179887
 42
-0.114574
  0
VERTEX
  8
0
 10
171.388889
 20
150.300000
 42
-0.210352
  0
VERTEX
  8
0
 10
172.093239
 20
150.834383
 42
-0.058662
  0
VERTEX
  8
0
 10
173.500000
 20
151.000000
 42
0.058662
  0
VERTEX
  8
0
 10
174.906761
 20
151.165617
 42
0.210352
  0
VERTEX
  8
0
 10
175.611111
 20
151.700000
 42
0.114574
  0
VERTEX
  8
0
 10
175.931926
 20
152.820113
 42
0.012699
  0
VERTEX
  8
0
 10
176.000000
 20
155.500000
 42
-0.016668
  0
VERTEX
  8
0
 10
176.072487
 20
157.673807
 42
-0.063857
  0
VERTEX
  8
0
 10
176.333333
 20
159.000000
 42
-0.126480
  0
VERTEX
  8
0
 10
176.803001
 20
159.727332
 42
-0.188641
  0
VERTEX
  8
0
 10
177.500000
 20
160.000000
 42
0.121457
  0
VERTEX
  8
0
 10
178.072097
 20
160.141051
 42
0.100741
  0
VERTEX
  8
0
 10
178.559375
 20
160.538542
 42
0.091482
  0
VERTEX
  8
0
 10
178.886697
 20
161.133065
 42
0.080377
  0
VERTEX
  8
0
 10
179.000000
 20
161.833333
 42
-0.031454
  0
VERTEX
  8
0
 10
179.047150
 20
162.582088
 42
-0.031832
  0
VERTEX
  8
0
 10
179.187847
 20
163.315972
 42
-0.033562
  0
VERTEX
  8
0
 10
179.393245
 20
163.935450
 42
-0.099865
  0
VERTEX
  8
0
 10
179.639480
 20
164.306147
 42
-0.216769
  0
VERTEX
  8
0
 10
180.487257
 20
164.623768
 42
-0.223301
  0
VERTEX
  8
0
 10
181.269083
 20
164.188639
 42
-0.109311
  0
VERTEX
  8
0
 10
181.823260
 20
162.898737
 42
-0.047041
  0
SEQEND
  0
POLYLINE
  8
0
 66
1
 70
1
  0
VERTEX
  8
0
 10
143.000000
 20
137.500000
 42
-0.099038
  0
VERTEX
  8
0
 10
142.885486
 20
136.927543
 42
-0.097945
  0
VERTEX
  8
0
 10
142.559375
 20
136.440625
 42
-0.097945
  0
VERTEX
  8
0
 10
142.072457
 20
136.114514
 42
-0.099038
  0
VERTEX
  8
0
 10
141.500000
 20
136.000000
 42
-0.099038
  0
VERTEX
  8
0
 10
140.927543
 20
136.114514
 42
-0.097945
  0
VERTEX
  8
0
 10
140.440625
 20
136.440625
 42
-0.097945
  0
VERTEX
  8
0
 10
140.114514
 20
136.927543
 42
-0.099038
  0
VERTEX
  8
0
 10
140.000000
 20
137.500000
 42
-0.099038
  0
VERTEX
  8
0
 10
140.114514
 20
138.072457
 42
-0.097945
  0
VERTEX
  8
0
 10
140.440625
 20
138.559375
 42
-0.097945
  0
VERTEX
  8
0
 10
140.927543
 20
138.885486
 42
-0.099038
  0
VERTEX
  8
0
 10
141.500000
 20
139.000000
 42
-0.099038
  0
VERTEX
  8
0
 10
142.072457
 20
138.885486
 42
-0.097945
  0
VERTEX
  8
0
 10
142.559375
 20
138.559375
 42
-0.097945
  0
VERTEX
  8
0
 10
142.885486
 20
138.072457
 42
-0.099038
  0
SEQEND
  0
POLYLINE
  8
0
 66
1
 70
1
  0
VERTEX
  8
0
 10
149.000000
 20
137.500000
 42
-0.130775
  0
VERTEX
  8
0
 10
148.846791
 20
136.924246
 42
-0.102140
  0
VERTEX
  8
0
 10
148.416667
 20
136.437500
 42
-0.088920
  0
VERTEX
  8
0
 10
147.769411
 20
136.111864
 42
-0.072314
  0
VERTEX
  8
0
 10
147.000000
 20
136.000000
 42
-0.072314
  0
VERTEX
  8
0
 10
146.230589
 20
136.111864
 42
-0.088920
  0
VERTEX
  8
0
 10
145.583333
 20
136.437500
 42
-0.102140
  0
VERTEX
  8
0
 10
145.153209
 20
136.924246
 42
-0.130775
  0
VERTEX
  8
0
 10
145.000000
 20
137.500000
 42
-0.130775
  0
VERTEX
  8
0
 10
145.153209
 20
138.075754
 42
-0.102140
  0
VERTEX
  8
0
 10
145.583333
 20
138.562500
 42
-0.088920
  0
VERTEX
  8
0
 10
146.230589
 20
138.888136
 42
-0.072314
  0
VERTEX
  8
0
 10
147.000000
 20
139.000000
 42
-0.072314
  0
VERTEX
  8
0
 10
147.769411
 20
138.888136
 42
-0.088920
  0
VERTEX
  8
0
 10
148.416667
 20
138.562500
 42
-0.102140
  0
VERTEX
  8
0
 10
148.846791
 20
138.075754
 42
-0.130775
  0
SEQEND
  0
POLYLINE
  8
0
 66
1
 70
1
  0
VERTEX
  8
0
 10
155.000000
 20
137.500000
 42
-0.099038
  0
VERTEX
  8
0
 10
154.885486
 20
136.927543
 42
-0.097945
  0
VERTEX
  8
0
 10
154.559375
 20
136.440625
 42
-0.097945
  0
VERTEX
  8
0
 10
154.072457
 20
136.114514
 42
-0.099038
  0
VERTEX
  8
0
 10
153.500000
 20
136.000000
 42
-0.099038
  0
VERTEX
  8
0
 10
152.927543
 20
136.114514
 42
-0.097945
  0
VERTEX
  8
0
 10
152.440625
 20
136.440625
 42
-0.097945
  0
VERTEX
  8
0
 10
152.114514
 20
136.927543
 42
-0.099038
  0
VERTEX
  8
0
 10
152.000000
 20
137.500000
 42
-0.099038
  0
VERTEX
  8
0
 10
152.114514
 20
138.072457
 42
-0.097945
  0
VERTEX
  8
0
 10
152.440625
 20
138.559375
 42
-0.097945
  0
VERTEX
  8
0
 10
152.927543
 20
138.885486
 42
-0.099038
  0
VERTEX
  8
0
 10
153.500000
 20
139.000000
 42
-0.099038
  0
VERTEX
  8
0
 10
154.072457
 20
138.885486
 42
-0.097945
  0
VERTEX
  8
0
 10
154.559375
 20
138.559375
 42
-0.097945
  0
VERTEX
  8
0
 10
154.885486
 20
138.072457
 42
-0.099038
  0
SEQEND
  0
POLYLINE
  8
0
 66
1
 70
1
  0
VERTEX
  8
0
 10
162.000000
 20
137.500000
 42
-0.140575
  0
VERTEX
  8
0
 10
161.822179
 20
136.880020
 42
-0.118484
  0
VERTEX
  8
0
 10
161.333333
 20
136.400000
 42
-0.088208
  0
VERTEX
  8
0
 10
160.543379
 20
136.098630
 42
-0.047160
  0
VERTEX
  8
0
 10
159.500000
 20
136.000000
 42
-0.047160
  0
VERTEX
  8
0
 10
158.456621
 20
136.098630
 42
-0.088208
  0
VERTEX
  8
0
 10
157.666667
 20
136.400000
 42
-0.118484
  0
VERTEX
  8
0
 10
157.177821
 20
136.880020
 42
-0.140575
  0
VERTEX
  8
0
 10
157.000000
 20
137.500000
 42
-0.140575
  0
VERTEX
  8
0
 10
157.177821
 20
138.119980
 42
-0.118484
  0
VERTEX
  8
0
 10
157.666667
 20
138.600000
 42
-0.088208
  0
VERTEX
  8
0
 10
158.456621
 20
138.901370
 42
-0.047160
  0
VERTEX
  8
0
 10
159.500000
 20
139.000000
 42
-0.047160
  0
VERTEX
  8
0
 10
160.543379
 20
138.901370
 42
-0.088208
  0
VERTEX
  8
0
 10
161.333333
 20
138.600000
 42
-0.118484
  0
VERTEX
  8
0
 10
161.822179
 20
138.119980
 42
-0.140575
  0
SEQEND
  0
POLYLINE
  8
0
 66
1
 70
1
  0
VERTEX
  8
0
 10
169.000000
 20
137.500000
 42
-0.130775
  0
VERTEX
  8
0
 10
168.846791
 20
136.924246
 42
-0.102140
  0
VERTEX
  8
0
 10
168.416667
 20
136.437500
 42
-0.088920
  0
VERTEX
  8
0
 10
167.769411
 20
136.111864
 42
-0.072314
  0
VERTEX
  8
0
 10
167.000000
 20
136.000000
 42
-0.072314
  0
VERTEX
  8
0
 10
166.230589
 20
136.111864
 42
-0.088920
  0
VERTEX
  8
0
 10
165.583333
 20
136.437500
 42
-0.102140
  0
VERTEX
  8
0
 10
165.153209
 20
136.924246
 42
-0.130775
  0
VERTEX
  8
0
 10
165.000000
 20
137.500000
 42
-0.130775
  0
VERTEX
  8
0
 10
165.153209
 20
138.075754
 42
-0.102140
  0
VERTEX
  8
0
 10
165.583333
 20
138.562500
 42
-0.088920
  0
VERTEX
  8
0
 10
166.230589
 20
138.888136
 42
-0.072314
  0
VERTEX
  8
0
 10
167.000000
 20
139.000000
 42
-0.072314
  0
VERTEX
  8
0
 10
167.769411
 20
138.888136
 42
-0.088920
  0
VERTEX
  8
0
 10
168.416667
 20
138.562500
 42
-0.102140
  0
VERTEX
  8
0
 10
168.846791
 20
138.075754
 42
-0.130775
  0
SEQEND
  0
POLYLINE
  8
0
 66
1
 70
1
  0
VERTEX
  8
0
 10
174.000000
 20
137.500000
 42
-0.130775
  0
VERTEX
  8
0
 10
173.846791
 20
136.924246
 42
-0.102140
  0
VERTEX
  8
0
 10
173.416667
 20
136.437500
 42
-0.088920
  0
VERTEX
  8
0
 10
172.769411
 20
136.111864
 42
-0.072314
  0
VERTEX
  8
0
 10
172.000000
 20
136.000000
 42
-0.072314
  0
VERTEX
  8
0
 10
171.230589
 20
136.111864
 42
-0.088920
  0
VERTEX
  8
0
 10
170.583333
 20
136.437500
 42
-0.102140
  0
VERTEX
  8
0
 10
170.153209
 20
136.924246
 42
-0.130775
  0
VERTEX
  8
0
 10
170.000000
 20
137.500000
 42
-0.130775
  0
VERTEX
  8
0
 10
170.153209
 20
138.075754
 42
-0.102140
  0
VERTEX
  8
0
 10
170.583333
 20
138.562500
 42
-0.088920
  0
VERTEX
  8
0
 10
171.230589
 20
138.888136
 42
-0.072314
  0
VERTEX
  8
0
 10
172.000000
 20
139.000000
 42
-0.072314
  0
VERTEX
  8
0
 10
172.769411
 20
138.888136
 42
-0.088920
  0
VERTEX
  8
0
 10
173.416667
 20
138.562500
 42
-0.102140
  0
VERTEX
  8
0
 10
173.846791
 20
138.075754
 42
-0.130775
  0
SEQEND
  0
POLYLINE
  8
0
 66
1
 70
1
  0
VERTEX
  8
0
 10
180.000000
 20
137.500000
 42
-0.130775
  0
VERTEX
  8
0
 10
179.846791
 20
136.924246
 42
-0.102140
  0
VERTEX
  8
0
 10
179.416667
 20
136.437500
 42
-0.088920
  0
VERTEX
  8
0
 10
178.769411
 20
136.111864
 42
-0.072314
  0
VERTEX
  8
0
 10
178.000000
 20
136.000000
 42
-0.072314
  0
VERTEX
  8
0
 10
177.230589
 20
136.111864
 42
-0.088920
  0
VERTEX
  8
0
 10
176.583333
 20
136.437500
 42
-0.102140
  0
VERTEX
  8
0
 10
176.153209
 20
136.924246
 42
-0.130775
  0
VERTEX
  8
0
 10
176.000000
 20
137.500000
 42
-0.130775
  0
VERTEX
  8
0
 10
176.153209
 20
138.075754
 42
-0.102140
  0
VERTEX
  8
0
 10
176.583333
 20
138.562500
 42
-0.088920
  0
VERTEX
  8
0
 10
177.230589
 20
138.888136
 42
-0.072314
  0
VERTEX
  8
0
 10
178.000000
 20
139.000000
 42
-0.072314
  0
VERTEX
  8
0
 10
178.769411
 20
138.888136
 42
-0.088920
  0
VERTEX
  8
0
 10
179.416667
 20
138.562500
 42
-0.102140
  0
VERTEX
  8
0
 10
179.846791
 20
138.075754
 42
-0.130775
  0
SEQEND
  0
POLYLINE
  8
0
 66
1
 70
1
  0
VERTEX
  8
0
 10
4.250000
 20
160.266667
 42
0.208421
  0
VERTEX
  8
0
 10
3.391506
 20
159.475416
 42
0.091248
  0
VERTEX
  8
0
 10
3.026474
 20
157.938472
 42
0.106600
  0
VERTEX
  8
0
 10
3.255661
 20
156.529104
 42
0.308567
  0
VERTEX
  8
0
 10
4.031385
 20
156.000000
 42
0.206407
  0
VERTEX
  8
0
 10
4.851905
 20
156.353795
 42
0.078456
  0
VERTEX
  8
0
 10
5.570599
 20
157.404282
 42
0.073760
  0
VERTEX
  8
0
 10
5.968439
 20
158.708081
 42
0.130924
  0
VERTEX
  8
0
 10
5.844330
 20
159.817011
 42
0.136240
  0
VERTEX
  8
0
 10
5.617051
 20
160.120598
 42
0.095907
  0
VERTEX
  8
0
 10
5.233959
 20
160.313330
 42
0.082950
  0
VERTEX
  8
0
 10
4.753555
 20
160.366084
 42
0.069500
  0
SEQEND
  0
POLYLINE
  8
0
 66
1
 70
1
  0
VERTEX
  8
0
 10
3.000000
 20
140.947228
 42
0.000000
  0
VERTEX
  8
0
 10
3.000000
 20
126.894456
 42
0.000000
  0
VERTEX
  8
0
 10
9.126318
 20
121.197228
 42
0.002581
  0
VERTEX
  8
0
 10
14.988755
 20
115.801570
 42
0.182184
  0
VERTEX
  8
0
 10
16.201379
 20
115.319506
 42
0.666041
  0
VERTEX
  8
0
 10
16.415638
 20
115.807628
 42
0.003109
  0
VERTEX
  8
0
 10
11.250000
 20
121.159070
 42
0.000000
  0
VERTEX
  8
0
 10
5.000000
 20
127.553811
 42
0.000000
  0
VERTEX
  8
0
 10
5.000000
 20
141.276905
 42
0.005534
  0
VERTEX
  8
0
 10
4.936604
 20
147.004820
 42
0.012652
  0
VERTEX
  8
0
 10
4.731783
 20
151.319226
 42
0.007606
  0
VERTEX
  8
0
 10
4.442392
 20
154.601045
 42
0.384310
  0
VERTEX
  8
0
 10
4.000000
 20
155.000000
 42
0.385131
  0
VERTEX
  8
0
 10
3.556537
 20
154.598927
 42
0.007316
  0
VERTEX
  8
0
 10
3.267790
 20
151.236807
 42
0.012377
  0
VERTEX
  8
0
 10
3.063247
 20
146.821000
 42
0.005384
  0
SEQEND
  0
POLYLINE
  8
0
 66
1
 70
1
  0
VERTEX
  8
0
 10
64.666667
 20
150.333333
 42
0.077955
  0
VERTEX
  8
0
 10
64.410903
 20
149.982401
 42
0.038133
  0
VERTEX
  8
0
 10
64.195833
 20
149.470833
 42
0.036641
  0
VERTEX
  8
0
 10
64.049145
 20
148.892744
 42
0.043841
  0
VERTEX
  8
0
 10
64.000000
 20
148.333333
 42
0.212322
  0
VERTEX
  8
0
 10
64.413043
 20
147.404501
 42
0.190936
  0
VERTEX
  8
0
 10
65.405288
 20
147.034857
 42
0.151494
  0
VERTEX
  8
0
 10
66.566937
 20
147.421654
 42
0.146602
  0
VERTEX
  8
0
 10
67.324110
 20
148.402234
 42
0.127800
  0
VERTEX
  8
0
 10
67.476727
 20
149.756921
 42
0.202802
  0
VERTEX
  8
0
 10
66.883176
 20
150.742160
 42
0.217062
  0
VERTEX
  8
0
 10
65.801907
 20
150.962374
 42
0.140621
  0
SEQEND
  0
POLYLINE
  8
0
 66
1
 70
1
  0
VERTEX
  8
0
 10
68.000000
 20
146.426676
 42
0.099154
  0
VERTEX
  8
0
 10
68.121465
 20
145.820192
 42
0.133817
  0
VERTEX
  8
0
 10
68.463530
 20
145.380696
 42
0.126354
  0
VERTEX
  8
0
 10
68.998290
 20
145.159635
 42
0.083236
  0
VERTEX
  8
0
 10
69.667134
 20
145.176676
 42
0.100818
  0
VERTEX
  8
0
 10
71.099763
 20
145.769787
 42
0.210781
  0
VERTEX
  8
0
 10
71.729914
 20
146.770795
 42
0.297834
  0
VERTEX
  8
0
 10
71.327282
 20
147.642779
 42
0.140740
  0
VERTEX
  8
0
 10
70.083333
 20
148.000000
 42
0.066422
  0
VERTEX
  8
0
 10
69.248452
 20
147.888599
 42
0.095670
  0
VERTEX
  8
0
 10
68.581040
 20
147.561201
 42
0.111791
  0
VERTEX
  8
0
 10
68.153230
 20
147.054646
 42
0.120240
  0
SEQEND
  0
POLYLINE
  8
0
 66
1
 70
1
  0
VERTEX
  8
0
 10
73.639480
 20
146.306147
 42
0.128822
  0
VERTEX
  8
0
 10
73.066992
 20
145.327196
 42
0.132661
  0
VERTEX
  8
0
 10
73.056720
 20
144.204890
 42
0.152160
  0
VERTEX
  8
0
 10
73.597640
 20
143.335619
 42
0.179946
  0
VERTEX
  8
0
 10
74.500000
 20
143.000000
 42
0.095012
  0
VERTEX
  8
0
 10
75.072549
 20
143.109789
 42
0.096907
  0
VERTEX
  8
0
 10
75.559375
 20
143.423289
 42
0.098834
  0
VERTEX
  8
0
 10
75.885271
 20
143.891133
 42
0.103216
  0
VERTEX
  8
0
 10
76.000000
 20
144.440983
 42
0.098073
  0
VERTEX
  8
0
 10
75.782775
 20
145.537796
 42
0.128462
  0
VERTEX
  8
0
 10
75.169706
 20
146.350022
 42
0.172865
  0
VERTEX
  8
0
 10
74.376680
 20
146.618432
 42
0.194761
  0
SEQEND
  0
POLYLINE
  8
0
 66
1
 70
1
  0
VERTEX
  8
0
 10
83.000000
 20
145.500000
 42
0.099038
  0
VERTEX
  8
0
 10
83.114514
 20
144.927543
 42
0.097945
  0
VERTEX
  8
0
 10
83.440625
 20
144.440625
 42
0.097945
  0
VERTEX
  8
0
 10
83.927543
 20
144.114514
 42
0.099038
  0
VERTEX
  8
0
 10
84.500000
 20
144.000000
 42
0.099038
  0
VERTEX
  8
0
 10
85.072457
 20
144.114514
 42
0.097945
  0
VERTEX
  8
0
 10
85.559375
 20
144.440625
 42
0.097945
  0
VERTEX
  8
0
 10
85.885486
 20
144.927543
 42
0.099038
  0
VERTEX
  8
0
 10
86.000000
 20
145.500000
 42
0.099038
  0
VERTEX
  8
0
 10
85.885486
 20
146.072457
 42
0.097945
  0
VERTEX
  8
0
 10
85.559375
 20
146.559375
 42
0.097945
  0
VERTEX
  8
0
 10
85.072457
 20
146.885486
 42
0.099038
  0
VERTEX
  8
0
 10
84.500000
 20
147.000000
 42
0.099038
  0
VERTEX
  8
0
 10
83.927543
 20
146.885486
 42
0.097945
  0
VERTEX
  8
0
 10
83.440625
 20
146.559375
 42
0.097945
  0
VERTEX
  8
0
 10
83.114514
 20
146.072457
 42
0.099038
  0
SEQEND
  0
POLYLINE
  8
0
 66
1
 70
1
  0
VERTEX
  8
0
 10
87.000000
 20
145.500000
 42
0.130775
  0
VERTEX
  8
0
 10
87.153209
 20
144.924246
 42
0.102140
  0
VERTEX
  8
0
 10
87.583333
 20
144.437500
 42
0.088920
  0
VERTEX
  8
0
 10
88.230589
 20
144.111864
 42
0.072314
  0
VERTEX
  8
0
 10
89.000000
 20
144.000000
 42
0.072314
  0
VERTEX
  8
0
 10
89.769411
 20
144.111864
 42
0.088920
  0
VERTEX
  8
0
 10
90.416667
 20
144.437500
 42
0.102140
  0
VERTEX
  8
0
 10
90.846791
 20
144.924246
 42
0.130775
  0
VERTEX
  8
0
 10
91.000000
 20
145.500000
 42
0.130775
  0
VERTEX
  8
0
 10
90.846791
 20
146.075754
 42
0.102140
  0
VERTEX
  8
0
 10
90.416667
 20
146.562500
 42
0.088920
  0
VERTEX
  8
0
 10
89.769411
 20
146.888136
 42
0.072314
  0
VERTEX
  8
0
 10
89.000000
 20
147.000000
 42
0.072314
  0
VERTEX
  8
0
 10
88.230589
 20
146.888136
 42
0.088920
  0
VERTEX
  8
0
 10
87.583333
 20
146.562500
 42
0.102140
  0
VERTEX
  8
0
 10
87.153209
 20
146.075754
 42
0.130775
  0
SEQEND
  0
POLYLINE
  8
0
 66
1
 70
1
  0
VERTEX
  8
0
 10
78.000000
 20
144.500000
 42
0.099038
  0
VERTEX
  8
0
 10
78.114514
 20
143.927543
 42
0.097945
  0
VERTEX
  8
0
 10
78.440625
 20
143.440625
 42
0.097945
  0
VERTEX
  8
0
 10
78.927543
 20
143.114514
 42
0.099038
  0
VERTEX
  8
0
 10
79.500000
 20
143.000000
 42
0.099038
  0
VERTEX
  8
0
 10
80.072457
 20
143.114514
 42
0.097945
  0
VERTEX
  8
0
 10
80.559375
 20
143.440625
 42
0.097945
  0
VERTEX
  8
0
 10
80.885486
 20
143.927543
 42
0.099038
  0
VERTEX
  8
0
 10
81.000000
 20
144.500000
 42
0.099038
  0
VERTEX
  8
0
 10
80.885486
 20
145.072457
 42
0.097945
  0
VERTEX
  8
0
 10
80.559375
 20
145.559375
 42
0.097945
  0
VERTEX
  8
0
 10
80.072457
 20
145.885486
 42
0.099038
  0
VERTEX
  8
0
 10
79.500000
 20
146.000000
 42
0.099038
  0
VERTEX
  8
0
 10
78.927543
 20
145.885486
 42
0.097945
  0
VERTEX
  8
0
 10
78.440625
 20
145.559375
 42
0.097945
  0
VERTEX
  8
0
 10
78.114514
 20
145.072457
 42
0.099038
  0
SEQEND
  0
POLYLINE
  8
0
 66
1
 70
1
  0
VERTEX
  8
0
 10
22.000000
 20
133.500000
 42
0.099038
  0
VERTEX
  8
0
 10
22.114514
 20
132.927543
 42
0.097945
  0
VERTEX
  8
0
 10
22.440625
 20
132.440625
 42
0.097945
  0
VERTEX
  8
0
 10
22.927543
 20
132.114514
 42
0.099038
  0
VERTEX
  8
0
 10
23.500000
 20
132.000000
 42
0.099038
  0
VERTEX
  8
0
 10
24.072457
 20
132.114514
 42
0.097945
  0
VERTEX
  8
0
 10
24.559375
 20
132.440625
 42
0.097945
  0
VERTEX
  8
0
 10
24.885486
 20
132.927543
 42
0.099038
  0
VERTEX
  8
0
 10
25.000000
 20
133.500000
 42
0.099038
  0
VERTEX
  8
0
 10
24.885486
 20
134.072457
 42
0.097945
  0
VERTEX
  8
0
 10
24.559375
 20
134.559375
 42
0.097945
  0
VERTEX
  8
0
 10
24.072457
 20
134.885486
 42
0.099038
  0
VERTEX
  8
0
 10
23.500000
 20
135.000000
 42
0.099038
  0
VERTEX
  8
0
 10
22.927543
 20
134.885486
 42
0.097945
  0
VERTEX
  8
0
 10
22.440625
 20
134.559375
 42
0.097945
  0
VERTEX
  8
0
 10
22.114514
 20
134.072457
 42
0.099038
  0
SEQEND
  0
POLYLINE
  8
0
 66
1
 70
1
  0
VERTEX
  8
0
 10
26.000000
 20
131.500000
 42
0.099038
  0
VERTEX
  8
0
 10
26.114514
 20
130.927543
 42
0.097945
  0
VERTEX
  8
0
 10
26.440625
 20
130.440625
 42
0.097945
  0
VERTEX
  8
0
 10
26.927543
 20
130.114514
 42
0.099038
  0
VERTEX
  8
0
 10
27.500000
 20
130.000000
 42
0.099038
  0
VERTEX
  8
0
 10
28.072457
 20
130.114514
 42
0.097945
  0
VERTEX
  8
0
 10
28.559375
 20
130.440625
 42
0.097945
  0
VERTEX
  8
0
 10
28.885486
 20
130.927543
 42
0.099038
  0
VERTEX
  8
0
 10
29.000000
 20
131.500000
 42
0.099038
  0
VERTEX
  8
0
 10
28.885486
 20
132.072457
 42
0.097945
  0
VERTEX
  8
0
 10
28.559375
 20
132.559375
 42
0.097945
  0
VERTEX
  8
0
 10
28.072457
 20
132.885486
 42
0.099038
  0
VERTEX
  8
0
 10
27.500000
 20
133.000000
 42
0.099038
  0
VERTEX
  8
0
 10
26.927543
 20
132.885486
 42
0.097945
  0
VERTEX
  8
0
 10
26.440625
 20
132.559375
 42
0.097945
  0
VERTEX
  8
0
 10
26.114514
 20
132.072457
 42
0.099038
  0
SEQEND
  0
POLYLINE
  8
0
 66
1
 70
1
  0
VERTEX
  8
0
 10
141.000000
 20
123.500000
 42
0.008575
  0
VERTEX
  8
0
 10
141.066212
 20
119.639392
 42
0.017647
  0
VERTEX
  8
0
 10
141.276316
 20
116.625000
 42
0.013417
  0
VERTEX
  8
0
 10
141.576184
 20
114.361438
 42
0.368504
  0
VERTEX
  8
0
 10
142.000000
 20
114.000000
 42
0.368504
  0
VERTEX
  8
0
 10
142.423816
 20
114.361438
 42
0.013417
  0
VERTEX
  8
0
 10
142.723684
 20
116.625000
 42
0.017647
  0
VERTEX
  8
0
 10
142.933788
 20
119.639392
 42
0.008575
  0
VERTEX
  8
0
 10
143.000000
 20
123.500000
 42
0.008575
  0
VERTEX
  8
0
 10
142.933788
 20
127.360608
 42
0.017647
  0
VERTEX
  8
0
 10
142.723684
 20
130.375000
 42
0.013417
  0
VERTEX
  8
0
 10
142.423816
 20
132.638562
 42
0.368504
  0
VERTEX
  8
0
 10
142.000000
 20
133.000000
 42
0.368504
  0
VERTEX
  8
0
 10
141.576184
 20
132.638562
 42
0.013417
  0
VERTEX
  8
0
 10
141.276316
 20
130.375000
 42
0.017647
  0
VERTEX
  8
0
 10
141.066212
 20
127.360608
 42
0.008575
  0
SEQEND
  0
POLYLINE
  8
0
 66
1
 70
1
  0
VERTEX
  8
0
 10
30.000000
 20
131.000000
 42
0.365646
  0
VERTEX
  8
0
 10
30.355190
 20
130.579235
 42
0.014491
  0
VERTEX
  8
0
 10
32.500000
 20
130.277778
 42
0.018502
  0
VERTEX
  8
0
 10
35.360273
 20
130.066717
 42
0.009164
  0
VERTEX
  8
0
 10
39.000000
 20
130.000000
 42
0.000000
  0
VERTEX
  8
0
 10
48.000000
 20
130.000000
 42
0.000000
  0
VERTEX
  8
0
 10
48.000000
 20
121.500000
 42
0.000000
  0
VERTEX
  8
0
 10
48.000000
 20
113.000000
 42
0.000000
  0
VERTEX
  8
0
 10
37.500000
 20
113.000000
 42
0.007593
  0
VERTEX
  8
0
 10
33.197465
 20
112.934656
 42
0.016146
  0
VERTEX
  8
0
 10
29.875000
 20
112.726190
 42
0.011579
  0
VERTEX
  8
0
 10
27.372518
 20
112.429243
 42
0.373418
  0
VERTEX
  8
0
 10
27.000000
 20
112.000000
 42
0.377473
  0
VERTEX
  8
0
 10
27.382029
 20
111.566068
 42
0.010078
  0
VERTEX
  8
0
 10
30.125000
 20
111.271739
 42
0.014876
  0
VERTEX
  8
0
 10
33.755364
 20
111.064625
 42
0.006810
  0
VERTEX
  8
0
 10
38.500000
 20
111.000000
 42
0.000000
  0
VERTEX
  8
0
 10
50.000000
 20
111.000000
 42
0.000000
  0
VERTEX
  8
0
 10
50.000000
 20
121.500000
 42
0.000000
  0
VERTEX
  8
0
 10
50.000000
 20
132.000000
 42
0.000000
  0
VERTEX
  8
0
 10
40.000000
 20
132.000000
 42
0.008055
  0
VERTEX
  8
0
 10
35.918453
 20
131.934243
 42
0.016864
  0
VERTEX
  8
0
 10
32.750000
 20
131.725000
 42
0.012451
  0
VERTEX
  8
0
 10
30.367196
 20
131.426633
 42
0.371083
  0
SEQEND
  0
POLYLINE
  8
0
 66
1
 70
1
  0
VERTEX
  8
0
 10
136.000000
 20
122.500000
 42
0.099038
  0
VERTEX
  8
0
 10
136.114514
 20
121.927543
 42
0.097945
  0
VERTEX
  8
0
 10
136.440625
 20
121.440625
 42
0.097945
  0
VERTEX
  8
0
 10
136.927543
 20
121.114514
 42
0.099038
  0
VERTEX
  8
0
 10
137.500000
 20
121.000000
 42
0.099038
  0
VERTEX
  8
0
 10
138.072457
 20
121.114514
 42
0.097945
  0
VERTEX
  8
0
 10
138.559375
 20
121.440625
 42
0.097945
  0
VERTEX
  8
0
 10
138.885486
 20
121.927543
 42
0.099038
  0
VERTEX
  8
0
 10
139.000000
 20
122.500000
 42
0.099038
  0
VERTEX
  8
0
 10
138.885486
 20
123.072457
 42
0.097945
  0
VERTEX
  8
0
 10
138.559375
 20
123.559375
 42
0.097945
  0
VERTEX
  8
0
 10
138.072457
 20
123.885486
 42
0.099038
  0
VERTEX
  8
0
 10
137.500000
 20
124.000000
 42
0.099038
  0
VERTEX
  8
0
 10
136.927543
 20
123.885486
 42
0.097945
  0
VERTEX
  8
0
 10
136.440625
 20
123.559375
 42
0.097945
  0
VERTEX
  8
0
 10
136.114514
 20
123.072457
 42
0.099038
  0
SEQEND
  0
POLYLINE
  8
0
 66
1
 70
1
  0
VERTEX
  8
0
 10
114.000000
 20
120.500000
 42
0.099038
  0
VERTEX
  8
0
 10
114.114514
 20
119.927543
 42
0.097945
  0
VERTEX
  8
0
 10
114.440625
 20
119.440625
 42
0.097945
  0
VERTEX
  8
0
 10
114.927543
 20
119.114514
 42
0.099038
  0
VERTEX
  8
0
 10
115.500000
 20
119.000000
 42
0.099038
  0
VERTEX
  8
0
 10
116.072457
 20
119.114514
 42
0.097945
  0
VERTEX
  8
0
 10
116.559375
 20
119.440625
 42
0.097945
  0
VERTEX
  8
0
 10
116.885486
 20
119.927543
 42
0.099038
  0
VERTEX
  8
0
 10
117.000000
 20
120.500000
 42
0.099038
  0
VERTEX
  8
0
 10
116.885486
 20
121.072457
 42
0.097945
  0
VERTEX
  8
0
 10
116.559375
 20
121.559375
 42
0.097945
  0
VERTEX
  8
0
 10
116.072457
 20
121.885486
 42
0.099038
  0
VERTEX
  8
0
 10
115.500000
 20
122.000000
 42
0.099038
  0
VERTEX
  8
0
 10
114.927543
 20
121.885486
 42
0.097945
  0
VERTEX
  8
0
 10
114.440625
 20
121.559375
 42
0.097945
  0
VERTEX
  8
0
 10
114.114514
 20
121.072457
 42
0.099038
  0
SEQEND
  0
POLYLINE
  8
0
 66
1
 70
1
  0
VERTEX
  8
0
 10
132.000000
 20
117.500000
 42
0.099038
  0
VERTEX
  8
0
 10
132.114514
 20
116.927543
 42
0.097945
  0
VERTEX
  8
0
 10
132.440625
 20
116.440625
 42
0.097945
  0
VERTEX
  8
0
 10
132.927543
 20
116.114514
 42
0.099038
  0
VERTEX
  8
0
 10
133.500000
 20
116.000000
 42
0.099038
  0
VERTEX
  8
0
 10
134.072457
 20
116.114514
 42
0.097945
  0
VERTEX
  8
0
 10
134.559375
 20
116.440625
 42
0.097945
  0
VERTEX
  8
0
 10
134.885486
 20
116.927543
 42
0.099038
  0
VERTEX
  8
0
 10
135.000000
 20
117.500000
 42
0.099038
  0
VERTEX
  8
0
 10
134.885486
 20
118.072457
 42
0.097945
  0
VERTEX
  8
0
 10
134.559375
 20
118.559375
 42
0.097945
  0
VERTEX
  8
0
 10
134.072457
 20
118.885486
 42
0.099038
  0
VERTEX
  8
0
 10
133.500000
 20
119.000000
 42
0.099038
  0
VERTEX
  8
0
 10
132.927543
 20
118.885486
 42
0.097945
  0
VERTEX
  8
0
 10
132.440625
 20
118.559375
 42
0.097945
  0
VERTEX
  8
0
 10
132.114514
 20
118.072457
 42
0.099038
  0
SEQEND
  0
POLYLINE
  8
0
 66
1
 70
1
  0
VERTEX
  8
0
 10
120.000000
 20
116.500000
 42
0.099038
  0
VERTEX
  8
0
 10
120.114514
 20
115.927543
 42
0.097945
  0
VERTEX
  8
0
 10
120.440625
 20
115.440625
 42
0.097945
  0
VERTEX
  8
0
 10
120.927543
 20
115.114514
 42
0.099038
  0
VERTEX
  8
0
 10
121.500000
 20
115.000000
 42
0.099038
  0
VERTEX
  8
0
 10
122.072457
 20
115.114514
 42
0.097945
  0
VERTEX
  8
0
 10
122.559375
 20
115.440625
 42
0.097945
  0
VERTEX
  8
0
 10
122.885486
 20
115.927543
 42
0.099038
  0
VERTEX
  8
0
 10
123.000000
 20
116.500000
 42
0.099038
  0
VERTEX
  8
0
 10
122.885486
 20
117.072457
 42
0.097945
  0
VERTEX
  8
0
 10
122.559375
 20
117.559375
 42
0.097945
  0
VERTEX
  8
0
 10
122.072457
 20
117.885486
 42
0.099038
  0
VERTEX
  8
0
 10
121.500000
 20
118.000000
 42
0.099038
  0
VERTEX
  8
0
 10
120.927543
 20
117.885486
 42
0.097945
  0
VERTEX
  8
0
 10
120.440625
 20
117.559375
 42
0.097945
  0
VERTEX
  8
0
 10
120.114514
 20
117.072457
 42
0.099038
  0
SEQEND
  0
POLYLINE
  8
0
 66
1
 70
1
  0
VERTEX
  8
0
 10
187.000000
 20
115.500000
 42
0.099038
  0
VERTEX
  8
0
 10
187.114514
 20
114.927543
 42
0.097945
  0
VERTEX
  8
0
 10
187.440625
 20
114.440625
 42
0.097945
  0
VERTEX
  8
0
 10
187.927543
 20
114.114514
 42
0.099038
  0
VERTEX
  8
0
 10
188.500000
 20
114.000000
 42
0.099038
  0
VERTEX
  8
0
 10
189.072457
 20
114.114514
 42
0.097945
  0
VERTEX
  8
0
 10
189.559375
 20
114.440625
 42
0.097945
  0
VERTEX
  8
0
 10
189.885486
 20
114.927543
 42
0.099038
  0
VERTEX
  8
0
 10
190.000000
 20
115.500000
 42
0.099038
  0
VERTEX
  8
0
 10
189.885486
 20
116.072457
 42
0.097945
  0
VERTEX
  8
0
 10
189.559375
 20
116.559375
 42
0.097945
  0
VERTEX
  8
0
 10
189.072457
 20
116.885486
 42
0.099038
  0
VERTEX
  8
0
 10
188.500000
 20
117.000000
 42
0.099038
  0
VERTEX
  8
0
 10
187.927543
 20
116.885486
 42
0.097945
  0
VERTEX
  8
0
 10
187.440625
 20
116.559375
 42
0.097945
  0
VERTEX
  8
0
 10
187.114514
 20
116.072457
 42
0.099038
  0
SEQEND
  0
POLYLINE
  8
0
 66
1
 70
1
  0
VERTEX
  8
0
 10
17.000000
 20
113.000000
 42
0.099038
  0
VERTEX
  8
0
 10
17.076342
 20
112.618362
 42
0.097945
  0
VERTEX
  8
0
 10
17.293750
 20
112.293750
 42
0.097945
  0
VERTEX
  8
0
 10
17.618362
 20
112.076342
 42
0.099038
  0
VERTEX
  8
0
 10
18.000000
 20
112.000000
 42
0.099038
  0
VERTEX
  8
0
 10
18.381638
 20
112.076342
 42
0.097945
  0
VERTEX
  8
0
 10
18.706250
 20
112.293750
 42
0.097945
  0
VERTEX
  8
0
 10
18.923658
 20
112.618362
 42
0.099038
  0
VERTEX
  8
0
 10
19.000000
 20
113.000000
 42
0.099038
  0
VERTEX
  8
0
 10
18.923658
 20
113.381638
 42
0.097945
  0
VERTEX
  8
0
 10
18.706250
 20
113.706250
 42
0.097945
  0
VERTEX
  8
0
 10
18.381638
 20
113.923658
 42
0.099038
  0
VERTEX
  8
0
 10
18.000000
 20
114.000000
 42
0.099038
  0
VERTEX
  8
0
 10
17.618362
 20
113.923658
 42
0.097945
  0
VERTEX
  8
0
 10
17.293750
 20
113.706250
 42
0.097945
  0
VERTEX
  8
0
 10
17.076342
 20
113.381638
 42
0.099038
  0
SEQEND
  0
POLYLINE
  8
0
 66
1
 70
1
  0
VERTEX
  8
0
 10
20.000000
 20
112.000000
 42
0.099038
  0
VERTEX
  8
0
 10
20.076342
 20
111.618362
 42
0.097945
  0
VERTEX
  8
0
 10
20.293750
 20
111.293750
 42
0.097945
  0
VERTEX
  8
0
 10
20.618362
 20
111.076342
 42
0.099038
  0
VERTEX
  8
0
 10
21.000000
 20
111.000000
 42
0.099038
  0
VERTEX
  8
0
 10
21.381638
 20
111.076342
 42
0.097945
  0
VERTEX
  8
0
 10
21.706250
 20
111.293750
 42
0.097945
  0
VERTEX
  8
0
 10
21.923658
 20
111.618362
 42
0.099038
  0
VERTEX
  8
0
 10
22.000000
 20
112.000000
 42
0.099038
  0
VERTEX
  8
0
 10
21.923658
 20
112.381638
 42
0.097945
  0
VERTEX
  8
0
 10
21.706250
 20
112.706250
 42
0.097945
  0
VERTEX
  8
0
 10
21.381638
 20
112.923658
 42
0.099038
  0
VERTEX
  8
0
 10
21.000000
 20
113.000000
 42
0.099038
  0
VERTEX
  8
0
 10
20.618362
 20
112.923658
 42
0.097945
  0
VERTEX
  8
0
 10
20.293750
 20
112.706250
 42
0.097945
  0
VERTEX
  8
0
 10
20.076342
 20
112.381638
 42
0.099038
  0
SEQEND
  0
POLYLINE
  8
0
 66
1
 70
1
  0
VERTEX
  8
0
 10
23.000000
 20
112.000000
 42
0.148195
  0
VERTEX
  8
0
 10
23.115568
 20
111.618646
 42
0.098894
  0
VERTEX
  8
0
 10
23.440625
 20
111.293750
 42
0.082425
  0
VERTEX
  8
0
 10
23.926543
 20
111.074694
 42
0.064853
  0
VERTEX
  8
0
 10
24.500000
 20
111.000000
 42
0.064853
  0
VERTEX
  8
0
 10
25.073457
 20
111.074694
 42
0.082425
  0
VERTEX
  8
0
 10
25.559375
 20
111.293750
 42
0.098894
  0
VERTEX
  8
0
 10
25.884432
 20
111.618646
 42
0.148195
  0
VERTEX
  8
0
 10
26.000000
 20
112.000000
 42
0.148195
  0
VERTEX
  8
0
 10
25.884432
 20
112.381354
 42
0.098894
  0
VERTEX
  8
0
 10
25.559375
 20
112.706250
 42
0.082425
  0
VERTEX
  8
0
 10
25.073457
 20
112.925306
 42
0.064853
  0
VERTEX
  8
0
 10
24.500000
 20
113.000000
 42
0.064853
  0
VERTEX
  8
0
 10
23.926543
 20
112.925306
 42
0.082425
  0
VERTEX
  8
0
 10
23.440625
 20
112.706250
 42
0.098894
  0
VERTEX
  8
0
 10
23.115568
 20
112.381354
 42
0.148195
  0
SEQEND
  0
POLYLINE
  8
0
 66
1
 70
1
  0
VERTEX
  8
0
 10
86.200054
 20
96.899838
 42
0.188102
  0
VERTEX
  8
0
 10
86.667338
 20
96.337808
 42
0.009407
  0
VERTEX
  8
0
 10
88.823092
 20
95.197584
 42
0.014053
  0
VERTEX
  8
0
 10
91.504433
 20
93.936574
 42
0.009609
  0
VERTEX
  8
0
 10
94.614578
 20
92.649838
 42
-0.014653
  0
VERTEX
  8
0
 10
98.252256
 20
91.101691
 42
-0.008350
  0
VERTEX
  8
0
 10
102.558964
 20
89.029953
 42
-0.008334
  0
VERTEX
  8
0
 10
106.828165
 20
86.797913
 42
-0.013646
  0
VERTEX
  8
0
 10
110.358128
 20
84.750000
 42
0.011002
  0
VERTEX
  8
0
 10
114.491684
 20
82.322603
 42
0.034221
  0
VERTEX
  8
0
 10
117.412327
 20
80.945594
 42
0.047774
  0
VERTEX
  8
0
 10
119.902788
 20
80.238402
 42
0.045331
  0
VERTEX
  8
0
 10
122.526937
 20
80.000000
 42
0.016833
  0
VERTEX
  8
0
 10
124.685326
 20
80.072684
 42
0.064146
  0
VERTEX
  8
0
 10
126.004490
 20
80.333835
 42
0.126650
  0
VERTEX
  8
0
 10
126.728557
 20
80.803593
 42
0.188000
  0
VERTEX
  8
0
 10
127.000000
 20
81.500000
 42
0.192563
  0
VERTEX
  8
0
 10
126.719821
 20
82.200523
 42
0.125356
  0
VERTEX
  8
0
 10
125.972322
 20
82.669633
 42
0.062125
  0
VERTEX
  8
0
 10
124.602857
 20
82.928671
 42
0.015715
  0
VERTEX
  8
0
 10
122.333933
 20
83.000000
 42
-0.040172
  0
VERTEX
  8
0
 10
119.631993
 20
83.217433
 42
-0.049708
  0
VERTEX
  8
0
 10
117.193390
 20
83.865983
 42
-0.037205
  0
VERTEX
  8
0
 10
114.434788
 20
85.143327
 42
-0.012276
  0
VERTEX
  8
0
 10
110.583933
 20
87.412936
 42
0.023118
  0
VERTEX
  8
0
 10
104.865990
 20
90.618050
 42
0.011112
  0
VERTEX
  8
0
 10
97.266941
 20
94.218261
 42
0.007322
  0
VERTEX
  8
0
 10
89.802079
 20
97.423549
 42
0.098046
  0
VERTEX
  8
0
 10
86.890635
 20
98.000000
 42
0.113253
  0
VERTEX
  8
0
 10
86.516470
 20
97.914148
 42
0.140708
  0
VERTEX
  8
0
 10
86.251640
 20
97.676828
 42
0.130533
  0
VERTEX
  8
0
 10
86.140799
 20
97.319708
 42
0.091025
  0
SEQEND
  0
POLYLINE
  8
0
 66
1
 70
1
  0
VERTEX
  8
0
 10
88.000000
 20
33.000000
 42
-0.191087
  0
VERTEX
  8
0
 10
87.848523
 20
32.618118
 42
-0.088204
  0
VERTEX
  8
0
 10
87.412500
 20
32.293750
 42
-0.068025
  0
VERTEX
  8
0
 10
86.765418
 20
32.073693
 42
-0.048028
  0
VERTEX
  8
0
 10
86.000000
 20
32.000000
 42
0.072314
  0
VERTEX
  8
0
 10
85.230589
 20
31.888136
 42
0.088920
  0
VERTEX
  8
0
 10
84.583333
 20
31.562500
 42
0.102140
  0
VERTEX
  8
0
 10
84.153209
 20
31.075754
 42
0.130775
  0
VERTEX
  8
0
 10
84.000000
 20
30.500000
 42
-0.099038
  0
VERTEX
  8
0
 10
83.885486
 20
29.927543
 42
-0.097945
  0
VERTEX
  8
0
 10
83.559375
 20
29.440625
 42
-0.097945
  0
VERTEX
  8
0
 10
83.072457
 20
29.114514
 42
-0.099038
  0
VERTEX
  8
0
 10
82.500000
 20
29.000000
 42
0.099038
  0
VERTEX
  8
0
 10
81.927543
 20
28.885486
 42
0.097945
  0
VERTEX
  8
0
 10
81.440625
 20
28.559375
 42
0.097945
  0
VERTEX
  8
0
 10
81.114514
 20
28.072457
 42
0.099038
  0
VERTEX
  8
0
 10
81.000000
 20
27.500000
 42
0.099038
  0
VERTEX
  8
0
 10
81.114514
 20
26.927543
 42
0.097945
  0
VERTEX
  8
0
 10
81.440625
 20
26.440625
 42
0.097945
  0
VERTEX
  8
0
 10
81.927543
 20
26.114514
 42
0.099038
  0
VERTEX
  8
0
 10
82.500000
 20
26.000000
 42
-0.099038
  0
VERTEX
  8
0
 10
83.072457
 20
25.885486
 42
-0.097945
  0
VERTEX
  8
0
 10
83.559375
 20
25.559375
 42
-0.097945
  0
VERTEX
  8
0
 10
83.885486
 20
25.072457
 42
-0.099038
  0
VERTEX
  8
0
 10
84.000000
 20
24.500000
 42
0.130775
  0
VERTEX
  8
0
 10
84.153209
 20
23.924246
 42
0.102140
  0
VERTEX
  8
0
 10
84.583333
 20
23.437500
 42
0.088920
  0
VERTEX
  8
0
 10
85.230589
 20
23.111864
 42
0.072314
  0
VERTEX
  8
0
 10
86.000000
 20
23.000000
 42
-0.072314
  0
VERTEX
  8
0
 10
86.769411
 20
22.888136
 42
-0.088920
  0
VERTEX
  8
0
 10
87.416667
 20
22.562500
 42
-0.102140
  0
VERTEX
  8
0
 10
87.846791
 20
22.075754
 42
-0.130775
  0
VERTEX
  8
0
 10
88.000000
 20
21.500000
 42
0.152103
  0
VERTEX
  8
0
 10
88.202091
 20
20.851045
 42
0.126510
  0
VERTEX
  8
0
 10
88.750000
 20
20.375000
 42
0.082504
  0
VERTEX
  8
0
 10
89.677925
 20
20.088963
 42
0.033607
  0
VERTEX
  8
0
 10
91.000000
 20
20.000000
 42
0.033607
  0
VERTEX
  8
0
 10
92.322075
 20
20.088963
 42
0.082504
  0
VERTEX
  8
0
 10
93.250000
 20
20.375000
 42
0.126510
  0
VERTEX
  8
0
 10
93.797909
 20
20.851045
 42
0.152103
  0
VERTEX
  8
0
 10
94.000000
 20
21.500000
 42
-0.130775
  0
VERTEX
  8
0
 10
94.153209
 20
22.075754
 42
-0.102140
  0
VERTEX
  8
0
 10
94.583333
 20
22.562500
 42
-0.088920
  0
VERTEX
  8
0
 10
95.230589
 20
22.888136
 42
-0.072314
  0
VERTEX
  8
0
 10
96.000000
 20
23.000000
 42
0.072314
  0
VERTEX
  8
0
 10
96.769411
 20
23.111864
 42
0.088920
  0
VERTEX
  8
0
 10
97.416667
 20
23.437500
 42
0.102140
  0
VERTEX
  8
0
 10
97.846791
 20
23.924246
 42
0.130775
  0
VERTEX
  8
0
 10
98.000000
 20
24.500000
 42
-0.130775
  0
VERTEX
  8
0
 10
98.153209
 20
25.075754
 42
-0.102140
  0
VERTEX
  8
0
 10
98.583333
 20
25.562500
 42
-0.088920
  0
VERTEX
  8
0
 10
99.230589
 20
25.888136
 42
-0.072314
  0
VERTEX
  8
0
 10
100.000000
 20
26.000000
 42
0.072314
  0
VERTEX
  8
0
 10
100.769411
 20
26.111864
 42
0.088920
  0
VERTEX
  8
0
 10
101.416667
 20
26.437500
 42
0.102140
  0
VERTEX
  8
0
 10
101.846791
 20
26.924246
 42
0.130775
  0
VERTEX
  8
0
 10
102.000000
 20
27.500000
 42
0.130775
  0
VERTEX
  8
0
 10
101.846791
 20
28.075754
 42
0.102140
  0
VERTEX
  8
0
 10
101.416667
 20
28.562500
 42
0.088920
  0
VERTEX
  8
0
 10
100.769411
 20
28.888136
 42
0.072314
  0
VERTEX
  8
0
 10
100.000000
 20
29.000000
 42
-0.072314
  0
VERTEX
  8
0
 10
99.230589
 20
29.111864
 42
-0.088920
  0
VERTEX
  8
0
 10
98.583333
 20
29.437500
 42
-0.102140
  0
VERTEX
  8
0
 10
98.153209
 20
29.924246
 42
-0.130775
  0
VERTEX
  8
0
 10
98.000000
 20
30.500000
 42
0.130775
  0
VERTEX
  8
0
 10
97.846791
 20
31.075754
 42
0.102140
  0
VERTEX
  8
0
 10
97.416667
 20
31.562500
 42
0.088920
  0
VERTEX
  8
0
 10
96.769411
 20
31.888136
 42
0.072314
  0
VERTEX
  8
0
 10
96.000000
 20
32.000000
 42
-0.048028
  0
VERTEX
  8
0
 10
95.234582
 20
32.073693
 42
-0.068025
  0
VERTEX
  8
0
 10
94.587500
 20
32.293750
 42
-0.088204
  0
VERTEX
  8
0
 10
94.151477
 20
32.618118
 42
-0.191087
  0
VERTEX
  8
0
 10
94.000000
 20
33.000000
 42
0.254951
  0
VERTEX
  8
0
 10
93.790443
 20
33.384262
 42
0.062710
  0
VERTEX
  8
0
 10
93.118750
 20
33.706250
 42
0.048861
  0
VERTEX
  8
0
 10
92.149251
 20
33.927234
 42
0.031626
  0
VERTEX
  8
0
 10
91.000000
 20
34.000000
 42
0.031626
  0
VERTEX
  8
0
 10
89.850749
 20
33.927234
 42
0.048861
  0
VERTEX
  8
0
 10
88.881250
 20
33.706250
 42
0.062710
  0
VERTEX
  8
0
 10
88.209557
 20
33.384262
 42
0.254951
  0
SEQEND
  0
POLYLINE
  8
0
 66
1
 70
1
  0
VERTEX
  8
0
 10
93.000000
 20
32.000000
 42
0.191087
  0
VERTEX
  8
0
 10
93.151477
 20
31.618118
 42
0.088204
  0
VERTEX
  8
0
 10
93.587500
 20
31.293750
 42
0.068025
  0
VERTEX
  8
0
 10
94.234582
 20
31.073693
 42
0.048028
  0
VERTEX
  8
0
 10
95.000000
 20
31.000000
 42
-0.072314
  0
VERTEX
  8
0
 10
95.769411
 20
30.888136
 42
-0.088920
  0
VERTEX
  8
0
 10
96.416667
 20
30.562500
 42
-0.102140
  0
VERTEX
  8
0
 10
96.846791
 20
30.075754
 42
-0.130775
  0
VERTEX
  8
0
 10
97.000000
 20
29.500000
 42
0.139989
  0
VERTEX
  8
0
 10
97.169388
 20
28.906853
 42
0.096728
  0
VERTEX
  8
0
 10
97.647697
 20
28.392596
 42
0.080816
  0
VERTEX
  8
0
 10
98.373213
 20
28.026372
 42
0.061510
  0
VERTEX
  8
0
 10
99.250000
 20
27.863818
 42
0.000000
  0
VERTEX
  8
0
 10
101.500000
 20
27.727636
 42
0.000000
  0
VERTEX
  8
0
 10
99.250000
 20
27.294267
 42
0.058152
  0
VERTEX
  8
0
 10
98.389611
 20
27.022023
 42
0.067395
  0
VERTEX
  8
0
 10
97.660938
 20
26.568006
 42
0.078312
  0
VERTEX
  8
0
 10
97.168558
 20
26.009654
 42
0.142551
  0
VERTEX
  8
0
 10
97.000000
 20
25.430449
 42
-0.138599
  0
VERTEX
  8
0
 10
96.845831
 20
24.884964
 42
-0.100092
  0
VERTEX
  8
0
 10
96.412500
 20
24.420194
 42
-0.085727
  0
VERTEX
  8
0
 10
95.764381
 20
24.107250
 42
-0.069813
  0
VERTEX
  8
0
 10
95.000000
 20
24.000000
 42
0.072314
  0
VERTEX
  8
0
 10
94.230589
 20
23.888136
 42
0.088920
  0
VERTEX
  8
0
 10
93.583333
 20
23.562500
 42
0.102140
  0
VERTEX
  8
0
 10
93.153209
 20
23.075754
 42
0.130775
  0
VERTEX
  8
0
 10
93.000000
 20
22.500000
 42
-0.130775
  0
VERTEX
  8
0
 10
92.846791
 20
21.924246
 42
-0.102140
  0
VERTEX
  8
0
 10
92.416667
 20
21.437500
 42
-0.088920
  0
VERTEX
  8
0
 10
91.769411
 20
21.111864
 42
-0.072314
  0
VERTEX
  8
0
 10
91.000000
 20
21.000000
 42
-0.072314
  0
VERTEX
  8
0
 10
90.230589
 20
21.111864
 42
-0.088920
  0
VERTEX
  8
0
 10
89.583333
 20
21.437500
 42
-0.102140
  0
VERTEX
  8
0
 10
89.153209
 20
21.924246
 42
-0.130775
  0
VERTEX
  8
0
 10
89.000000
 20
22.500000
 42
0.130775
  0
VERTEX
  8
0
 10
88.846791
 20
23.075754
 42
0.102140
  0
VERTEX
  8
0
 10
88.416667
 20
23.562500
 42
0.088920
  0
VERTEX
  8
0
 10
87.769411
 20
23.888136
 42
0.072314
  0
VERTEX
  8
0
 10
87.000000
 20
24.000000
 42
-0.072314
  0
VERTEX
  8
0
 10
86.230589
 20
24.111864
 42
-0.088920
  0
VERTEX
  8
0
 10
85.583333
 20
24.437500
 42
-0.102140
  0
VERTEX
  8
0
 10
85.153209
 20
24.924246
 42
-0.130775
  0
VERTEX
  8
0
 10
85.000000
 20
25.500000
 42
0.113553
  0
VERTEX
  8
0
 10
84.866265
 20
26.081275
 42
0.093499
  0
VERTEX
  8
0
 10
84.485938
 20
26.593450
 42
0.087338
  0
VERTEX
  8
0
 10
83.918405
 20
26.958323
 42
0.082928
  0
VERTEX
  8
0
 10
83.250000
 20
27.116001
 42
-0.002113
  0
VERTEX
  8
0
 10
82.076061
 20
27.198801
 42
-0.392517
  0
VERTEX
  8
0
 10
82.000000
 20
27.280763
 42
-0.339035
  0
VERTEX
  8
0
 10
82.073823
 20
27.377121
 42
-0.001923
  0
VERTEX
  8
0
 10
83.250000
 20
27.689326
 42
0.071619
  0
VERTEX
  8
0
 10
83.918867
 20
27.971018
 42
0.070280
  0
VERTEX
  8
0
 10
84.485938
 20
28.431396
 42
0.075733
  0
VERTEX
  8
0
 10
84.868522
 20
28.993792
 42
0.112012
  0
VERTEX
  8
0
 10
85.000000
 20
29.573324
 42
-0.138952
  0
VERTEX
  8
0
 10
85.154169
 20
30.117370
 42
-0.100057
  0
VERTEX
  8
0
 10
85.587500
 20
30.580914
 42
-0.085606
  0
VERTEX
  8
0
 10
86.235610
 20
30.893049
 42
-0.069620
  0
VERTEX
  8
0
 10
87.000000
 20
31.000000
 42
0.048028
  0
VERTEX
  8
0
 10
87.765418
 20
31.073693
 42
0.068025
  0
VERTEX
  8
0
 10
88.412500
 20
31.293750
 42
0.088204
  0
VERTEX
  8
0
 10
88.848523
 20
31.618118
 42
0.191087
  0
VERTEX
  8
0
 10
89.000000
 20
32.000000
 42
-0.191087
  0
VERTEX
  8
0
 10
89.151477
 20
32.381882
 42
-0.088204
  0
VERTEX
  8
0
 10
89.587500
 20
32.706250
 42
-0.068025
  0
VERTEX
  8
0
 10
90.234582
 20
32.926307
 42
-0.048028
  0
VERTEX
  8
0
 10
91.000000
 20
33.000000
 42
-0.048028
  0
VERTEX
  8
0
 10
91.765418
 20
32.926307
 42
-0.068025
  0
VERTEX
  8
0
 10
92.412500
 20
32.706250
 42
-0.088204
  0
VERTEX
  8
0
 10
92.848523
 20
32.381882
 42
-0.191087
  0
SEQEND
  0
ENDSEC
  0
EOF
